#N canvas 4 134 603 309 10;
#X obj 39 16 bng 16 250 50 0 empty \$0-tgl-r - 4 8 0 13 -262144 -33289
-261689;
#X obj 39 36 f 0;
#X obj 71 36 + 1;
#X floatatom 39 107 5 0 0 0 - - -;
#X obj 39 82 + 1;
#X obj 39 194 f \$0;
#X obj 65 173 t b b b, f 17;
#X msg 72 194 symbol A;
#X obj 39 129 t b f;
#X obj 179 174 t b b b, f 17;
#X obj 291 172 t b b b, f 17;
#X msg 359 193 8;
#X msg 186 195 symbol P;
#X msg 298 193 symbol L;
#X obj 40 220 pack f s f f;
#X msg 133 194 3;
#X msg 159 195 13;
#X msg 247 195 6;
#X msg 271 195 16;
#X msg 389 196 18;
#X msg 38 243 \; \$1-tgl-r label \$2 \; \$1-tgl-r color \$3 12 \$4
, f 24;
#X obj 234 270 outlet;
#X obj 39 59 mod 4;
#X obj 65 150 select 1 2 3 4, f 78;
#X obj 422 175 t b b b, f 17;
#X msg 429 196 symbol -;
#X msg 490 196 0;
#X msg 520 199 3;
#X msg 235 246 \$1;
#X obj 129 10 inlet;
#X obj 131 85 loadbang;
#X msg 131 108 3;
#X obj 129 33 route bang A P L, f 26;
#X msg 167 56 0;
#X msg 205 56 1;
#X msg 241 56 2;
#X msg 282 57 3;
#X connect 0 0 1 0;
#X connect 1 0 2 0;
#X connect 1 0 22 0;
#X connect 2 0 1 1;
#X connect 3 0 8 0;
#X connect 4 0 3 0;
#X connect 5 0 14 0;
#X connect 6 0 7 0;
#X connect 6 1 15 0;
#X connect 6 2 16 0;
#X connect 7 0 14 1;
#X connect 7 0 28 0;
#X connect 8 0 5 0;
#X connect 8 1 23 0;
#X connect 9 0 12 0;
#X connect 9 1 17 0;
#X connect 9 2 18 0;
#X connect 10 0 13 0;
#X connect 10 1 11 0;
#X connect 10 2 19 0;
#X connect 11 0 14 2;
#X connect 12 0 14 1;
#X connect 12 0 28 0;
#X connect 13 0 14 1;
#X connect 13 0 28 0;
#X connect 14 0 20 0;
#X connect 15 0 14 2;
#X connect 16 0 14 3;
#X connect 17 0 14 2;
#X connect 18 0 14 3;
#X connect 19 0 14 3;
#X connect 22 0 4 0;
#X connect 23 0 6 0;
#X connect 23 1 9 0;
#X connect 23 2 10 0;
#X connect 23 3 24 0;
#X connect 24 0 25 0;
#X connect 24 1 26 0;
#X connect 24 2 27 0;
#X connect 25 0 14 1;
#X connect 25 0 28 0;
#X connect 26 0 14 2;
#X connect 27 0 14 3;
#X connect 28 0 21 0;
#X connect 29 0 32 0;
#X connect 30 0 31 0;
#X connect 31 0 1 0;
#X connect 32 0 0 0;
#X connect 32 1 33 0;
#X connect 32 2 34 0;
#X connect 32 3 35 0;
#X connect 32 4 36 0;
#X connect 33 0 1 0;
#X connect 34 0 1 0;
#X connect 35 0 1 0;
#X connect 36 0 1 0;
#X coords 0 -1 1 1 16 16 2 39 16;
