#N canvas 92 61 678 391 10;
#X obj 32 103 text define \$0-toload;
#X obj 32 173 text sequence \$0-toload;
#X obj 32 198 list trim;
#X obj 32 223 route #, f 12;
#X text 31 246 # comments;
#X obj 40 415 print, f 6;
#X msg 135 145 step;
#X obj 15 7 loadbang;
#X obj 101 249 t a b a b;
#X obj 147 298 + 1;
#X obj 147 273 f;
#X obj 32 128 t a -1;
#X floatatom 147 323 5 0 0 0 - - -;
#X msg 147 347 \$1;
#X obj 101 388 list prepend;
#X obj 72 8 bng 15 250 50 0 empty empty empty 17 7 0 10 -262144 -1
-1;
#X msg 66 56 clear;
#X msg 32 148 line 0 \, bang;
#X msg 248 331 vis 2 1;
#X msg 49 79 read /home/zig/Documents/Pd/samples_to_load.txt;
#X msg 251 355 vis 0 1;
#X msg 257 377 vis 1 1;
#X obj 101 415 clone -s 1 load_sample 16;
#X obj 15 32 t b b b b;
#X msg 15 276 \; pd dsp 1;
#X obj 33 454 catch~ s1;
#X obj 96 456 catch~ s2;
#X obj 160 456 catch~ s3;
#X obj 224 455 catch~ s4;
#X obj 224 478 outlet~;
#X obj 289 457 catch~ s5;
#X obj 289 480 outlet~;
#X obj 352 458 catch~ s6;
#X obj 352 481 outlet~;
#X obj 415 459 catch~ s7;
#X obj 415 482 outlet~;
#X obj 481 459 catch~ s8;
#X obj 481 482 outlet~;
#X obj 33 477 outlet~;
#X obj 96 479 outlet~;
#X obj 160 479 outlet~;
#X obj 545 460 catch~ s0;
#X obj 545 483 outlet~;
#X obj 177 20 bng 15 250 50 0 empty empty Load 17 7 0 10 -262144 -1
-1;
#X obj 406 64 openpanel;
#X msg 406 87 read \$1;
#X obj 404 40 t b b;
#X connect 0 0 11 0;
#X connect 1 0 2 0;
#X connect 2 0 3 0;
#X connect 3 1 8 0;
#X connect 6 0 1 0;
#X connect 7 0 23 0;
#X connect 8 0 14 0;
#X connect 8 3 10 0;
#X connect 9 0 12 0;
#X connect 10 0 9 0;
#X connect 11 0 17 0;
#X connect 11 1 10 1;
#X connect 12 0 13 0;
#X connect 12 0 10 1;
#X connect 13 0 14 1;
#X connect 14 0 5 0;
#X connect 14 0 22 0;
#X connect 15 0 23 0;
#X connect 16 0 0 0;
#X connect 17 0 1 0;
#X connect 18 0 22 0;
#X connect 19 0 0 0;
#X connect 20 0 22 0;
#X connect 21 0 22 0;
#X connect 23 0 24 0;
#X connect 23 1 0 0;
#X connect 23 2 19 0;
#X connect 23 3 16 0;
#X connect 25 0 38 0;
#X connect 26 0 39 0;
#X connect 27 0 40 0;
#X connect 28 0 29 0;
#X connect 30 0 31 0;
#X connect 32 0 33 0;
#X connect 34 0 35 0;
#X connect 36 0 37 0;
#X connect 41 0 42 0;
#X connect 43 0 46 0;
#X connect 44 0 45 0;
#X connect 45 0 0 0;
#X connect 46 0 44 0;
#X connect 46 1 16 0;
#X coords 0 -1 1 1 120 18 1 100 20;
