#N canvas 10 69 706 377 10;
#X obj 202 12 inlet;
#X text 245 14 0 or 1;
#X obj 202 37 select 0 1, f 28;
#X obj 202 144 bng 15 250 50 0 empty empty empty 17 7 0 10 -262144
-1 -1;
#X obj 284 65 bng 15 250 50 0 empty empty empty 17 7 0 10 -262144 -1
-1;
#X text 309 63 switch on and ramp volume up;
#X obj 284 91 t b b b b b, f 16;
#X obj 161 118 tgl 15 0 empty empty empty 17 7 0 10 -262144 -1 -1 0
1;
#X obj 377 114 f 0;
#X obj 353 114 f 1;
#X obj 328 115 f 1;
#X obj 306 116 f 1;
#X obj 283 116 f 1;
#X obj 236 336 outlet;
#X text 235 353 switch;
#X text 300 353 vol multipl;
#X obj 296 334 outlet~;
#X obj 390 336 outlet;
#X text 389 357 1 or 0;
#X obj 295 306 line~;
#X msg 295 277 \$1 10;
#X text 224 140 ramp vol down and switch off;
#X obj 202 164 t b b b;
#X obj 202 228 delay 15;
#X obj 202 251 t b b;
#X obj 202 274 f 0;
#X obj 230 275 f 0;
#X obj 241 187 f 0;
#X obj 217 189 f 0;
#X text 142 101 switch;
#X obj 102 103 bng 15 250 50 0 empty empty empty 17 7 0 10 -262144
-1 -1;
#X text 120 101 on;
#X obj 102 121 bng 15 250 50 0 empty empty empty 17 7 0 10 -262144
-1 -1;
#X text 118 118 off;
#X connect 0 0 2 0;
#X connect 2 0 3 0;
#X connect 2 1 4 0;
#X connect 3 0 22 0;
#X connect 4 0 6 0;
#X connect 6 0 12 0;
#X connect 6 1 11 0;
#X connect 6 2 10 0;
#X connect 6 3 9 0;
#X connect 6 4 8 0;
#X connect 8 0 19 0;
#X connect 9 0 7 0;
#X connect 10 0 13 0;
#X connect 11 0 17 0;
#X connect 12 0 20 0;
#X connect 19 0 16 0;
#X connect 20 0 19 0;
#X connect 22 0 23 0;
#X connect 22 1 28 0;
#X connect 22 2 27 0;
#X connect 23 0 24 0;
#X connect 24 0 25 0;
#X connect 24 1 26 0;
#X connect 25 0 13 0;
#X connect 26 0 7 0;
#X connect 27 0 17 0;
#X connect 28 0 20 0;
#X connect 30 0 4 0;
#X connect 32 0 3 0;
#X coords 0 -1 1 1 85 40 2 100 100;
