#N canvas 42 124 450 300 10;
#X obj 202 173 adc~;
#X obj 202 220 *~;
#X obj 202 243 dac~;
#X obj 101 103 vsl 15 40 1 127 0 0 \$0-slider-s \$0-slider-r empty
0 -9 0 10 -262144 -1 -1 3869 0;
#X floatatom 102 166 2 0 0 0 - - -;
#X msg 124 192 set \$1;
#X obj 40 111 loadbang;
#X obj 40 134 f \$1;
#X obj 26 200 outlet;
#X obj 206 87 inlet;
#X obj 101 148 tgl 15 0 empty empty M 5 7 0 10 -262144 -1 -1 0 1;
#X obj 71 198 == 0;
#X obj 109 220 switch~;
#X floatatom 71 221 5 0 0 0 - - -;
#X obj 217 198 / 120;
#X connect 0 0 1 0;
#X connect 1 0 2 0;
#X connect 3 0 8 0;
#X connect 3 0 14 0;
#X connect 4 0 5 0;
#X connect 5 0 0 0;
#X connect 5 0 2 0;
#X connect 6 0 7 0;
#X connect 7 0 4 0;
#X connect 9 0 3 0;
#X connect 10 0 11 0;
#X connect 11 0 12 0;
#X connect 11 0 13 0;
#X connect 14 0 1 1;
#X coords 0 -1 1 1 17 85 2 100 100;
