#N canvas 4 57 392 389 10;
#X obj 123 10 drumkit, f 21;
#X obj 9 11 adc~ 1 2;
#X obj 73 10 adc~ 3;
#X obj 62 376 dac~;
#N canvas 22 70 759 300 mixer_drums 0;
#X obj 167 13 ctlin;
#X floatatom 212 37 4 0 0 0 - - -;
#X obj 167 59 pack f f;
#X floatatom 167 37 3 0 0 0 - - -;
#X obj 167 101 route 48 49 50 51 52 53 54 55 56, f 35;
#X obj 223 138 mixer_1vol;
#X obj 397 98 inlet~;
#X obj 437 98 inlet~;
#X obj 477 98 inlet~;
#X obj 517 98 inlet~;
#X obj 557 98 inlet~;
#X obj 597 98 inlet~;
#X obj 637 98 inlet~;
#X obj 677 98 inlet~;
#X obj 242 138 mixer_1vol;
#X obj 262 138 mixer_1vol;
#X obj 282 138 mixer_1vol;
#X obj 302 138 mixer_1vol;
#X obj 322 138 mixer_1vol;
#X obj 342 138 mixer_1vol;
#X obj 362 138 mixer_1vol;
#X obj 353 249 outlet~;
#X obj 403 249 outlet~;
#X obj 453 249 outlet~;
#X obj 503 249 outlet~;
#X obj 553 249 outlet~;
#X obj 603 249 outlet~;
#X obj 653 249 outlet~;
#X obj 703 249 outlet~;
#X obj 167 80 spigot, f 15;
#X obj 255 29 r act_m-s;
#X obj 255 56 == 2;
#X text 292 57 mode 2 only;
#X msg 38 220 64 \$1;
#X obj 38 243 s apc_leds_m2;
#X msg 81 219 65 \$1;
#X msg 123 219 66 \$1;
#X msg 163 219 67 \$1;
#X msg 203 219 68 \$1;
#X msg 243 219 69 \$1;
#X msg 283 219 70 \$1;
#X msg 323 219 71 \$1;
#X obj 23 33 notein 1;
#X floatatom 23 58 5 0 0 0 - - -;
#X obj 23 81 stripnote;
#X obj 23 104 spigot, f 15;
#X obj 23 132 route 64 65 66 67 68 69 70 71;
#X connect 0 0 1 0;
#X connect 0 1 3 0;
#X connect 1 0 2 1;
#X connect 2 0 29 0;
#X connect 3 0 2 0;
#X connect 4 0 5 0;
#X connect 4 1 14 0;
#X connect 4 2 15 0;
#X connect 4 3 16 0;
#X connect 4 4 17 0;
#X connect 4 5 18 0;
#X connect 4 6 19 0;
#X connect 4 7 20 0;
#X connect 5 0 33 0;
#X connect 5 1 21 0;
#X connect 6 0 5 1;
#X connect 7 0 14 1;
#X connect 8 0 15 1;
#X connect 9 0 16 1;
#X connect 10 0 17 1;
#X connect 11 0 18 1;
#X connect 12 0 19 1;
#X connect 13 0 20 1;
#X connect 14 0 35 0;
#X connect 14 1 22 0;
#X connect 15 0 36 0;
#X connect 15 1 23 0;
#X connect 16 0 37 0;
#X connect 16 1 24 0;
#X connect 17 0 38 0;
#X connect 17 1 25 0;
#X connect 18 0 39 0;
#X connect 18 1 26 0;
#X connect 19 0 40 0;
#X connect 19 1 27 0;
#X connect 20 0 41 0;
#X connect 20 1 28 0;
#X connect 29 0 4 0;
#X connect 30 0 31 0;
#X connect 31 0 29 1;
#X connect 31 0 45 1;
#X connect 33 0 34 0;
#X connect 35 0 34 0;
#X connect 36 0 34 0;
#X connect 37 0 34 0;
#X connect 38 0 34 0;
#X connect 39 0 34 0;
#X connect 40 0 34 0;
#X connect 41 0 34 0;
#X connect 42 0 43 0;
#X connect 42 1 44 1;
#X connect 43 0 44 0;
#X connect 44 0 45 0;
#X connect 45 0 46 0;
#X connect 46 0 5 0;
#X connect 46 1 14 0;
#X connect 46 2 15 0;
#X connect 46 3 16 0;
#X connect 46 4 17 0;
#X connect 46 5 18 0;
#X connect 46 6 19 0;
#X connect 46 7 20 0;
#X coords 0 -1 1 1 154 75 1 223 123;
#X restore 122 36 pd mixer_drums;
#N canvas 39 146 449 300 mixer_stereo 0;
#X obj 94 14 ctlin;
#X floatatom 139 38 4 0 0 0 - - -;
#X obj 94 60 pack f f;
#X floatatom 94 38 3 0 0 0 - - -;
#X obj 267 18 inlet~;
#X obj 307 18 inlet~;
#X obj 223 249 outlet~;
#X obj 273 249 outlet~;
#X obj 221 133 cnv 15 19 64 empty \$0-cnv-r empty 20 12 0 14 -258113
-66577 0;
#X msg 251 144 \$0-cnv-r;
#X obj 223 135 mixer_stereovol;
#X msg 54 215 64 \$1;
#X obj 94 83 route 48, f 10;
#X obj 26 14 notein 1;
#X floatatom 26 39 5 0 0 0 - - -;
#X obj 26 62 stripnote;
#X obj 26 83 route 64;
#X obj 53 237 s apc_leds_m1;
#X obj 178 83 == 1;
#X obj 145 107 spigot;
#X obj 178 56 r act_m-s;
#X text 35 141 things to configure: button for Mute (input and output)
\, slider for Volume \, active_mode, f 23;
#X connect 0 0 1 0;
#X connect 0 1 3 0;
#X connect 1 0 2 1;
#X connect 2 0 12 0;
#X connect 3 0 2 0;
#X connect 4 0 10 1;
#X connect 5 0 10 2;
#X connect 10 0 11 0;
#X connect 10 1 6 0;
#X connect 10 2 7 0;
#X connect 11 0 17 0;
#X connect 12 0 19 0;
#X connect 13 0 14 0;
#X connect 13 1 15 1;
#X connect 14 0 15 0;
#X connect 15 0 16 0;
#X connect 16 0 19 0;
#X connect 18 0 19 1;
#X connect 19 0 10 0;
#X connect 20 0 18 0;
#X coords 0 -1 1 1 19 64 2 221 133;
#X restore 21 203 pd mixer_stereo;
#X text 18 330 master;
#N canvas 370 150 252 296 monopan 0;
#X obj 30 70 monopan;
#X obj 91 32 ctlin;
#X floatatom 91 55 5 0 0 0 - - -;
#X floatatom 137 56 5 0 0 0 - - -;
#X obj 92 88 pack f f;
#X obj 92 111 route;
#X obj 30 28 inlet~;
#X obj 14 158 outlet~;
#X obj 65 159 outlet~;
#X connect 0 0 7 0;
#X connect 0 1 8 0;
#X connect 1 0 2 0;
#X connect 1 1 3 0;
#X connect 2 0 4 1;
#X connect 3 0 4 0;
#X connect 4 0 5 0;
#X connect 5 0 0 1;
#X connect 6 0 0 0;
#X coords 0 -1 1 1 15 15 2 30 70;
#X restore 65 269 pd monopan;
#N canvas 0 50 759 300 mixer_stereo 0;
#X obj 47 13 ctlin;
#X floatatom 92 37 4 0 0 0 - - -;
#X obj 47 59 pack f f;
#X floatatom 47 37 3 0 0 0 - - -;
#X obj 267 18 inlet~;
#X obj 307 18 inlet~;
#X obj 223 249 outlet~;
#X obj 273 249 outlet~;
#X obj 221 133 cnv 15 31 64 empty \$0-cnv-r empty 20 12 0 14 -99865
-66577 0;
#X msg 46 147 \$0-cnv-r;
#X obj 229 135 mixer_stereovol;
#X obj 48 82 route 56, f 35;
#X obj 382 31 loadbang;
#X msg 382 54 bang;
#X connect 0 0 1 0;
#X connect 0 1 3 0;
#X connect 1 0 2 1;
#X connect 2 0 11 0;
#X connect 3 0 2 0;
#X connect 4 0 10 1;
#X connect 5 0 10 2;
#X connect 10 1 6 0;
#X connect 10 2 7 0;
#X connect 11 0 10 0;
#X connect 12 0 13 0;
#X connect 13 0 10 0;
#X coords 0 -1 1 1 31 64 2 221 133;
#X restore 62 308 pd mixer_stereo;
#N canvas 324 140 405 300 mixer_stereo 0;
#X obj 97 16 ctlin;
#X floatatom 142 40 4 0 0 0 - - -;
#X obj 97 62 pack f f;
#X floatatom 97 40 3 0 0 0 - - -;
#X obj 267 18 inlet~;
#X obj 307 18 inlet~;
#X obj 223 249 outlet~;
#X obj 273 249 outlet~;
#X obj 221 133 cnv 15 19 64 empty \$0-cnv-r empty 20 12 0 14 -260097
-66577 0;
#X msg 46 147 \$0-cnv-r;
#X obj 223 135 mixer_stereovol;
#X obj 97 85 route 49, f 12;
#X obj 26 14 notein 1;
#X floatatom 26 39 5 0 0 0 - - -;
#X obj 26 62 stripnote;
#X obj 26 83 route 65;
#X msg 54 215 65 \$1;
#X obj 53 237 s apc_leds_m1;
#X obj 178 83 == 1;
#X obj 145 107 spigot;
#X obj 178 56 r act_m-s;
#X connect 0 0 1 0;
#X connect 0 1 3 0;
#X connect 1 0 2 1;
#X connect 2 0 11 0;
#X connect 3 0 2 0;
#X connect 4 0 10 1;
#X connect 5 0 10 2;
#X connect 10 0 16 0;
#X connect 10 1 6 0;
#X connect 10 2 7 0;
#X connect 11 0 19 0;
#X connect 12 0 13 0;
#X connect 12 1 14 1;
#X connect 13 0 14 0;
#X connect 14 0 15 0;
#X connect 15 0 19 0;
#X connect 16 0 17 0;
#X connect 18 0 19 1;
#X connect 19 0 10 0;
#X connect 20 0 18 0;
#X coords 0 -1 1 1 19 64 2 221 133;
#X restore 42 203 pd mixer_stereo;
#N canvas 322 88 380 305 mixer_1vol 0;
#X obj 267 18 inlet~;
#X obj 223 249 outlet~;
#X obj 221 121 cnv 15 19 64 empty \$0-cnv-r empty 20 12 0 14 -257985
-66577 0;
#X obj 223 123 mixer_1vol;
#X obj 95 13 ctlin;
#X floatatom 140 37 4 0 0 0 - - -;
#X obj 95 59 pack f f;
#X floatatom 95 37 3 0 0 0 - - -;
#X msg 46 147 \$0-cnv-r;
#X obj 26 14 notein 1;
#X floatatom 26 39 5 0 0 0 - - -;
#X obj 26 62 stripnote;
#X obj 95 82 route 50, f 12;
#X obj 26 83 route 66;
#X msg 54 215 66 \$1;
#X obj 53 237 s apc_leds_m1;
#X obj 178 83 == 1;
#X obj 145 107 spigot;
#X obj 178 56 r act_m-s;
#X connect 0 0 3 1;
#X connect 3 0 14 0;
#X connect 3 1 1 0;
#X connect 4 0 5 0;
#X connect 4 1 7 0;
#X connect 5 0 6 1;
#X connect 6 0 12 0;
#X connect 7 0 6 0;
#X connect 9 0 10 0;
#X connect 9 1 11 1;
#X connect 10 0 11 0;
#X connect 11 0 13 0;
#X connect 12 0 17 0;
#X connect 13 0 17 0;
#X connect 14 0 15 0;
#X connect 16 0 17 1;
#X connect 17 0 3 0;
#X connect 18 0 16 0;
#X coords 0 -1 1 1 19 64 2 221 121;
#X restore 63 203 pd mixer_1vol;
#N canvas 476 215 277 231 init 0;
#X obj 51 115 tgl 15 0 empty empty switch 17 7 0 10 -261234 -258113
-1 1 1;
#X obj 108 35 loadbang;
#X msg 110 69 \; pd dsp 1;
#X msg 50 72 1;
#N canvas 316 127 450 300 midi_connect 0;
#X obj 37 16 inlet;
#X obj 37 74 ggee/shell;
#X msg 94 118 aconnect 129:2 24:0;
#X msg 37 47 aconnect 24:0 129:0;
#X msg 152 182 aconnect 16:0 129:1;
#X obj 37 102 bng 15 250 50 0 empty empty empty 17 7 0 10 -262144 -1
-1;
#X obj 94 99 bng 15 250 50 0 empty empty empty 17 7 0 10 -262144 -1
-1;
#X obj 87 12 bng 15 250 50 0 empty empty empty 17 7 0 10 -262144 -1
-1;
#X obj 94 141 ggee/shell;
#X obj 151 163 bng 15 250 50 0 empty empty empty 17 7 0 10 -262144
-1 -1;
#X obj 150 207 ggee/shell;
#X obj 206 231 bng 15 250 50 0 empty empty empty 17 7 0 10 -262144
-1 -1;
#X msg 310 64 64 2;
#X obj 299 121 noteout 1;
#X msg 284 89 64 0;
#X obj 284 18 t b b;
#X obj 284 41 delay 2000;
#X obj 128 18 loadbang;
#X connect 0 0 3 0;
#X connect 1 0 5 0;
#X connect 1 1 6 0;
#X connect 2 0 8 0;
#X connect 3 0 1 0;
#X connect 4 0 10 0;
#X connect 6 0 2 0;
#X connect 7 0 3 0;
#X connect 8 1 9 0;
#X connect 9 0 4 0;
#X connect 10 1 11 0;
#X connect 11 0 15 0;
#X connect 12 0 13 0;
#X connect 14 0 13 0;
#X connect 15 0 16 0;
#X connect 15 1 12 0;
#X connect 16 0 14 0;
#X connect 17 0 3 0;
#X restore 101 172 pd midi_connect;
#X obj 51 130 bng 15 250 50 0 empty empty aconnect 17 7 0 10 -262144
-1 -1;
#X obj 35 170 outlet;
#X obj 175 74 delay 1000;
#X connect 0 0 6 0;
#X connect 1 0 2 0;
#X connect 1 0 3 0;
#X connect 1 0 7 0;
#X connect 3 0 0 0;
#X connect 5 0 4 0;
#X connect 7 0 5 0;
#X coords 0 -1 1 1 66 45 1 50 100;
#X restore 232 308 pd init;
#N canvas 34 86 646 300 globalrec 0;
#X obj 50 20 bng 15 250 50 0 startstoprec-s startstoprec-r rec(pedal)
17 7 0 10 -262144 -33289 -33289;
#X obj 51 81 tgl 15 0 empty empty empty 17 7 0 10 -262144 -1 -1 0 1
;
#X msg 51 240 \; startstoprec-r color 13 12 12;
#X msg 121 205 \; startstoprec-r color 0 12 12;
#X obj 51 124 t b b;
#X obj 121 124 t b b;
#X msg 78 152 bang;
#X obj 51 101 select 1 0, f 24;
#X obj 78 175 s globalrec;
#X obj 50 36 bng 15 250 50 0 startstopplay-s startstopplay-r play 17
7 0 10 -262144 -33289 -33289;
#X obj 311 81 tgl 15 0 empty empty empty 17 7 0 10 -262144 -1 -1 0
1;
#X obj 311 124 t b b;
#X obj 381 124 t b b;
#X msg 338 152 bang;
#X msg 408 149 stop;
#X obj 311 101 select 1 0, f 24;
#X msg 381 205 \; startstopplay-r color 0 12 12;
#X msg 311 240 \; startstopplay-r color 16 12 12;
#X obj 339 175 s globalplay;
#N canvas 240 122 450 300 pedal_rec 0;
#X obj 39 10 ctlin;
#X floatatom 39 33 5 0 0 0 - - -;
#X floatatom 79 34 5 0 0 0 - - -;
#X obj 40 83 stripnote;
#X obj 100 110 bng 15 250 50 0 empty empty empty 17 7 0 10 -262144
-1 -1;
#X obj 40 57 pack f f;
#X floatatom 40 106 5 0 0 0 - - -;
#X obj 40 128 route 64;
#X obj 40 151 outlet;
#X connect 0 0 1 0;
#X connect 0 1 2 0;
#X connect 1 0 5 1;
#X connect 2 0 5 0;
#X connect 3 0 6 0;
#X connect 5 0 3 0;
#X connect 6 0 7 0;
#X connect 7 0 8 0;
#X connect 7 0 4 0;
#X coords 0 -1 1 1 30 25 1 100 100;
#X restore 196 19 pd pedal_rec;
#X msg 148 149 stop;
#X floatatom 93 34 5 0 0 0 - - -;
#X obj 504 84 f;
#X obj 504 13 t b b;
#X obj 520 36 f 0;
#X obj 504 61 metro 500;
#X obj 531 84 + 0.5;
#X obj 365 12 r loopstart;
#X obj 364 39 bng 15 250 50 0 empty empty empty 17 7 0 10 -262144 -1
-1;
#X obj 50 57 bng 15 250 50 0 empty empty clear_all 17 7 0 10 -262144
-1 -1;
#X obj 100 77 s clear_all;
#X connect 0 0 1 0;
#X connect 1 0 7 0;
#X connect 4 0 2 0;
#X connect 4 1 6 0;
#X connect 5 0 3 0;
#X connect 5 1 20 0;
#X connect 6 0 8 0;
#X connect 6 0 23 0;
#X connect 7 0 4 0;
#X connect 7 1 5 0;
#X connect 9 0 10 0;
#X connect 10 0 15 0;
#X connect 11 0 17 0;
#X connect 11 1 13 0;
#X connect 12 0 16 0;
#X connect 12 1 14 0;
#X connect 13 0 18 0;
#X connect 13 0 23 0;
#X connect 14 0 18 0;
#X connect 14 0 25 0;
#X connect 15 0 11 0;
#X connect 15 1 12 0;
#X connect 19 0 0 0;
#X connect 19 0 9 0;
#X connect 20 0 8 0;
#X connect 20 0 25 0;
#X connect 22 0 21 0;
#X connect 22 0 26 0;
#X connect 23 0 25 0;
#X connect 23 1 24 0;
#X connect 24 0 22 1;
#X connect 25 0 22 0;
#X connect 26 0 22 1;
#X connect 27 0 28 0;
#X connect 29 0 30 0;
#X coords 0 -1 1 1 75 52 2 50 20;
#X restore 316 64 pd globalrec;
#N canvas 35 57 624 389 sampler 0;
#X obj 36 106 monostereo;
#X obj 51 131 tgl 15 0 empty empty vu 14 7 0 10 -262144 -1 -1 0 1;
#X obj 6 152 s vumeter_all;
#X obj 56 106 monostereo;
#X obj 76 106 monostereo;
#X obj 96 106 monostereo;
#X obj 116 106 monostereo;
#X obj 136 106 monostereo;
#X obj 156 106 monostereo;
#X obj 176 106 monostereo;
#X obj 291 6 inlet~;
#X obj 300 27 inlet~;
#X obj 309 48 inlet~;
#X obj 319 68 inlet~;
#X obj 337 6 inlet~;
#X obj 380 5 inlet~;
#X obj 389 26 inlet~;
#X obj 398 47 inlet~;
#X obj 408 67 inlet~;
#X obj 345 27 inlet~;
#X obj 354 48 inlet~;
#X obj 364 68 inlet~;
#X obj 423 5 inlet~;
#X obj 432 26 inlet~;
#X obj 441 47 inlet~;
#X obj 451 67 inlet~;
#X obj 208 363 outlet~;
#X obj 218 383 outlet~;
#X obj 258 363 outlet~;
#X obj 268 383 outlet~;
#X obj 308 363 outlet~;
#X obj 317 383 outlet~;
#X obj 358 363 outlet~;
#X obj 368 383 outlet~;
#X obj 408 363 outlet~;
#X obj 418 383 outlet~;
#X obj 458 363 outlet~;
#X obj 468 383 outlet~;
#X obj 508 363 outlet~;
#X obj 518 384 outlet~;
#X obj 558 363 outlet~;
#X obj 568 383 outlet~;
#X obj 28 26 import ext13;
#X obj 39 172 ext13/send13~ col0_1-r;
#X obj 46 190 ext13/send13~ col0_2-r;
#X obj 50 209 ext13/send13~ col1_1-r;
#X obj 69 234 ext13/send13~ col1_2-r;
#X obj 161 237 ext13/send13~ col3_2-r;
#X obj 153 216 ext13/send13~ col3_1-r;
#X obj 151 195 ext13/send13~ col2_2-r;
#X obj 137 171 ext13/send13~ col2_1-r;
#X obj 233 172 ext13/send13~ col4_1-r;
#X obj 241 193 ext13/send13~ col4_2-r;
#X obj 255 213 ext13/send13~ col5_1-r;
#X obj 263 234 ext13/send13~ col5_2-r;
#X obj 343 173 ext13/send13~ col6_1-r;
#X obj 351 195 ext13/send13~ col6_2-r;
#X obj 353 216 ext13/send13~ col7_1-r;
#X obj 361 236 ext13/send13~ col7_2-r;
#X obj 4 263 ext13/catch13~ col0_1-s;
#X obj 20 285 ext13/catch13~ col0_2-s;
#X obj 33 307 ext13/catch13~ col1_1-s;
#X obj 41 328 ext13/catch13~ col1_2-s;
#X obj 157 263 ext13/catch13~ col2_1-s;
#X obj 173 285 ext13/catch13~ col2_2-s;
#X obj 186 307 ext13/catch13~ col3_1-s;
#X obj 193 329 ext13/catch13~ col3_2-s;
#X obj 315 264 ext13/catch13~ col4_1-s;
#X obj 332 287 ext13/catch13~ col4_2-s;
#X obj 344 308 ext13/catch13~ col5_1-s;
#X obj 352 329 ext13/catch13~ col5_2-s;
#X obj 482 263 ext13/catch13~ col6_1-s;
#X obj 498 285 ext13/catch13~ col6_2-s;
#X obj 511 307 ext13/catch13~ col7_1-s;
#X obj 519 328 ext13/catch13~ col7_2-s;
#X connect 0 0 26 0;
#X connect 0 0 43 0;
#X connect 0 1 27 0;
#X connect 0 1 44 0;
#X connect 1 0 2 0;
#X connect 3 0 28 0;
#X connect 3 0 45 0;
#X connect 3 1 29 0;
#X connect 3 1 46 0;
#X connect 4 0 30 0;
#X connect 4 0 50 0;
#X connect 4 1 31 0;
#X connect 4 1 49 0;
#X connect 5 0 32 0;
#X connect 5 0 48 0;
#X connect 5 1 33 0;
#X connect 5 1 47 0;
#X connect 6 0 34 0;
#X connect 6 0 51 0;
#X connect 6 1 35 0;
#X connect 6 1 52 0;
#X connect 7 0 36 0;
#X connect 7 0 53 0;
#X connect 7 1 37 0;
#X connect 7 1 54 0;
#X connect 8 0 38 0;
#X connect 8 0 55 0;
#X connect 8 1 39 0;
#X connect 8 1 56 0;
#X connect 9 0 40 0;
#X connect 9 0 57 0;
#X connect 9 1 41 0;
#X connect 9 1 58 0;
#X connect 10 0 0 0;
#X connect 11 0 0 1;
#X connect 12 0 3 0;
#X connect 13 0 3 1;
#X connect 14 0 4 0;
#X connect 15 0 6 0;
#X connect 16 0 6 1;
#X connect 17 0 7 0;
#X connect 18 0 7 1;
#X connect 19 0 4 1;
#X connect 20 0 5 0;
#X connect 21 0 5 1;
#X connect 22 0 8 0;
#X connect 23 0 8 1;
#X connect 24 0 9 0;
#X connect 25 0 9 1;
#X connect 59 0 26 0;
#X connect 60 0 27 0;
#X connect 61 0 28 0;
#X connect 62 0 29 0;
#X connect 63 0 30 0;
#X connect 64 0 31 0;
#X connect 65 0 32 0;
#X connect 66 0 33 0;
#X connect 67 0 34 0;
#X connect 68 0 35 0;
#X connect 69 0 36 0;
#X connect 70 0 37 0;
#X connect 71 0 38 0;
#X connect 72 0 39 0;
#X connect 73 0 40 0;
#X connect 74 0 41 0;
#X coords 0 -1 1 1 160 44 2 36 106;
#X restore 22 145 pd sampler;
#X obj 232 360 switch~;
#N canvas 393 106 380 305 mixer_1vol 0;
#X obj 267 18 inlet~;
#X obj 223 249 outlet~;
#X obj 221 121 cnv 15 19 64 empty \$0-cnv-r empty 20 12 0 14 -4034
-66577 0;
#X obj 223 123 mixer_1vol;
#X obj 94 14 ctlin;
#X floatatom 139 38 4 0 0 0 - - -;
#X obj 94 60 pack f f;
#X floatatom 94 38 3 0 0 0 - - -;
#X obj 26 14 notein 1;
#X floatatom 26 39 5 0 0 0 - - -;
#X obj 26 62 stripnote;
#X obj 26 83 route 67;
#X obj 94 84 route 51, f 10;
#X msg 54 215 67 \$1;
#X obj 54 237 s apc_leds_m1;
#X obj 178 83 == 1;
#X obj 145 107 spigot;
#X obj 178 56 r act_m-s;
#X connect 0 0 3 1;
#X connect 3 0 13 0;
#X connect 3 1 1 0;
#X connect 4 0 5 0;
#X connect 4 1 7 0;
#X connect 5 0 6 1;
#X connect 6 0 12 0;
#X connect 7 0 6 0;
#X connect 8 0 9 0;
#X connect 8 1 10 1;
#X connect 9 0 10 0;
#X connect 10 0 11 0;
#X connect 11 0 16 0;
#X connect 12 0 16 0;
#X connect 13 0 14 0;
#X connect 15 0 16 1;
#X connect 16 0 3 0;
#X connect 17 0 15 0;
#X coords 0 -1 1 1 19 64 2 221 121;
#X restore 85 203 pd mixer_1vol;
#N canvas 49 83 729 363 apc_leds 0;
#X text 14 21 0 to 64;
#X text 9 45 64 to 71;
#X text 69 21 82 to 89;
#X obj 87 87 r apc_leds_m1;
#X obj 141 7 array define apc_leds_m1 128;
#X obj 114 182 tabwrite apc_leds_m1;
#X obj 87 110 t a a;
#X obj 114 134 swap;
#X msg 48 86 64 0;
#X obj 114 157 pack f f;
#X text 137 112 idex \, value;
#X obj 87 289 noteout 1;
#X floatatom 251 52 5 0 0 0 act_m act_m-r act_m-s;
#X text 130 51 active mode:;
#X obj 141 26 array define apc_leds_m2 128;
#X obj 120 239 == 1;
#X obj 87 263 spigot;
#X obj 120 212 r act_m-s;
#X obj 338 10 loadbang;
#X msg 338 33 1;
#X obj 338 56 s act_m-r;
#X obj 252 110 t a a;
#X obj 279 134 swap;
#X obj 279 157 pack f f;
#X text 302 112 idex \, value;
#X obj 252 289 noteout 1;
#X obj 252 263 spigot;
#X obj 285 212 r act_m-s;
#X obj 252 87 r apc_leds_m2;
#X obj 279 182 tabwrite apc_leds_m2;
#X obj 285 239 == 2;
#X msg 372 33 2;
#X obj 462 94 r act_m-s;
#X text 464 55 if active mode changes \, send all info to APC, f 23
;
#X obj 508 288 tabread;
#X obj 462 117 t b f, f 22;
#X msg 591 261 set apc_leds_m\$1;
#X floatatom 508 313 5 0 0 0 - - -;
#X obj 462 356 noteout 1;
#X obj 463 233 t f f;
#X obj 463 334 pack f f;
#X obj 463 164 f;
#X obj 492 164 + 1;
#X msg 517 233 stop;
#X floatatom 463 210 5 0 0 0 - - -;
#X obj 426 119 bng 15 250 50 0 empty empty empty 17 7 0 10 -262144
-1 -1;
#X obj 517 209 t b b;
#X obj 556 235 f 0;
#X obj 461 140 metro 1;
#N canvas 0 50 304 352 change_apc_mode 0;
#X msg 27 281 1;
#X obj 27 304 s act_m-r;
#X msg 117 280 2;
#X obj 113 14 notein;
#X floatatom 113 37 5 0 0 0 - - -;
#X floatatom 152 37 5 0 0 0 - - -;
#X obj 113 59 pack f f;
#X obj 113 82 route 98;
#X floatatom 113 105 5 0 0 0 - - -;
#X obj 27 12 notein;
#X floatatom 27 35 5 0 0 0 - - -;
#X floatatom 66 35 5 0 0 0 - - -;
#X obj 27 86 select 89;
#X obj 27 133 spigot;
#X obj 27 156 tgl 15 0 empty empty empty 17 7 0 10 -262144 -1 -1 0
1;
#X obj 27 176 select 0 1;
#X obj 27 57 stripnote;
#X obj 27 207 t b b;
#X msg 53 231 89 0;
#X obj 53 254 noteout 1;
#X obj 117 206 t b b;
#X obj 144 252 noteout 1;
#X msg 144 229 89 1;
#X connect 0 0 1 0;
#X connect 2 0 1 0;
#X connect 3 0 4 0;
#X connect 3 1 5 0;
#X connect 4 0 6 0;
#X connect 5 0 6 1;
#X connect 6 0 7 0;
#X connect 7 0 8 0;
#X connect 8 0 13 1;
#X connect 9 0 10 0;
#X connect 9 1 11 0;
#X connect 10 0 16 0;
#X connect 11 0 16 1;
#X connect 12 0 13 0;
#X connect 13 0 14 0;
#X connect 14 0 15 0;
#X connect 15 0 17 0;
#X connect 15 1 20 0;
#X connect 16 0 12 0;
#X connect 17 0 0 0;
#X connect 17 1 18 0;
#X connect 18 0 19 0;
#X connect 20 0 2 0;
#X connect 20 1 22 0;
#X connect 22 0 21 0;
#X restore 433 19 pd change_apc_mode;
#X obj 463 187 moses 82;
#X connect 3 0 6 0;
#X connect 6 0 16 0;
#X connect 6 1 7 0;
#X connect 7 0 9 0;
#X connect 7 1 9 1;
#X connect 8 0 6 0;
#X connect 9 0 5 0;
#X connect 15 0 16 1;
#X connect 16 0 11 0;
#X connect 17 0 15 0;
#X connect 18 0 19 0;
#X connect 19 0 20 0;
#X connect 21 0 26 0;
#X connect 21 1 22 0;
#X connect 22 0 23 0;
#X connect 22 1 23 1;
#X connect 23 0 29 0;
#X connect 26 0 25 0;
#X connect 27 0 30 0;
#X connect 28 0 21 0;
#X connect 30 0 26 1;
#X connect 31 0 20 0;
#X connect 32 0 35 0;
#X connect 34 0 37 0;
#X connect 35 0 48 0;
#X connect 35 1 36 0;
#X connect 36 0 34 0;
#X connect 37 0 40 1;
#X connect 39 0 40 0;
#X connect 39 1 34 0;
#X connect 40 0 38 0;
#X connect 41 0 42 0;
#X connect 41 0 50 0;
#X connect 42 0 41 1;
#X connect 43 0 48 0;
#X connect 44 0 39 0;
#X connect 45 0 48 0;
#X connect 46 0 43 0;
#X connect 46 1 47 0;
#X connect 47 0 41 1;
#X connect 48 0 41 0;
#X connect 50 0 44 0;
#X connect 50 1 46 0;
#X restore 308 339 pd apc_leds;
#X obj 309 18 midi_in_monitor;
#N canvas 225 122 449 300 mixer_stereo 0;
#X obj 94 14 ctlin;
#X floatatom 139 38 4 0 0 0 - - -;
#X obj 94 60 pack f f;
#X floatatom 94 38 3 0 0 0 - - -;
#X obj 267 18 inlet~;
#X obj 307 18 inlet~;
#X obj 223 249 outlet~;
#X obj 273 249 outlet~;
#X obj 221 133 cnv 15 19 64 empty \$0-cnv-r empty 20 12 0 14 -4160
-66577 0;
#X msg 251 144 \$0-cnv-r;
#X obj 223 135 mixer_stereovol;
#X obj 26 14 notein 1;
#X floatatom 26 39 5 0 0 0 - - -;
#X obj 26 62 stripnote;
#X obj 53 237 s apc_leds_m1;
#X obj 178 83 == 1;
#X obj 145 107 spigot;
#X obj 178 56 r act_m-s;
#X text 35 141 things to configure: button for Mute (input and output)
\, slider for Volume \, active_mode, f 23;
#X obj 26 83 route 68;
#X obj 94 83 route 52, f 10;
#X msg 54 215 68 \$1;
#X connect 0 0 1 0;
#X connect 0 1 3 0;
#X connect 1 0 2 1;
#X connect 2 0 20 0;
#X connect 3 0 2 0;
#X connect 4 0 10 1;
#X connect 5 0 10 2;
#X connect 10 0 21 0;
#X connect 10 1 6 0;
#X connect 10 2 7 0;
#X connect 11 0 12 0;
#X connect 11 1 13 1;
#X connect 12 0 13 0;
#X connect 13 0 19 0;
#X connect 15 0 16 1;
#X connect 16 0 10 0;
#X connect 17 0 15 0;
#X connect 19 0 16 0;
#X connect 20 0 16 0;
#X connect 21 0 14 0;
#X coords 0 -1 1 1 19 64 2 221 133;
#X restore 105 203 pd mixer_stereo;
#N canvas 292 106 450 300 monopan 0;
#X obj 30 70 monopan;
#X obj 91 32 ctlin;
#X floatatom 91 55 5 0 0 0 - - -;
#X floatatom 137 56 5 0 0 0 - - -;
#X obj 92 88 pack f f;
#X obj 92 111 route;
#X obj 30 28 inlet~;
#X obj 14 158 outlet~;
#X obj 65 159 outlet~;
#X connect 0 0 7 0;
#X connect 0 1 8 0;
#X connect 1 0 2 0;
#X connect 1 1 3 0;
#X connect 2 0 4 1;
#X connect 3 0 4 0;
#X connect 4 0 5 0;
#X connect 5 0 0 1;
#X connect 6 0 0 0;
#X coords 0 -1 1 1 15 15 2 30 70;
#X restore 84 275 pd monopan;
#N canvas 292 106 450 300 monopan 0;
#X obj 30 70 monopan;
#X obj 91 32 ctlin;
#X floatatom 91 55 5 0 0 0 - - -;
#X floatatom 137 56 5 0 0 0 - - -;
#X obj 92 88 pack f f;
#X obj 92 111 route;
#X obj 30 28 inlet~;
#X obj 14 158 outlet~;
#X obj 65 159 outlet~;
#X obj 30 84 monitor_small;
#X obj 37 84 monitor_small;
#X connect 0 0 7 0;
#X connect 0 0 9 0;
#X connect 0 1 8 0;
#X connect 0 1 10 0;
#X connect 1 0 2 0;
#X connect 1 1 3 0;
#X connect 2 0 4 1;
#X connect 3 0 4 0;
#X connect 4 0 5 0;
#X connect 5 0 0 1;
#X connect 6 0 0 0;
#X coords 0 -1 1 1 15 22 2 30 70;
#X restore 166 115 pd monopan;
#N canvas 110 214 287 232 arraybuttons 0;
#X obj 31 31 cnv 15 18 132 empty empty empty 20 12 0 14 -258113 -66577
0;
#X obj 50 31 cnv 15 18 132 empty empty empty 20 12 0 14 -260097 -66577
0;
#X obj 69 31 cnv 15 18 132 empty empty empty 20 12 0 14 -257985 -66577
0;
#X obj 88 31 cnv 15 18 132 empty empty empty 20 12 0 14 -4034 -66577
0;
#X obj 107 31 cnv 15 18 132 empty empty empty 20 12 0 14 -4160 -66577
0;
#X obj 126 31 cnv 15 18 132 empty empty empty 20 12 0 14 -4032 -66577
0;
#X obj 145 31 cnv 15 18 132 empty empty empty 20 12 0 14 -159808 -66577
0;
#X obj 164 31 cnv 15 18 132 empty empty empty 20 12 0 14 -232576 -66577
0;
#X obj 32 146 rec_stereo 0;
#X obj 51 146 rec_stereo 1;
#X obj 70 146 rec_stereo 2;
#X obj 89 146 rec_stereo 3;
#X obj 108 146 rec_stereo 4;
#X obj 127 146 rec_stereo 5;
#X obj 146 146 rec_stereo 6;
#X obj 165 146 rec_stereo 7;
#X obj 32 130 rec_stereo 8;
#X obj 51 130 rec_stereo 9;
#X obj 70 130 rec_stereo 10;
#X obj 89 130 rec_stereo 11;
#X obj 108 130 rec_stereo 12;
#X obj 127 130 rec_stereo 13;
#X obj 146 130 rec_stereo 14;
#X obj 165 130 rec_stereo 15;
#X obj 32 114 rec_stereo 16;
#X obj 51 114 rec_stereo 17;
#X obj 70 114 rec_stereo 18;
#X obj 89 114 rec_stereo 19;
#X obj 108 114 rec_stereo 20;
#X obj 127 114 rec_stereo 21;
#X obj 146 114 rec_stereo 22;
#X obj 165 114 rec_stereo 23;
#X obj 32 98 rec_stereo 24;
#X obj 51 98 rec_stereo 25;
#X obj 70 98 rec_stereo 26;
#X obj 89 98 rec_stereo 27;
#X obj 108 98 rec_stereo 28;
#X obj 127 98 rec_stereo 29;
#X obj 146 98 rec_stereo 30;
#X obj 165 98 rec_stereo 31;
#X obj 32 82 rec_stereo 32;
#X obj 51 82 rec_stereo 33;
#X obj 70 82 rec_stereo 34;
#X obj 89 82 rec_stereo 35;
#X obj 108 82 rec_stereo 36;
#X obj 127 82 rec_stereo 37;
#X obj 146 82 rec_stereo 38;
#X obj 165 82 rec_stereo 39;
#X obj 32 66 rec_stereo 40;
#X obj 51 66 rec_stereo 41;
#X obj 70 66 rec_stereo 42;
#X obj 89 66 rec_stereo 43;
#X obj 108 66 rec_stereo 44;
#X obj 127 66 rec_stereo 45;
#X obj 146 66 rec_stereo 46;
#X obj 165 66 rec_stereo 47;
#X obj 32 50 rec_stereo 48;
#X obj 51 50 rec_stereo 49;
#X obj 70 50 rec_stereo 50;
#X obj 89 50 rec_stereo 51;
#X obj 108 50 rec_stereo 52;
#X obj 127 50 rec_stereo 53;
#X obj 146 50 rec_stereo 54;
#X obj 165 50 rec_stereo 55;
#X obj 32 34 rec_stereo 56;
#X obj 51 34 rec_stereo 57;
#X obj 70 34 rec_stereo 58;
#X obj 89 34 rec_stereo 59;
#X obj 108 34 rec_stereo 60;
#X obj 127 34 rec_stereo 61;
#X obj 146 34 rec_stereo 62;
#X obj 165 34 rec_stereo 63;
#X coords 0 -1 1 1 153 134 2 30 30;
#X restore 232 136 pd arraybuttons;
#N canvas 36 57 705 392 matrix 0;
#X obj 288 3 bng 15 250 50 0 empty empty empty 17 7 0 10 -262144 -1
-1;
#X obj 70 92 f;
#X obj 70 116 moses 64;
#X floatatom 70 139 5 0 0 0 - - -;
#X obj 119 184 mod 8;
#X obj 288 182 div 8;
#X floatatom 288 205 5 0 0 0 - - -;
#X floatatom 119 207 5 0 0 0 - - -;
#X msg 114 138 stop;
#X obj 70 24 t b f;
#X msg 97 47 0;
#X obj 98 91 + 1;
#X obj 101 294 pack f f f;
#X obj 146 251 expr ( 30 + 15 * $f1 );
#X floatatom 146 274 5 0 0 0 - - -;
#X obj 288 229 expr ( 200 - 15 * $f1 );
#X floatatom 288 252 5 0 0 0 - - -;
#X msg 101 318 obj \$2 \$3 rec_stereo \$1;
#X obj 85 771 s pd-arraybuttons;
#X obj 450 4 bng 15 250 50 0 empty empty empty 17 7 0 10 -262144 -1
-1;
#X obj 450 92 f;
#X floatatom 450 139 5 0 0 0 - - -;
#X obj 450 201 t f f f;
#X msg 522 161 stop;
#X obj 450 24 t b f;
#X msg 477 47 0;
#X obj 479 93 + 1;
#X obj 450 70 metro 100;
#X obj 450 116 moses 16;
#X msg 450 247 obj \$1 20 inlet~;
#X obj 450 270 s pd-arraybuttons;
#X obj 450 224 expr ( 50 * $f1 );
#X obj 560 4 bng 15 250 50 0 empty empty empty 17 7 0 10 -262144 -1
-1;
#X obj 560 92 f;
#X floatatom 560 139 5 0 0 0 - - -;
#X obj 560 201 t f f f;
#X msg 633 160 stop;
#X obj 560 24 t b f;
#X msg 587 47 0;
#X obj 589 93 + 1;
#X obj 560 70 metro 100;
#X obj 560 116 moses 16;
#X obj 560 270 s pd-arraybuttons;
#X obj 560 224 expr ( 50 * $f1 );
#X msg 560 247 obj \$1 300 outlet~;
#X obj 70 161 t f f f f f;
#X obj 215 666 pack f f;
#X obj 119 229 t f f;
#X obj 150 690 pack f f;
#X msg 150 716 connect \$1 0 \$2 0;
#X msg 280 666 connect \$2 0 \$1 0;
#X obj 119 340 t f f f f;
#X obj 280 640 pack f f;
#X obj 85 610 t f f f f, f 33;
#X floatatom 325 389 5 0 0 0 - - -;
#X text 430 366 inlet 1;
#X text 389 412 inlet 2;
#X text 333 467 outlet 1;
#X text 280 517 oulet 2;
#X msg 215 689 connect \$2 0 \$1 1;
#X obj 85 715 pack f f;
#X msg 85 741 connect \$1 1 \$2 0;
#X obj 606 138 t b b;
#X obj 606 180 delay 100;
#X obj 495 138 t b b;
#X obj 495 181 delay 100;
#X obj 70 70 metro 1000;
#X floatatom 118 539 5 0 0 0 - - -;
#X floatatom 195 490 5 0 0 0 - - -;
#X floatatom 260 433 5 0 0 0 - - -;
#X msg 168 81 0;
#X floatatom 85 587 5 0 0 0 - - -;
#X obj 85 564 expr ( $f1 + 32 );
#X obj 70 4 bng 15 250 50 0 empty empty empty 17 7 0 10 -262144 -1
-1;
#X obj 325 366 expr ( $f1 * 2 );
#X obj 260 410 expr ( $f1 * 2 + 1 );
#X obj 195 467 expr ( 16 + $f1 * 2 );
#X obj 119 516 expr ( 16 + 1 + $f1 * 2 );
#X connect 0 0 19 0;
#X connect 1 0 2 0;
#X connect 1 0 11 0;
#X connect 2 0 3 0;
#X connect 2 1 8 0;
#X connect 3 0 45 0;
#X connect 4 0 7 0;
#X connect 5 0 6 0;
#X connect 6 0 15 0;
#X connect 7 0 47 0;
#X connect 8 0 66 0;
#X connect 9 0 66 0;
#X connect 9 1 10 0;
#X connect 10 0 1 1;
#X connect 11 0 1 1;
#X connect 12 0 17 0;
#X connect 13 0 14 0;
#X connect 14 0 12 1;
#X connect 15 0 16 0;
#X connect 16 0 12 2;
#X connect 17 0 18 0;
#X connect 19 0 24 0;
#X connect 20 0 26 0;
#X connect 20 0 28 0;
#X connect 21 0 22 0;
#X connect 22 0 31 0;
#X connect 23 0 27 0;
#X connect 24 0 27 0;
#X connect 24 1 25 0;
#X connect 25 0 20 1;
#X connect 26 0 20 1;
#X connect 27 0 20 0;
#X connect 28 0 21 0;
#X connect 28 1 64 0;
#X connect 29 0 30 0;
#X connect 31 0 29 0;
#X connect 32 0 37 0;
#X connect 33 0 39 0;
#X connect 33 0 41 0;
#X connect 34 0 35 0;
#X connect 35 0 43 0;
#X connect 36 0 40 0;
#X connect 37 0 40 0;
#X connect 37 1 38 0;
#X connect 38 0 33 1;
#X connect 39 0 33 1;
#X connect 40 0 33 0;
#X connect 41 0 34 0;
#X connect 41 1 62 0;
#X connect 43 0 44 0;
#X connect 44 0 42 0;
#X connect 45 1 72 0;
#X connect 45 2 12 0;
#X connect 45 3 4 0;
#X connect 45 4 5 0;
#X connect 46 0 59 0;
#X connect 47 0 51 0;
#X connect 47 1 13 0;
#X connect 48 0 49 0;
#X connect 49 0 18 0;
#X connect 50 0 18 0;
#X connect 51 0 77 0;
#X connect 51 1 76 0;
#X connect 51 2 75 0;
#X connect 51 3 74 0;
#X connect 52 0 50 0;
#X connect 53 0 60 0;
#X connect 53 1 48 0;
#X connect 53 2 46 0;
#X connect 53 3 52 0;
#X connect 54 0 52 1;
#X connect 59 0 18 0;
#X connect 60 0 61 0;
#X connect 61 0 18 0;
#X connect 62 0 63 0;
#X connect 62 1 36 0;
#X connect 63 0 73 0;
#X connect 64 0 65 0;
#X connect 64 1 23 0;
#X connect 65 0 32 0;
#X connect 66 0 1 0;
#X connect 67 0 60 1;
#X connect 68 0 48 1;
#X connect 69 0 46 1;
#X connect 70 0 1 0;
#X connect 71 0 53 0;
#X connect 72 0 71 0;
#X connect 73 0 9 0;
#X connect 74 0 54 0;
#X connect 75 0 69 0;
#X connect 76 0 68 0;
#X connect 77 0 67 0;
#X coords 0 392 1 391 121 121 0;
#X restore 308 361 pd matrix;
#N canvas 393 106 380 305 mixer_1vol 0;
#X obj 267 18 inlet~;
#X obj 223 249 outlet~;
#X obj 221 121 cnv 15 19 64 empty \$0-cnv-r empty 20 12 0 14 -4032
-66577 0;
#X obj 223 123 mixer_1vol;
#X obj 94 14 ctlin;
#X floatatom 139 38 4 0 0 0 - - -;
#X obj 94 60 pack f f;
#X floatatom 94 38 3 0 0 0 - - -;
#X obj 26 14 notein 1;
#X floatatom 26 39 5 0 0 0 - - -;
#X obj 26 62 stripnote;
#X obj 53 237 s apc_leds_m1;
#X obj 178 83 == 1;
#X obj 145 107 spigot;
#X obj 178 56 r act_m-s;
#X msg 54 215 69 \$1;
#X obj 94 84 route 53, f 10;
#X obj 26 83 route 69;
#X connect 0 0 3 1;
#X connect 3 0 15 0;
#X connect 3 1 1 0;
#X connect 4 0 5 0;
#X connect 4 1 7 0;
#X connect 5 0 6 1;
#X connect 6 0 16 0;
#X connect 7 0 6 0;
#X connect 8 0 9 0;
#X connect 8 1 10 1;
#X connect 9 0 10 0;
#X connect 10 0 17 0;
#X connect 12 0 13 1;
#X connect 13 0 3 0;
#X connect 14 0 12 0;
#X connect 15 0 11 0;
#X connect 16 0 13 0;
#X connect 17 0 13 0;
#X coords 0 -1 1 1 19 64 2 221 121;
#X restore 126 203 pd mixer_1vol;
#N canvas 225 122 449 300 mixer_stereo 0;
#X obj 94 14 ctlin;
#X floatatom 139 38 4 0 0 0 - - -;
#X obj 94 60 pack f f;
#X floatatom 94 38 3 0 0 0 - - -;
#X obj 267 18 inlet~;
#X obj 307 18 inlet~;
#X obj 223 249 outlet~;
#X obj 273 249 outlet~;
#X obj 221 133 cnv 15 19 64 empty \$0-cnv-r empty 20 12 0 14 -159808
-66577 0;
#X msg 251 144 \$0-cnv-r;
#X obj 223 135 mixer_stereovol;
#X obj 26 14 notein 1;
#X floatatom 26 39 5 0 0 0 - - -;
#X obj 26 62 stripnote;
#X obj 53 237 s apc_leds_m1;
#X obj 178 83 == 1;
#X obj 145 107 spigot;
#X obj 178 56 r act_m-s;
#X text 35 141 things to configure: button for Mute (input and output)
\, slider for Volume \, active_mode, f 23;
#X obj 26 83 route 70;
#X obj 94 83 route 54, f 10;
#X msg 54 215 70 \$1;
#X connect 0 0 1 0;
#X connect 0 1 3 0;
#X connect 1 0 2 1;
#X connect 2 0 20 0;
#X connect 3 0 2 0;
#X connect 4 0 10 1;
#X connect 5 0 10 2;
#X connect 10 0 21 0;
#X connect 10 1 6 0;
#X connect 10 2 7 0;
#X connect 11 0 12 0;
#X connect 11 1 13 1;
#X connect 12 0 13 0;
#X connect 13 0 19 0;
#X connect 15 0 16 1;
#X connect 16 0 10 0;
#X connect 17 0 15 0;
#X connect 19 0 16 0;
#X connect 20 0 16 0;
#X connect 21 0 14 0;
#X coords 0 -1 1 1 19 64 2 221 133;
#X restore 147 203 pd mixer_stereo;
#N canvas 225 122 449 300 mixer_stereo 0;
#X obj 94 14 ctlin;
#X floatatom 139 38 4 0 0 0 - - -;
#X obj 94 60 pack f f;
#X floatatom 94 38 3 0 0 0 - - -;
#X obj 267 18 inlet~;
#X obj 307 18 inlet~;
#X obj 223 249 outlet~;
#X obj 273 249 outlet~;
#X obj 221 133 cnv 15 19 64 empty \$0-cnv-r empty 20 12 0 14 -232576
-66577 0;
#X msg 251 144 \$0-cnv-r;
#X obj 223 135 mixer_stereovol;
#X obj 26 14 notein 1;
#X floatatom 26 39 5 0 0 0 - - -;
#X obj 26 62 stripnote;
#X obj 53 237 s apc_leds_m1;
#X obj 178 83 == 1;
#X obj 145 107 spigot;
#X obj 178 56 r act_m-s;
#X text 35 141 things to configure: button for Mute (input and output)
\, slider for Volume \, active_mode, f 23;
#X obj 26 83 route 71;
#X obj 94 83 route 55, f 10;
#X msg 54 215 71 \$1;
#X connect 0 0 1 0;
#X connect 0 1 3 0;
#X connect 1 0 2 1;
#X connect 2 0 20 0;
#X connect 3 0 2 0;
#X connect 4 0 10 1;
#X connect 5 0 10 2;
#X connect 10 0 21 0;
#X connect 10 1 6 0;
#X connect 10 2 7 0;
#X connect 11 0 12 0;
#X connect 11 1 13 1;
#X connect 12 0 13 0;
#X connect 13 0 19 0;
#X connect 15 0 16 1;
#X connect 16 0 10 0;
#X connect 17 0 15 0;
#X connect 19 0 16 0;
#X connect 20 0 16 0;
#X connect 21 0 14 0;
#X coords 0 -1 1 1 19 64 2 221 133;
#X restore 167 203 pd mixer_stereo;
#N canvas 292 106 450 300 monopan 0;
#X obj 30 70 monopan;
#X obj 91 32 ctlin;
#X floatatom 91 55 5 0 0 0 - - -;
#X floatatom 137 56 5 0 0 0 - - -;
#X obj 92 88 pack f f;
#X obj 92 111 route;
#X obj 30 28 inlet~;
#X obj 14 158 outlet~;
#X obj 65 159 outlet~;
#X obj 30 84 monitor_small;
#X obj 37 84 monitor_small;
#X connect 0 0 7 0;
#X connect 0 0 9 0;
#X connect 0 1 8 0;
#X connect 0 1 10 0;
#X connect 1 0 2 0;
#X connect 1 1 3 0;
#X connect 2 0 4 1;
#X connect 3 0 4 0;
#X connect 4 0 5 0;
#X connect 5 0 0 1;
#X connect 6 0 0 0;
#X coords 0 -1 1 1 15 22 2 30 70;
#X restore 122 116 pd monopan;
#N canvas 292 106 450 300 monopan 0;
#X obj 30 70 monopan;
#X obj 91 32 ctlin;
#X floatatom 91 55 5 0 0 0 - - -;
#X floatatom 137 56 5 0 0 0 - - -;
#X obj 92 88 pack f f;
#X obj 92 111 route;
#X obj 30 28 inlet~;
#X obj 14 158 outlet~;
#X obj 65 159 outlet~;
#X obj 30 84 monitor_small;
#X obj 37 84 monitor_small;
#X connect 0 0 7 0;
#X connect 0 0 9 0;
#X connect 0 1 8 0;
#X connect 0 1 10 0;
#X connect 1 0 2 0;
#X connect 1 1 3 0;
#X connect 2 0 4 1;
#X connect 3 0 4 0;
#X connect 4 0 5 0;
#X connect 5 0 0 1;
#X connect 6 0 0 0;
#X coords 0 -1 1 1 15 22 2 30 70;
#X restore 125 270 pd monopan;
#X connect 0 0 4 0;
#X connect 0 1 4 1;
#X connect 0 2 4 2;
#X connect 0 3 4 3;
#X connect 0 4 4 4;
#X connect 0 5 4 5;
#X connect 0 6 4 6;
#X connect 0 7 4 7;
#X connect 1 0 13 0;
#X connect 1 0 13 2;
#X connect 1 1 13 1;
#X connect 1 1 13 3;
#X connect 2 0 13 4;
#X connect 4 0 26 0;
#X connect 4 1 13 10;
#X connect 4 2 20 0;
#X connect 4 3 20 0;
#X connect 5 0 8 0;
#X connect 5 1 8 1;
#X connect 7 0 8 0;
#X connect 7 1 8 1;
#X connect 8 0 3 0;
#X connect 8 1 3 1;
#X connect 9 0 8 0;
#X connect 9 1 8 1;
#X connect 10 0 7 0;
#X connect 11 0 14 0;
#X connect 13 0 5 0;
#X connect 13 1 5 1;
#X connect 13 2 9 0;
#X connect 13 3 9 1;
#X connect 13 4 10 0;
#X connect 13 6 15 0;
#X connect 13 8 18 0;
#X connect 13 9 18 1;
#X connect 13 10 23 0;
#X connect 13 12 24 0;
#X connect 13 13 24 1;
#X connect 13 14 25 0;
#X connect 13 15 25 1;
#X connect 15 0 19 0;
#X connect 18 0 8 0;
#X connect 18 1 8 1;
#X connect 19 0 8 0;
#X connect 19 1 8 1;
#X connect 20 0 13 12;
#X connect 20 1 13 13;
#X connect 23 0 27 0;
#X connect 26 0 13 8;
#X connect 26 1 13 9;
#X connect 27 0 8 0;
#X connect 27 1 8 1;
