#N canvas 191 375 603 414 10;
#X obj 121 5 drumkit, f 21;
#X obj 7 5 adc~ 1 2;
#N canvas 22 70 759 300 mixer_drums 0;
#X obj 167 13 ctlin;
#X floatatom 212 37 4 0 0 0 - - -;
#X obj 167 59 pack f f;
#X floatatom 167 37 3 0 0 0 - - -;
#X obj 167 101 route 48 49 50 51 52 53 54 55 56, f 35;
#X obj 223 138 mixer_1vol;
#X obj 397 98 inlet~;
#X obj 437 98 inlet~;
#X obj 477 98 inlet~;
#X obj 517 98 inlet~;
#X obj 557 98 inlet~;
#X obj 597 98 inlet~;
#X obj 637 98 inlet~;
#X obj 677 98 inlet~;
#X obj 242 138 mixer_1vol;
#X obj 262 138 mixer_1vol;
#X obj 282 138 mixer_1vol;
#X obj 302 138 mixer_1vol;
#X obj 322 138 mixer_1vol;
#X obj 342 138 mixer_1vol;
#X obj 362 138 mixer_1vol;
#X obj 353 249 outlet~;
#X obj 403 249 outlet~;
#X obj 453 249 outlet~;
#X obj 503 249 outlet~;
#X obj 553 249 outlet~;
#X obj 603 249 outlet~;
#X obj 653 249 outlet~;
#X obj 703 249 outlet~;
#X obj 167 80 spigot, f 15;
#X obj 255 29 r act_m-s;
#X obj 255 56 == 2;
#X text 292 57 mode 2 only;
#X msg 38 220 64 \$1;
#X obj 38 243 s apc_leds_m2;
#X msg 81 219 65 \$1;
#X msg 123 219 66 \$1;
#X msg 163 219 67 \$1;
#X msg 203 219 68 \$1;
#X msg 243 219 69 \$1;
#X msg 283 219 70 \$1;
#X msg 323 219 71 \$1;
#X obj 23 33 notein 1;
#X floatatom 23 58 5 0 0 0 - - -;
#X obj 23 81 stripnote;
#X obj 23 104 spigot, f 15;
#X obj 23 132 route 64 65 66 67 68 69 70 71;
#X connect 0 0 1 0;
#X connect 0 1 3 0;
#X connect 1 0 2 1;
#X connect 2 0 29 0;
#X connect 3 0 2 0;
#X connect 4 0 5 0;
#X connect 4 1 14 0;
#X connect 4 2 15 0;
#X connect 4 3 16 0;
#X connect 4 4 17 0;
#X connect 4 5 18 0;
#X connect 4 6 19 0;
#X connect 4 7 20 0;
#X connect 5 0 33 0;
#X connect 5 1 21 0;
#X connect 6 0 5 1;
#X connect 7 0 14 1;
#X connect 8 0 15 1;
#X connect 9 0 16 1;
#X connect 10 0 17 1;
#X connect 11 0 18 1;
#X connect 12 0 19 1;
#X connect 13 0 20 1;
#X connect 14 0 35 0;
#X connect 14 1 22 0;
#X connect 15 0 36 0;
#X connect 15 1 23 0;
#X connect 16 0 37 0;
#X connect 16 1 24 0;
#X connect 17 0 38 0;
#X connect 17 1 25 0;
#X connect 18 0 39 0;
#X connect 18 1 26 0;
#X connect 19 0 40 0;
#X connect 19 1 27 0;
#X connect 20 0 41 0;
#X connect 20 1 28 0;
#X connect 29 0 4 0;
#X connect 30 0 31 0;
#X connect 31 0 29 1;
#X connect 31 0 45 1;
#X connect 33 0 34 0;
#X connect 35 0 34 0;
#X connect 36 0 34 0;
#X connect 37 0 34 0;
#X connect 38 0 34 0;
#X connect 39 0 34 0;
#X connect 40 0 34 0;
#X connect 41 0 34 0;
#X connect 42 0 43 0;
#X connect 42 1 44 1;
#X connect 43 0 44 0;
#X connect 44 0 45 0;
#X connect 45 0 46 0;
#X connect 46 0 5 0;
#X connect 46 1 14 0;
#X connect 46 2 15 0;
#X connect 46 3 16 0;
#X connect 46 4 17 0;
#X connect 46 5 18 0;
#X connect 46 6 19 0;
#X connect 46 7 20 0;
#X coords 0 -1 1 1 154 75 1 223 123;
#X restore 120 30 pd mixer_drums;
#N canvas 807 752 607 300 mixer_stereo 1;
#X obj 94 14 ctlin;
#X floatatom 139 38 4 0 0 0 - - -;
#X obj 94 60 pack f f;
#X floatatom 94 38 3 0 0 0 - - -;
#X obj 267 18 inlet~;
#X obj 307 18 inlet~;
#X obj 223 249 outlet~;
#X obj 273 249 outlet~;
#X obj 221 133 cnv 15 19 64 empty \$0-cnv-r empty 20 12 0 14 -258113
-66577 0;
#X msg 251 144 \$0-cnv-r;
#X obj 223 135 mixer_stereovol;
#X msg 54 215 64 \$1;
#X obj 94 83 route 48, f 10;
#X obj 26 14 notein 1;
#X floatatom 26 39 5 0 0 0 - - -;
#X obj 26 62 stripnote;
#X obj 26 83 route 64;
#X obj 53 237 s apc_leds_m1;
#X obj 178 83 == 1;
#X obj 145 107 spigot;
#X obj 178 56 r act_m-s;
#X text 35 141 things to configure: button for Mute (input and output)
\, slider for Volume \, active_mode, f 23;
#X obj 383 161 r save_param;
#X text 502 218 mute \, vol;
#X obj 383 240 list;
#X obj 383 189 bng 15 250 50 0 empty empty empty 17 7 0 10 -262144
-1 -1;
#X obj 383 265 text set text-alltosave 1e+06;
#X msg 384 218 list @mixer48 \$1 \$2;
#X obj 359 49 midictlin cc 48 chan 1 apc_mode 1;
#X connect 0 0 1 0;
#X connect 0 1 3 0;
#X connect 1 0 2 1;
#X connect 2 0 12 0;
#X connect 3 0 2 0;
#X connect 4 0 10 1;
#X connect 5 0 10 2;
#X connect 10 0 27 0;
#X connect 10 1 6 0;
#X connect 10 2 7 0;
#X connect 11 0 17 0;
#X connect 12 0 19 0;
#X connect 13 0 14 0;
#X connect 13 1 15 1;
#X connect 14 0 15 0;
#X connect 15 0 16 0;
#X connect 18 0 19 1;
#X connect 19 0 10 0;
#X connect 20 0 18 0;
#X connect 22 0 25 0;
#X connect 24 0 26 0;
#X connect 25 0 24 0;
#X connect 27 0 24 1;
#X coords 0 -1 1 1 19 64 2 221 133;
#X restore 20 178 pd mixer_stereo;
#X text 16 324 master;
#N canvas 275 57 796 380 mixer_stereo 0;
#X obj 47 13 ctlin;
#X floatatom 92 37 4 0 0 0 - - -;
#X obj 47 59 pack f f;
#X floatatom 47 37 3 0 0 0 - - -;
#X obj 221 8 inlet~;
#X obj 283 10 inlet~;
#X obj 203 279 outlet~;
#X obj 253 279 outlet~;
#X obj 191 203 cnv 15 100 64 empty \$0-cnv-r empty 20 12 0 14 -99865
-66577 0;
#X msg 46 147 \$0-cnv-r;
#X obj 225 205 mixer_stereovol;
#X obj 48 82 route 56, f 11;
#X obj 134 10 loadbang;
#X msg 143 36 bang;
#X obj 219 50 freeverb~;
#X obj 262 205 hsl 26 15 0 1 0 1 empty empty revW 2 7 0 10 -262144
-1 -1 750 1;
#X msg 326 221 wet \$1;
#X msg 325 241 dry \$1;
#X msg 325 260 roomsize \$1;
#X msg 532 45 0.3;
#X msg 533 113 0.85;
#X obj 512 4 loadbang;
#X floatatom 259 249 5 0 0 0 - - -;
#X msg 530 143 500;
#X obj 262 220 hsl 26 15 0 1 0 1 empty empty revD 2 7 0 10 -262144
-1 -1 1250 1;
#X obj 262 235 hsl 26 15 0 1 0 1 empty empty Room 2 7 0 10 -262144
-1 -1 2125 1;
#X msg 536 81 0.5;
#X obj 244 251 tgl 15 1 empty empty D 3 7 0 10 -262144 -1 -1 0 1;
#N canvas 346 141 450 300 delay 0;
#X obj 245 129 dsp_switch_vanilla;
#X obj 72 14 inlet~;
#X obj 119 15 inlet~;
#X obj 164 15 inlet;
#X obj 164 38 route tgl length;
#X obj 109 87 delwrite~ delayL 3000;
#X obj 56 107 delwrite~ delayR 3000;
#X obj 54 130 delread~ delayL 500;
#X obj 107 151 delread~ delayR 500;
#X obj 54 209 outlet~;
#X obj 105 209 outlet~;
#X obj 55 185 *~;
#X obj 109 184 *~;
#X obj 245 174 switch~;
#X obj 207 62 t f f;
#X connect 0 0 13 0;
#X connect 0 1 11 1;
#X connect 0 1 12 1;
#X connect 1 0 6 0;
#X connect 2 0 5 0;
#X connect 3 0 4 0;
#X connect 4 0 0 0;
#X connect 4 1 14 0;
#X connect 7 0 11 0;
#X connect 8 0 12 0;
#X connect 11 0 9 0;
#X connect 12 0 10 0;
#X connect 14 0 7 0;
#X connect 14 1 8 0;
#X restore 277 105 pd delay;
#X msg 312 279 tgl \$1;
#X msg 358 279 length \$1;
#X obj 193 246 tgl 15 0 empty empty vu 15 7 0 10 -262144 -1 -1 0 1
;
#X obj 37 269 s vumeter_all;
#X msg 326 199 bypass \$1;
#X obj 244 205 tgl 15 0 empty empty r 4 7 0 10 -262144 -1 -1 0 1;
#X msg 174 61 0;
#X obj 327 174 == 0;
#X obj 476 334 save_param 1;
#X obj 477 312 save_param 2;
#X msg 315 308 @mixermaster \$1 \$2;
#X msg 471 271 @delaymaster \$1 \$2;
#X connect 0 0 1 0;
#X connect 0 1 3 0;
#X connect 1 0 2 1;
#X connect 2 0 11 0;
#X connect 3 0 2 0;
#X connect 4 0 14 0;
#X connect 5 0 14 1;
#X connect 10 0 39 0;
#X connect 10 1 6 0;
#X connect 10 2 7 0;
#X connect 11 0 10 0;
#X connect 12 0 13 0;
#X connect 12 0 35 0;
#X connect 13 0 10 0;
#X connect 14 0 28 0;
#X connect 14 0 10 1;
#X connect 14 1 28 1;
#X connect 14 1 10 2;
#X connect 15 0 16 0;
#X connect 16 0 14 0;
#X connect 17 0 14 0;
#X connect 18 0 14 0;
#X connect 19 0 15 0;
#X connect 20 0 25 0;
#X connect 21 0 19 0;
#X connect 21 0 26 0;
#X connect 21 0 20 0;
#X connect 21 0 23 0;
#X connect 22 0 30 0;
#X connect 23 0 22 0;
#X connect 24 0 17 0;
#X connect 25 0 18 0;
#X connect 26 0 24 0;
#X connect 27 0 29 0;
#X connect 28 0 10 1;
#X connect 28 1 10 2;
#X connect 29 0 28 2;
#X connect 30 0 28 2;
#X connect 31 0 32 0;
#X connect 33 0 14 0;
#X connect 34 0 36 0;
#X connect 35 0 34 0;
#X connect 35 0 27 0;
#X connect 36 0 33 0;
#X connect 39 0 37 0;
#X connect 40 0 38 0;
#X coords 0 -1 1 1 102 66 2 190 202;
#X restore 61 298 pd mixer_stereo;
#N canvas 75 140 654 300 mixer_stereo 0;
#X obj 97 16 ctlin;
#X floatatom 142 40 4 0 0 0 - - -;
#X obj 97 62 pack f f;
#X floatatom 97 40 3 0 0 0 - - -;
#X obj 267 18 inlet~;
#X obj 307 18 inlet~;
#X obj 223 249 outlet~;
#X obj 273 249 outlet~;
#X obj 221 133 cnv 15 19 64 empty \$0-cnv-r empty 20 12 0 14 -260097
-66577 0;
#X msg 46 147 \$0-cnv-r;
#X obj 223 135 mixer_stereovol;
#X obj 97 85 route 49, f 12;
#X obj 26 14 notein 1;
#X floatatom 26 39 5 0 0 0 - - -;
#X obj 26 62 stripnote;
#X obj 26 83 route 65;
#X msg 54 215 65 \$1;
#X obj 53 237 s apc_leds_m1;
#X obj 178 83 == 1;
#X obj 145 107 spigot;
#X obj 178 56 r act_m-s;
#X obj 383 161 r save_param;
#X text 522 219 mute \, vol;
#X obj 383 240 list;
#X obj 383 189 bng 15 250 50 0 empty empty empty 17 7 0 10 -262144
-1 -1;
#X obj 383 265 text set text-alltosave 1e+06;
#X msg 394 220 list @mixer49 \$1 \$2;
#X connect 0 0 1 0;
#X connect 0 1 3 0;
#X connect 1 0 2 1;
#X connect 2 0 11 0;
#X connect 3 0 2 0;
#X connect 4 0 10 1;
#X connect 5 0 10 2;
#X connect 10 0 26 0;
#X connect 10 1 6 0;
#X connect 10 2 7 0;
#X connect 11 0 19 0;
#X connect 12 0 13 0;
#X connect 12 1 14 1;
#X connect 13 0 14 0;
#X connect 14 0 15 0;
#X connect 16 0 17 0;
#X connect 18 0 19 1;
#X connect 19 0 10 0;
#X connect 20 0 18 0;
#X connect 21 0 24 0;
#X connect 23 0 25 0;
#X connect 24 0 23 0;
#X connect 26 0 23 1;
#X coords 0 -1 1 1 19 64 2 221 133;
#X restore 40 178 pd mixer_stereo;
#N canvas 74 169 406 244 init 0;
#X obj 51 115 tgl 15 0 empty empty switch 17 7 0 10 -261234 -258113
-1 0 1;
#X obj 108 35 loadbang;
#X msg 110 69 \; pd dsp 1;
#X msg 50 72 1;
#N canvas 346 78 450 300 midi_connect 0;
#X obj 37 16 inlet;
#X obj 37 74 ggee/shell;
#X msg 94 118 aconnect 129:2 24:0;
#X msg 37 47 aconnect 24:0 129:0;
#X msg 152 182 aconnect 16:0 129:1;
#X obj 37 102 bng 15 250 50 0 empty empty empty 17 7 0 10 -262144 -1
-1;
#X obj 94 99 bng 15 250 50 0 empty empty empty 17 7 0 10 -262144 -1
-1;
#X obj 87 12 bng 15 250 50 0 empty empty empty 17 7 0 10 -262144 -1
-1;
#X obj 94 141 ggee/shell;
#X obj 151 163 bng 15 250 50 0 empty empty empty 17 7 0 10 -262144
-1 -1;
#X obj 150 207 ggee/shell;
#X obj 206 231 bng 15 250 50 0 empty empty empty 17 7 0 10 -262144
-1 -1;
#X msg 310 64 64 2;
#X obj 299 121 noteout 1;
#X msg 284 89 64 0;
#X obj 284 18 t b b;
#X obj 284 41 delay 2000;
#X obj 128 18 loadbang;
#X obj 207 274 ggee/shell;
#X obj 264 296 bng 15 250 50 0 empty empty empty 17 7 0 10 -262144
-1 -1;
#X msg 207 251 aconnect 129:3 16:0;
#X connect 0 0 3 0;
#X connect 1 0 5 0;
#X connect 1 1 6 0;
#X connect 2 0 8 0;
#X connect 3 0 1 0;
#X connect 4 0 10 0;
#X connect 6 0 2 0;
#X connect 7 0 3 0;
#X connect 8 1 9 0;
#X connect 9 0 4 0;
#X connect 10 1 11 0;
#X connect 11 0 20 0;
#X connect 12 0 13 0;
#X connect 14 0 13 0;
#X connect 15 0 16 0;
#X connect 15 1 12 0;
#X connect 16 0 14 0;
#X connect 17 0 3 0;
#X connect 18 1 19 0;
#X connect 19 0 15 0;
#X connect 20 0 18 0;
#X restore 101 172 pd midi_connect;
#X obj 51 130 bng 15 250 50 0 empty empty aconnect 17 7 0 10 -262144
-1 -1;
#X obj 35 170 outlet;
#X obj 175 74 delay 1000;
#X obj 117 130 tgl 15 0 empty empty Connect_BLUE 17 7 0 10 -262144
-1 -1 0 1;
#X obj 117 115 tgl 15 0 empty empty Output_to_eeepc 17 7 0 10 -262144
-1 -1 0 1;
#X msg 236 161 alsa_in -j MIC -dhw:MIC & alsa_out -j Eeespeakers -dhw:Intel
;
#X connect 0 0 6 0;
#X connect 1 0 2 0;
#X connect 1 0 3 0;
#X connect 1 0 7 0;
#X connect 3 0 0 0;
#X connect 5 0 4 0;
#X connect 7 0 5 0;
#X coords 0 -1 1 1 175 45 1 50 100;
#X restore 400 325 pd init;
#N canvas 34 98 762 300 globalrec 0;
#X obj 50 20 bng 15 250 50 0 startstoprec-s startstoprec-r rec(pedal)
17 7 0 10 -262144 -33289 -33289;
#X obj 51 81 tgl 15 0 empty empty empty 17 7 0 10 -262144 -1 -1 0 1
;
#X msg 51 280 \; startstoprec-r color 13 12 12;
#X msg 121 245 \; startstoprec-r color 0 12 12;
#X obj 51 126 t b b;
#X msg 78 191 bang;
#X obj 51 101 select 1 0, f 24;
#X obj 77 217 s globalrec;
#X obj 50 36 bng 15 250 50 0 startstopplay-s startstopplay-r play 17
7 0 10 -262144 -33289 -33289;
#X obj 311 81 tgl 15 0 empty empty empty 17 7 0 10 -262144 -1 -1 0
1;
#X msg 330 194 bang;
#X msg 432 151 stop;
#X obj 311 101 select 1 0, f 24;
#X msg 381 245 \; startstopplay-r color 0 12 12;
#X msg 311 280 \; startstopplay-r color 16 12 12;
#X obj 330 221 s globalplay;
#N canvas 240 122 450 300 pedal_rec 0;
#X obj 39 10 ctlin;
#X floatatom 39 33 5 0 0 0 - - -;
#X floatatom 79 34 5 0 0 0 - - -;
#X obj 40 83 stripnote;
#X obj 100 110 bng 15 250 50 0 empty empty empty 17 7 0 10 -262144
-1 -1;
#X obj 40 57 pack f f;
#X floatatom 40 106 5 0 0 0 - - -;
#X obj 40 128 route 64;
#X obj 40 151 outlet;
#X connect 0 0 1 0;
#X connect 0 1 2 0;
#X connect 1 0 5 1;
#X connect 2 0 5 0;
#X connect 3 0 6 0;
#X connect 5 0 3 0;
#X connect 6 0 7 0;
#X connect 7 0 8 0;
#X connect 7 0 4 0;
#X coords 0 -1 1 1 30 25 1 100 100;
#X restore 244 8 pd pedal_rec;
#X msg 159 148 stop;
#X floatatom 93 34 5 0 0 0 - - -;
#X obj 504 84 f;
#X obj 504 13 t b b;
#X obj 520 36 f 0;
#X obj 504 61 metro 500;
#X obj 531 84 + 0.5;
#X obj 365 12 r loopstart;
#X obj 364 39 bng 15 250 50 0 empty empty empty 17 7 0 10 -262144 -1
-1;
#X obj 50 57 bng 15 250 50 0 empty empty clear_all 17 7 0 10 -262144
-1 -1;
#X obj 100 77 s clear_all;
#X obj 267 41 r start_play;
#X obj 571 36 r beatnum8;
#X obj 571 59 mod 4;
#X obj 571 82 select 0;
#X obj 121 124 t b b b;
#X msg 641 202 loadbang;
#X obj 641 225 s pd-eee.pd;
#X msg 349 152 1;
#X msg 396 160 0;
#X obj 381 124 t b b b;
#X obj 584 121 bng 15 250 50 0 empty empty empty 17 7 0 10 -262144
-1 -1;
#X obj 487 201 s metrostart;
#X obj 641 175 r clear_all;
#X obj 311 124 t b b b;
#X obj 584 141 s beat0;
#X connect 0 0 1 0;
#X connect 1 0 6 0;
#X connect 4 0 2 0;
#X connect 4 1 5 0;
#X connect 5 0 7 0;
#X connect 5 0 20 0;
#X connect 6 0 4 0;
#X connect 6 1 32 0;
#X connect 8 0 9 0;
#X connect 9 0 12 0;
#X connect 10 0 15 0;
#X connect 10 0 20 0;
#X connect 11 0 15 0;
#X connect 11 0 22 0;
#X connect 11 0 39 0;
#X connect 12 0 41 0;
#X connect 12 1 37 0;
#X connect 16 0 0 0;
#X connect 17 0 7 0;
#X connect 17 0 22 0;
#X connect 19 0 18 0;
#X connect 19 0 23 0;
#X connect 20 0 22 0;
#X connect 20 1 21 0;
#X connect 21 0 19 1;
#X connect 22 0 19 0;
#X connect 23 0 19 1;
#X connect 24 0 25 0;
#X connect 26 0 27 0;
#X connect 28 0 9 0;
#X connect 29 0 30 0;
#X connect 30 0 31 0;
#X connect 31 0 38 0;
#X connect 32 0 3 0;
#X connect 32 2 17 0;
#X connect 33 0 34 0;
#X connect 35 0 39 0;
#X connect 37 0 13 0;
#X connect 37 1 36 0;
#X connect 37 2 11 0;
#X connect 38 0 42 0;
#X connect 40 0 33 0;
#X connect 41 0 14 0;
#X connect 41 1 10 0;
#X connect 41 2 35 0;
#X coords 0 -1 1 1 75 52 2 50 20;
#X restore 313 38 pd globalrec;
#N canvas 156 65 624 389 sampler 0;
#X obj 36 106 monostereo;
#X obj 56 106 monostereo;
#X obj 76 106 monostereo;
#X obj 96 106 monostereo;
#X obj 116 106 monostereo;
#X obj 136 106 monostereo;
#X obj 156 106 monostereo;
#X obj 176 106 monostereo;
#X obj 291 6 inlet~;
#X obj 300 27 inlet~;
#X obj 309 48 inlet~;
#X obj 319 68 inlet~;
#X obj 337 6 inlet~;
#X obj 380 5 inlet~;
#X obj 389 26 inlet~;
#X obj 398 47 inlet~;
#X obj 408 67 inlet~;
#X obj 345 27 inlet~;
#X obj 354 48 inlet~;
#X obj 364 68 inlet~;
#X obj 423 5 inlet~;
#X obj 432 26 inlet~;
#X obj 441 47 inlet~;
#X obj 451 67 inlet~;
#X obj 208 363 outlet~;
#X obj 218 383 outlet~;
#X obj 258 363 outlet~;
#X obj 268 383 outlet~;
#X obj 308 363 outlet~;
#X obj 317 383 outlet~;
#X obj 358 363 outlet~;
#X obj 368 383 outlet~;
#X obj 408 363 outlet~;
#X obj 418 383 outlet~;
#X obj 458 363 outlet~;
#X obj 468 383 outlet~;
#X obj 508 363 outlet~;
#X obj 518 384 outlet~;
#X obj 558 363 outlet~;
#X obj 568 383 outlet~;
#X obj 505 164 import ext13;
#X obj 39 172 ext13/send13~ col0_1-r;
#X obj 46 190 ext13/send13~ col0_2-r;
#X obj 50 209 ext13/send13~ col1_1-r;
#X obj 69 234 ext13/send13~ col1_2-r;
#X obj 161 237 ext13/send13~ col3_2-r;
#X obj 153 216 ext13/send13~ col3_1-r;
#X obj 151 195 ext13/send13~ col2_2-r;
#X obj 137 171 ext13/send13~ col2_1-r;
#X obj 233 172 ext13/send13~ col4_1-r;
#X obj 241 193 ext13/send13~ col4_2-r;
#X obj 255 213 ext13/send13~ col5_1-r;
#X obj 263 234 ext13/send13~ col5_2-r;
#X obj 343 173 ext13/send13~ col6_1-r;
#X obj 351 195 ext13/send13~ col6_2-r;
#X obj 353 216 ext13/send13~ col7_1-r;
#X obj 361 236 ext13/send13~ col7_2-r;
#X obj 4 263 ext13/catch13~ col0_1-s;
#X obj 20 285 ext13/catch13~ col0_2-s;
#X obj 33 307 ext13/catch13~ col1_1-s;
#X obj 41 328 ext13/catch13~ col1_2-s;
#X obj 157 263 ext13/catch13~ col2_1-s;
#X obj 173 285 ext13/catch13~ col2_2-s;
#X obj 186 307 ext13/catch13~ col3_1-s;
#X obj 193 329 ext13/catch13~ col3_2-s;
#X obj 315 264 ext13/catch13~ col4_1-s;
#X obj 332 287 ext13/catch13~ col4_2-s;
#X obj 344 308 ext13/catch13~ col5_1-s;
#X obj 352 329 ext13/catch13~ col5_2-s;
#X obj 482 263 ext13/catch13~ col6_1-s;
#X obj 498 285 ext13/catch13~ col6_2-s;
#X obj 511 307 ext13/catch13~ col7_1-s;
#X obj 519 328 ext13/catch13~ col7_2-s;
#X obj 23 2 notein 1;
#X floatatom 23 27 5 0 0 0 - - -;
#X obj 23 50 stripnote;
#X obj 139 30 == 1;
#X obj 106 54 spigot;
#X obj 139 3 r act_m-s;
#X obj 24 80 route 64 65 66 67 68 69 70 71;
#X msg 271 108 64 \$1;
#X obj 270 130 s apc_leds_m1;
#X msg 311 108 65 \$1;
#X msg 351 109 66 \$1;
#X msg 391 108 67 \$1;
#X msg 431 108 68 \$1;
#X msg 471 108 69 \$1;
#X msg 510 108 70 \$1;
#X msg 551 108 71 \$1;
#X connect 0 0 24 0;
#X connect 0 0 41 0;
#X connect 0 1 25 0;
#X connect 0 1 42 0;
#X connect 0 2 80 0;
#X connect 1 0 26 0;
#X connect 1 0 43 0;
#X connect 1 1 27 0;
#X connect 1 1 44 0;
#X connect 1 2 82 0;
#X connect 2 0 28 0;
#X connect 2 0 48 0;
#X connect 2 1 29 0;
#X connect 2 1 47 0;
#X connect 2 2 83 0;
#X connect 3 0 30 0;
#X connect 3 0 46 0;
#X connect 3 1 31 0;
#X connect 3 1 45 0;
#X connect 3 2 84 0;
#X connect 4 0 32 0;
#X connect 4 0 49 0;
#X connect 4 1 33 0;
#X connect 4 1 50 0;
#X connect 4 2 85 0;
#X connect 5 0 34 0;
#X connect 5 0 51 0;
#X connect 5 1 35 0;
#X connect 5 1 52 0;
#X connect 5 2 86 0;
#X connect 6 0 36 0;
#X connect 6 0 53 0;
#X connect 6 1 37 0;
#X connect 6 1 54 0;
#X connect 6 2 87 0;
#X connect 7 0 38 0;
#X connect 7 0 55 0;
#X connect 7 1 39 0;
#X connect 7 1 56 0;
#X connect 7 2 88 0;
#X connect 8 0 0 0;
#X connect 9 0 0 1;
#X connect 10 0 1 0;
#X connect 11 0 1 1;
#X connect 12 0 2 0;
#X connect 13 0 4 0;
#X connect 14 0 4 1;
#X connect 15 0 5 0;
#X connect 16 0 5 1;
#X connect 17 0 2 1;
#X connect 18 0 3 0;
#X connect 19 0 3 1;
#X connect 20 0 6 0;
#X connect 21 0 6 1;
#X connect 22 0 7 0;
#X connect 23 0 7 1;
#X connect 57 0 24 0;
#X connect 58 0 25 0;
#X connect 59 0 26 0;
#X connect 60 0 27 0;
#X connect 61 0 28 0;
#X connect 62 0 29 0;
#X connect 63 0 30 0;
#X connect 64 0 31 0;
#X connect 65 0 32 0;
#X connect 66 0 33 0;
#X connect 67 0 34 0;
#X connect 68 0 35 0;
#X connect 69 0 36 0;
#X connect 70 0 37 0;
#X connect 71 0 38 0;
#X connect 72 0 39 0;
#X connect 73 0 74 0;
#X connect 73 1 75 1;
#X connect 74 0 75 0;
#X connect 75 0 77 0;
#X connect 76 0 77 1;
#X connect 77 0 79 0;
#X connect 78 0 76 0;
#X connect 79 0 0 2;
#X connect 79 1 1 2;
#X connect 79 2 2 2;
#X connect 79 3 3 2;
#X connect 79 4 4 2;
#X connect 79 5 5 2;
#X connect 79 6 6 2;
#X connect 79 7 7 2;
#X connect 80 0 81 0;
#X connect 82 0 81 0;
#X connect 83 0 81 0;
#X connect 84 0 81 0;
#X connect 85 0 81 0;
#X connect 86 0 81 0;
#X connect 87 0 81 0;
#X connect 88 0 81 0;
#X coords 0 -1 1 1 160 38 2 36 106;
#X restore 20 139 pd sampler;
#X obj 400 374 switch~;
#X obj 293 7 midi_in_monitor;
#N canvas 225 122 449 300 mixer_stereo 0;
#X obj 94 14 ctlin;
#X floatatom 139 38 4 0 0 0 - - -;
#X obj 94 60 pack f f;
#X floatatom 94 38 3 0 0 0 - - -;
#X obj 267 18 inlet~;
#X obj 307 18 inlet~;
#X obj 223 249 outlet~;
#X obj 273 249 outlet~;
#X obj 221 133 cnv 15 19 64 empty \$0-cnv-r empty 20 12 0 14 -4160
-66577 0;
#X msg 251 144 \$0-cnv-r;
#X obj 223 135 mixer_stereovol;
#X obj 26 14 notein 1;
#X floatatom 26 39 5 0 0 0 - - -;
#X obj 26 62 stripnote;
#X obj 53 237 s apc_leds_m1;
#X obj 178 83 == 1;
#X obj 145 107 spigot;
#X obj 178 56 r act_m-s;
#X text 35 141 things to configure: button for Mute (input and output)
\, slider for Volume \, active_mode, f 23;
#X obj 26 83 route 68;
#X obj 94 83 route 52, f 10;
#X msg 54 215 68 \$1;
#X obj 383 161 r save_param;
#X text 522 219 mute \, vol;
#X obj 383 240 list;
#X obj 383 189 bng 15 250 50 0 empty empty empty 17 7 0 10 -262144
-1 -1;
#X obj 383 265 text set text-alltosave 1e+06;
#X msg 396 218 list @mixer52 \$1 \$2;
#X connect 0 0 1 0;
#X connect 0 1 3 0;
#X connect 1 0 2 1;
#X connect 2 0 20 0;
#X connect 3 0 2 0;
#X connect 4 0 10 1;
#X connect 5 0 10 2;
#X connect 10 0 27 0;
#X connect 10 1 6 0;
#X connect 10 2 7 0;
#X connect 11 0 12 0;
#X connect 11 1 13 1;
#X connect 12 0 13 0;
#X connect 13 0 19 0;
#X connect 15 0 16 1;
#X connect 16 0 10 0;
#X connect 17 0 15 0;
#X connect 20 0 16 0;
#X connect 21 0 14 0;
#X connect 22 0 25 0;
#X connect 24 0 26 0;
#X connect 25 0 24 0;
#X connect 27 0 24 1;
#X coords 0 -1 1 1 19 64 2 221 133;
#X restore 102 177 pd mixer_stereo;
#N canvas 292 106 450 300 monopan 0;
#X obj 30 70 monopan;
#X obj 91 32 ctlin;
#X floatatom 91 55 5 0 0 0 - - -;
#X floatatom 137 56 5 0 0 0 - - -;
#X obj 92 88 pack f f;
#X obj 92 111 route;
#X obj 30 28 inlet~;
#X obj 14 158 outlet~;
#X obj 65 159 outlet~;
#X obj 30 84 monitor_small;
#X obj 37 84 monitor_small;
#X connect 0 0 7 0;
#X connect 0 0 9 0;
#X connect 0 1 8 0;
#X connect 0 1 10 0;
#X connect 1 0 2 0;
#X connect 1 1 3 0;
#X connect 2 0 4 1;
#X connect 3 0 4 0;
#X connect 4 0 5 0;
#X connect 5 0 0 1;
#X connect 6 0 0 0;
#X coords 0 -1 1 1 15 22 2 30 70;
#X restore 164 109 pd monopan;
#N canvas 415 214 287 232 arraybuttons 0;
#X obj 31 31 cnv 15 18 132 empty empty empty 20 12 0 14 -258113 -66577
0;
#X obj 50 31 cnv 15 18 132 empty empty empty 20 12 0 14 -260097 -66577
0;
#X obj 69 31 cnv 15 18 132 empty empty empty 20 12 0 14 -257985 -66577
0;
#X obj 88 31 cnv 15 18 132 empty empty empty 20 12 0 14 -4034 -66577
0;
#X obj 107 31 cnv 15 18 132 empty empty empty 20 12 0 14 -4160 -66577
0;
#X obj 126 31 cnv 15 18 132 empty empty empty 20 12 0 14 -4032 -66577
0;
#X obj 145 31 cnv 15 18 132 empty empty empty 20 12 0 14 -159808 -66577
0;
#X obj 164 31 cnv 15 18 132 empty empty empty 20 12 0 14 -232576 -66577
0;
#X obj 32 146 rec_stereo 0;
#X obj 51 146 rec_stereo 1;
#X obj 70 146 rec_stereo 2;
#X obj 89 146 rec_stereo 3;
#X obj 108 146 rec_stereo 4;
#X obj 127 146 rec_stereo 5;
#X obj 146 146 rec_stereo 6;
#X obj 165 146 rec_stereo 7;
#X obj 32 130 rec_stereo 8;
#X obj 51 130 rec_stereo 9;
#X obj 70 130 rec_stereo 10;
#X obj 89 130 rec_stereo 11;
#X obj 108 130 rec_stereo 12;
#X obj 127 130 rec_stereo 13;
#X obj 146 130 rec_stereo 14;
#X obj 165 130 rec_stereo 15;
#X obj 32 114 rec_stereo 16;
#X obj 51 114 rec_stereo 17;
#X obj 70 114 rec_stereo 18;
#X obj 89 114 rec_stereo 19;
#X obj 108 114 rec_stereo 20;
#X obj 127 114 rec_stereo 21;
#X obj 146 114 rec_stereo 22;
#X obj 165 114 rec_stereo 23;
#X obj 32 98 rec_stereo 24;
#X obj 51 98 rec_stereo 25;
#X obj 70 98 rec_stereo 26;
#X obj 89 98 rec_stereo 27;
#X obj 108 98 rec_stereo 28;
#X obj 127 98 rec_stereo 29;
#X obj 146 98 rec_stereo 30;
#X obj 165 98 rec_stereo 31;
#X obj 32 82 rec_stereo 32;
#X obj 51 82 rec_stereo 33;
#X obj 70 82 rec_stereo 34;
#X obj 89 82 rec_stereo 35;
#X obj 108 82 rec_stereo 36;
#X obj 127 82 rec_stereo 37;
#X obj 146 82 rec_stereo 38;
#X obj 165 82 rec_stereo 39;
#X obj 32 66 rec_stereo 40;
#X obj 51 66 rec_stereo 41;
#X obj 70 66 rec_stereo 42;
#X obj 89 66 rec_stereo 43;
#X obj 108 66 rec_stereo 44;
#X obj 127 66 rec_stereo 45;
#X obj 146 66 rec_stereo 46;
#X obj 165 66 rec_stereo 47;
#X obj 32 50 rec_stereo 48;
#X obj 51 50 rec_stereo 49;
#X obj 70 50 rec_stereo 50;
#X obj 89 50 rec_stereo 51;
#X obj 108 50 rec_stereo 52;
#X obj 127 50 rec_stereo 53;
#X obj 146 50 rec_stereo 54;
#X obj 165 50 rec_stereo 55;
#X obj 32 34 rec_stereo 56;
#X obj 51 34 rec_stereo 57;
#X obj 70 34 rec_stereo 58;
#X obj 89 34 rec_stereo 59;
#X obj 108 34 rec_stereo 60;
#X obj 127 34 rec_stereo 61;
#X obj 146 34 rec_stereo 62;
#X obj 165 34 rec_stereo 63;
#X coords 0 -1 1 1 153 134 2 30 30;
#X restore 259 114 pd arraybuttons;
#N canvas 225 122 449 300 mixer_stereo 0;
#X obj 94 14 ctlin;
#X floatatom 139 38 4 0 0 0 - - -;
#X obj 94 60 pack f f;
#X floatatom 94 38 3 0 0 0 - - -;
#X obj 267 18 inlet~;
#X obj 307 18 inlet~;
#X obj 223 249 outlet~;
#X obj 273 249 outlet~;
#X obj 221 133 cnv 15 19 64 empty \$0-cnv-r empty 20 12 0 14 -159808
-66577 0;
#X msg 251 144 \$0-cnv-r;
#X obj 223 135 mixer_stereovol;
#X obj 26 14 notein 1;
#X floatatom 26 39 5 0 0 0 - - -;
#X obj 26 62 stripnote;
#X obj 53 237 s apc_leds_m1;
#X obj 178 83 == 1;
#X obj 145 107 spigot;
#X obj 178 56 r act_m-s;
#X text 35 141 things to configure: button for Mute (input and output)
\, slider for Volume \, active_mode, f 23;
#X obj 26 83 route 70;
#X obj 94 83 route 54, f 10;
#X msg 54 215 70 \$1;
#X obj 383 161 r save_param;
#X text 522 219 mute \, vol;
#X obj 383 240 list;
#X obj 383 189 bng 15 250 50 0 empty empty empty 17 7 0 10 -262144
-1 -1;
#X obj 383 265 text set text-alltosave 1e+06;
#X msg 396 218 list @mixer54 \$1 \$2;
#X connect 0 0 1 0;
#X connect 0 1 3 0;
#X connect 1 0 2 1;
#X connect 2 0 20 0;
#X connect 3 0 2 0;
#X connect 4 0 10 1;
#X connect 5 0 10 2;
#X connect 10 0 27 0;
#X connect 10 1 6 0;
#X connect 10 2 7 0;
#X connect 11 0 12 0;
#X connect 11 1 13 1;
#X connect 12 0 13 0;
#X connect 13 0 19 0;
#X connect 15 0 16 1;
#X connect 16 0 10 0;
#X connect 17 0 15 0;
#X connect 20 0 16 0;
#X connect 21 0 14 0;
#X connect 22 0 25 0;
#X connect 24 0 26 0;
#X connect 25 0 24 0;
#X connect 27 0 24 1;
#X coords 0 -1 1 1 19 64 2 221 133;
#X restore 141 177 pd mixer_stereo;
#N canvas 225 122 449 300 mixer_stereo 0;
#X obj 94 14 ctlin;
#X floatatom 139 38 4 0 0 0 - - -;
#X obj 94 60 pack f f;
#X floatatom 94 38 3 0 0 0 - - -;
#X obj 267 18 inlet~;
#X obj 307 18 inlet~;
#X obj 223 249 outlet~;
#X obj 273 249 outlet~;
#X obj 221 133 cnv 15 19 64 empty \$0-cnv-r empty 20 12 0 14 -232576
-66577 0;
#X msg 251 144 \$0-cnv-r;
#X obj 223 135 mixer_stereovol;
#X obj 26 14 notein 1;
#X floatatom 26 39 5 0 0 0 - - -;
#X obj 26 62 stripnote;
#X obj 53 237 s apc_leds_m1;
#X obj 178 83 == 1;
#X obj 145 107 spigot;
#X obj 178 56 r act_m-s;
#X text 35 141 things to configure: button for Mute (input and output)
\, slider for Volume \, active_mode, f 23;
#X obj 26 83 route 71;
#X obj 94 83 route 55, f 10;
#X msg 54 215 71 \$1;
#X obj 383 161 r save_param;
#X text 522 219 mute \, vol;
#X obj 383 240 list;
#X obj 383 189 bng 15 250 50 0 empty empty empty 17 7 0 10 -262144
-1 -1;
#X obj 383 265 text set text-alltosave 1e+06;
#X msg 396 218 list @mixer55 \$1 \$2;
#X connect 0 0 1 0;
#X connect 0 1 3 0;
#X connect 1 0 2 1;
#X connect 2 0 20 0;
#X connect 3 0 2 0;
#X connect 4 0 10 1;
#X connect 5 0 10 2;
#X connect 10 0 27 0;
#X connect 10 1 6 0;
#X connect 10 2 7 0;
#X connect 11 0 12 0;
#X connect 11 1 13 1;
#X connect 12 0 13 0;
#X connect 13 0 19 0;
#X connect 15 0 16 1;
#X connect 16 0 10 0;
#X connect 17 0 15 0;
#X connect 20 0 16 0;
#X connect 21 0 14 0;
#X connect 22 0 25 0;
#X connect 24 0 26 0;
#X connect 25 0 24 0;
#X connect 27 0 24 1;
#X coords 0 -1 1 1 19 64 2 221 133;
#X restore 162 177 pd mixer_stereo;
#N canvas 292 106 450 300 monopan 0;
#X obj 30 70 monopan;
#X obj 91 32 ctlin;
#X floatatom 91 55 5 0 0 0 - - -;
#X floatatom 137 56 5 0 0 0 - - -;
#X obj 92 88 pack f f;
#X obj 92 111 route;
#X obj 30 28 inlet~;
#X obj 14 158 outlet~;
#X obj 65 159 outlet~;
#X obj 30 84 monitor_small;
#X obj 37 84 monitor_small;
#X connect 0 0 7 0;
#X connect 0 0 9 0;
#X connect 0 1 8 0;
#X connect 0 1 10 0;
#X connect 1 0 2 0;
#X connect 1 1 3 0;
#X connect 2 0 4 1;
#X connect 3 0 4 0;
#X connect 4 0 5 0;
#X connect 5 0 0 1;
#X connect 6 0 0 0;
#X coords 0 -1 1 1 15 22 2 30 70;
#X restore 120 110 pd monopan;
#X obj 205 270 taptempo;
#X obj 431 49 APC_modes_show;
#X obj 65 5 adc~ 3 4;
#X obj 43 380 dac~ 1 2;
#X obj 101 379 dac~ 3 4;
#X obj 207 252 metronome_tick;
#N canvas 803 116 518 360 saveload 1;
#X obj 32 260 s save_track;
#X text 110 259 notenum \, filename;
#X obj 224 215 s load_track;
#X obj 101 21 bng 15 250 50 0 empty empty Save_as 17 7 0 10 -262144
-1 -1;
#X obj 32 36 savepanel;
#X msg 56 101 write \$1;
#X text 107 233 make subdir;
#X obj 322 198 list trim;
#X obj 322 223 route #, f 12;
#X text 321 246 # comments;
#X msg 425 145 step;
#X obj 391 249 t a b a b;
#X obj 321 127 t a -1;
#X msg 392 55 clear;
#X msg 322 148 line 0 \, bang;
#X msg 305 276 \; pd dsp 1;
#X obj 101 39 bng 15 250 50 0 empty empty Load 17 7 0 10 -262144 -1
-1;
#X obj 322 53 openpanel;
#X msg 322 76 read \$1;
#X obj 320 29 t b b;
#N canvas 112 59 316 387 savewavs 0;
#X obj 39 20 inlet;
#X msg 39 66 \$1_files;
#X msg 39 116 mkdir -p \$1;
#X obj 39 139 shell;
#X obj 66 162 bng 15 250 50 0 empty empty Done 17 7 0 10 -262144 -1
-1;
#X obj 120 9 import iemlib;
#X obj 39 43 splitfilename;
#X obj 66 234 until 64;
#X obj 66 260 f;
#X obj 93 260 + 1;
#X floatatom 66 283 5 0 0 0 - - -;
#X obj 66 378 pack f s;
#X text 142 402 notenum \, filename;
#X obj 66 403 outlet;
#X obj 93 329 pack f s;
#X obj 66 305 t f f;
#X msg 93 353 \$2/track\$1.wav;
#X obj 39 89 t a a, f 17;
#X obj 66 181 t b b;
#X obj 93 207 f 0;
#X connect 0 0 6 0;
#X connect 1 0 17 0;
#X connect 2 0 3 0;
#X connect 3 1 4 0;
#X connect 4 0 18 0;
#X connect 6 0 1 0;
#X connect 7 0 8 0;
#X connect 8 0 9 0;
#X connect 8 0 10 0;
#X connect 9 0 8 1;
#X connect 10 0 15 0;
#X connect 11 0 13 0;
#X connect 14 0 16 0;
#X connect 15 0 11 0;
#X connect 15 1 14 0;
#X connect 16 0 11 1;
#X connect 17 0 2 0;
#X connect 17 1 14 1;
#X connect 18 0 7 0;
#X connect 18 1 19 0;
#X connect 19 0 8 1;
#X restore 32 233 pd savewavs;
#X obj 81 181 s save_param;
#X msg 131 94 clear;
#X obj 106 152 text define text-alltosave;
#X obj 322 103 text define text-alltoload;
#X obj 322 173 text sequence text-alltoload;
#X obj 293 86 bng 15 250 50 0 empty empty empty 17 7 0 10 -262144 -1
-1;
#X obj 99 124 bng 15 250 50 0 empty empty empty 17 7 0 10 -262144 -1
-1;
#X obj 65 164 bng 15 250 50 0 empty empty empty 17 7 0 10 -262144 -1
-1;
#X obj 32 66 t a a b b b, f 17;
#X connect 3 0 4 0;
#X connect 4 0 29 0;
#X connect 5 0 23 0;
#X connect 7 0 8 0;
#X connect 8 1 11 0;
#X connect 10 0 25 0;
#X connect 12 0 14 0;
#X connect 13 0 24 0;
#X connect 14 0 25 0;
#X connect 16 0 19 0;
#X connect 17 0 18 0;
#X connect 18 0 24 0;
#X connect 19 0 17 0;
#X connect 19 1 13 0;
#X connect 20 0 0 0;
#X connect 22 0 23 0;
#X connect 24 0 12 0;
#X connect 25 0 7 0;
#X connect 26 0 24 0;
#X connect 27 0 23 0;
#X connect 28 0 21 0;
#X connect 29 0 20 0;
#X connect 29 1 5 0;
#X connect 29 2 21 0;
#X connect 29 3 23 0;
#X connect 29 4 22 0;
#X coords 0 -1 1 1 60 35 2 100 20;
#X restore 457 6 pd saveload;
#N canvas 75 140 654 300 mixer_stereo 0;
#X obj 97 16 ctlin;
#X floatatom 142 40 4 0 0 0 - - -;
#X obj 97 62 pack f f;
#X floatatom 97 40 3 0 0 0 - - -;
#X obj 267 18 inlet~;
#X obj 307 18 inlet~;
#X obj 223 249 outlet~;
#X obj 273 249 outlet~;
#X obj 221 133 cnv 15 19 64 empty \$0-cnv-r empty 20 12 0 14 -257985
-66577 0;
#X msg 46 147 \$0-cnv-r;
#X obj 223 135 mixer_stereovol;
#X obj 26 14 notein 1;
#X floatatom 26 39 5 0 0 0 - - -;
#X obj 26 62 stripnote;
#X obj 26 83 route 65;
#X msg 54 215 65 \$1;
#X obj 53 237 s apc_leds_m1;
#X obj 178 83 == 1;
#X obj 145 107 spigot;
#X obj 178 56 r act_m-s;
#X obj 383 161 r save_param;
#X text 524 215 mute \, vol;
#X obj 383 240 list;
#X obj 383 189 bng 15 250 50 0 empty empty empty 17 7 0 10 -262144
-1 -1;
#X obj 383 265 text set text-alltosave 1e+06;
#X obj 97 85 route 50, f 12;
#X msg 399 215 list @mixer50 \$1 \$2;
#X connect 0 0 1 0;
#X connect 0 1 3 0;
#X connect 1 0 2 1;
#X connect 2 0 25 0;
#X connect 3 0 2 0;
#X connect 4 0 10 1;
#X connect 5 0 10 2;
#X connect 10 0 26 0;
#X connect 10 1 6 0;
#X connect 10 2 7 0;
#X connect 11 0 12 0;
#X connect 11 1 13 1;
#X connect 12 0 13 0;
#X connect 13 0 14 0;
#X connect 15 0 16 0;
#X connect 17 0 18 1;
#X connect 18 0 10 0;
#X connect 19 0 17 0;
#X connect 20 0 23 0;
#X connect 22 0 24 0;
#X connect 23 0 22 0;
#X connect 25 0 18 0;
#X connect 26 0 22 1;
#X coords 0 -1 1 1 19 64 2 221 133;
#X restore 61 178 pd mixer_stereo;
#N canvas 75 140 654 300 mixer_stereo 0;
#X obj 97 16 ctlin;
#X floatatom 142 40 4 0 0 0 - - -;
#X obj 97 62 pack f f;
#X floatatom 97 40 3 0 0 0 - - -;
#X obj 267 18 inlet~;
#X obj 307 18 inlet~;
#X obj 223 249 outlet~;
#X obj 273 249 outlet~;
#X obj 221 133 cnv 15 19 64 empty \$0-cnv-r empty 20 12 0 14 -4034
-66577 0;
#X msg 46 147 \$0-cnv-r;
#X obj 223 135 mixer_stereovol;
#X obj 26 14 notein 1;
#X floatatom 26 39 5 0 0 0 - - -;
#X obj 26 62 stripnote;
#X obj 26 83 route 65;
#X msg 54 215 65 \$1;
#X obj 53 237 s apc_leds_m1;
#X obj 178 83 == 1;
#X obj 145 107 spigot;
#X obj 178 56 r act_m-s;
#X obj 383 161 r save_param;
#X text 522 219 mute \, vol;
#X obj 383 240 list;
#X obj 383 189 bng 15 250 50 0 empty empty empty 17 7 0 10 -262144
-1 -1;
#X obj 383 265 text set text-alltosave 1e+06;
#X obj 97 85 route 51, f 12;
#X msg 396 218 list @mixer51 \$1 \$2;
#X connect 0 0 1 0;
#X connect 0 1 3 0;
#X connect 1 0 2 1;
#X connect 2 0 25 0;
#X connect 3 0 2 0;
#X connect 4 0 10 1;
#X connect 5 0 10 2;
#X connect 10 0 26 0;
#X connect 10 1 6 0;
#X connect 10 2 7 0;
#X connect 11 0 12 0;
#X connect 11 1 13 1;
#X connect 12 0 13 0;
#X connect 13 0 14 0;
#X connect 15 0 16 0;
#X connect 17 0 18 1;
#X connect 18 0 10 0;
#X connect 19 0 17 0;
#X connect 20 0 23 0;
#X connect 22 0 24 0;
#X connect 23 0 22 0;
#X connect 25 0 18 0;
#X connect 26 0 22 1;
#X coords 0 -1 1 1 19 64 2 221 133;
#X restore 82 178 pd mixer_stereo;
#N canvas 225 122 449 300 mixer_stereo 0;
#X obj 94 14 ctlin;
#X floatatom 139 38 4 0 0 0 - - -;
#X obj 94 60 pack f f;
#X floatatom 94 38 3 0 0 0 - - -;
#X obj 267 18 inlet~;
#X obj 307 18 inlet~;
#X obj 223 249 outlet~;
#X obj 273 249 outlet~;
#X obj 221 133 cnv 15 19 64 empty \$0-cnv-r empty 20 12 0 14 -4032
-66577 0;
#X msg 251 144 \$0-cnv-r;
#X obj 223 135 mixer_stereovol;
#X obj 26 14 notein 1;
#X floatatom 26 39 5 0 0 0 - - -;
#X obj 26 62 stripnote;
#X obj 53 237 s apc_leds_m1;
#X obj 178 83 == 1;
#X obj 145 107 spigot;
#X obj 178 56 r act_m-s;
#X text 35 141 things to configure: button for Mute (input and output)
\, slider for Volume \, active_mode, f 23;
#X obj 26 83 route 68;
#X msg 54 215 68 \$1;
#X obj 94 83 route 53, f 10;
#X obj 383 161 r save_param;
#X text 522 219 mute \, vol;
#X obj 383 240 list;
#X obj 383 189 bng 15 250 50 0 empty empty empty 17 7 0 10 -262144
-1 -1;
#X obj 383 265 text set text-alltosave 1e+06;
#X msg 396 218 list @mixer53 \$1 \$2;
#X connect 0 0 1 0;
#X connect 0 1 3 0;
#X connect 1 0 2 1;
#X connect 2 0 21 0;
#X connect 3 0 2 0;
#X connect 4 0 10 1;
#X connect 5 0 10 2;
#X connect 10 0 27 0;
#X connect 10 1 6 0;
#X connect 10 2 7 0;
#X connect 11 0 12 0;
#X connect 11 1 13 1;
#X connect 12 0 13 0;
#X connect 13 0 19 0;
#X connect 15 0 16 1;
#X connect 16 0 10 0;
#X connect 17 0 15 0;
#X connect 20 0 14 0;
#X connect 21 0 16 0;
#X connect 22 0 25 0;
#X connect 24 0 26 0;
#X connect 25 0 24 0;
#X connect 27 0 24 1;
#X coords 0 -1 1 1 19 64 2 221 133;
#X restore 121 177 pd mixer_stereo;
#N canvas 0 50 450 300 stereopan 0;
#X obj 91 32 ctlin;
#X floatatom 91 55 5 0 0 0 - - -;
#X floatatom 137 56 5 0 0 0 - - -;
#X obj 92 88 pack f f;
#X obj 92 111 route;
#X obj 12 20 inlet~;
#X obj 14 158 outlet~;
#X obj 65 159 outlet~;
#X obj 30 84 monitor_small;
#X obj 37 84 monitor_small;
#X obj 30 69 stereopan;
#X obj 54 21 inlet~;
#X connect 0 0 1 0;
#X connect 0 1 2 0;
#X connect 1 0 3 1;
#X connect 2 0 3 0;
#X connect 3 0 4 0;
#X connect 4 0 10 2;
#X connect 5 0 10 0;
#X connect 10 0 8 0;
#X connect 10 0 6 0;
#X connect 10 1 9 0;
#X connect 10 1 7 0;
#X connect 11 0 10 1;
#X coords 0 -1 1 1 15 23 2 30 69;
#X restore 125 266 pd stereopan;
#X obj 20 261 sidechain_vol;
#N canvas 62 117 622 329 record_live 0;
#N canvas 0 50 450 300 arraysize_samples 0;
#X floatatom 73 51 3 0 0 1 sec - -;
#X floatatom 31 51 3 0 0 1 min - -;
#X floatatom 31 72 11 0 0 1 samples - -;
#X obj 216 52 loadbang;
#X obj 216 75 samplerate~;
#X floatatom 216 98 5 0 0 0 - - -;
#X obj 78 122 * 60;
#X obj 78 151 +;
#X floatatom 78 174 5 0 0 0 - - -;
#X obj 78 196 *;
#X floatatom 78 219 5 0 0 0 - - -;
#X obj 216 25 bng 15 250 50 0 empty empty empty 17 7 0 10 -262144 -1
-1;
#X obj 67 244 outlet;
#X obj 37 9 inlet;
#X connect 0 0 7 1;
#X connect 1 0 6 0;
#X connect 2 0 12 0;
#X connect 3 0 4 0;
#X connect 4 0 5 0;
#X connect 5 0 9 1;
#X connect 6 0 7 0;
#X connect 7 0 8 0;
#X connect 8 0 9 0;
#X connect 9 0 10 0;
#X connect 10 0 2 0;
#X connect 11 0 4 0;
#X connect 13 0 1 0;
#X coords 0 -1 1 1 120 60 1 30 30;
#X restore 39 92 pd arraysize_samples;
#X obj 38 40 array define live_rec_L 100;
#X obj 38 60 array define live_rec_R 100;
#X obj 38 204 f;
#X obj 38 182 bng 15 250 50 0 empty empty Apply_resize 17 7 0 10 -262144
-1 -1;
#X obj 38 227 t f f;
#X msg 38 250 \; live_rec_L resize \$1 \; live_rec_R resize \$1;
#X obj 430 23 tgl 15 0 empty tgl-reclive Record_live_performance 17
7 0 10 -262144 -1 -1 0 1;
#X floatatom 530 4 3 0 0 0 Duration_in_min: - -;
#X obj 551 6 bng 15 250 50 0 empty empty Apply 17 7 0 10 -262144 -1
-1;
#X obj 297 181 dac~;
#X obj 430 41 tgl 15 0 empty empty Play_recording 17 7 0 10 -262144
-1 -1 0 1;
#N canvas 295 109 450 300 record 0;
#X obj 240 12 inlet;
#X obj 25 20 inlet~;
#X obj 26 241 *~;
#X msg 287 155 1;
#X msg 321 155 0;
#X msg 323 93 stop;
#X obj 259 227 switch~;
#X obj 259 182 dsp_switch_vanilla;
#X obj 360 244 tgl 15 0 empty empty recording -57 7 0 10 -262144 -258113
-1 0 1;
#X obj 267 95 delay 15;
#X msg 399 207 \; track\$1 const 0, f 7;
#X obj 399 180 f \$0;
#X obj 398 159 bng 15 250 50 0 empty empty empty 17 7 0 10 -262144
-1 -1;
#X obj 268 67 t b b b b, f 14;
#X obj 240 43 select 1 0;
#X obj 95 20 inlet~;
#X obj 96 241 *~;
#X obj 26 270 tabwrite~ live_rec_L, f 11;
#X obj 96 270 tabwrite~ live_rec_R, f 10;
#X msg 360 92 stop;
#X msg 261 281 \; tgl-reclive color 13;
#X msg 280 317 \; tgl-reclive color 0;
#X obj 240 126 t b b b b b;
#X obj 360 264 outlet;
#X connect 0 0 14 0;
#X connect 1 0 2 0;
#X connect 2 0 17 0;
#X connect 3 0 7 0;
#X connect 3 0 8 0;
#X connect 4 0 7 0;
#X connect 4 0 8 0;
#X connect 5 0 17 0;
#X connect 7 0 6 0;
#X connect 7 1 2 1;
#X connect 7 1 16 1;
#X connect 8 0 23 0;
#X connect 9 0 4 0;
#X connect 11 0 10 0;
#X connect 12 0 11 0;
#X connect 13 0 9 0;
#X connect 13 1 21 0;
#X connect 13 2 5 0;
#X connect 13 3 19 0;
#X connect 14 0 22 0;
#X connect 14 1 13 0;
#X connect 15 0 16 0;
#X connect 16 0 18 0;
#X connect 19 0 18 0;
#X connect 22 0 17 0;
#X connect 22 1 18 0;
#X connect 22 2 20 0;
#X connect 22 3 12 0;
#X connect 22 3 3 0;
#X restore 291 80 pd record;
#X obj 291 108 tgl 15 0 empty empty empty 17 7 0 10 -262144 -1 -1 0
1;
#X obj 285 24 inlet~;
#X obj 334 25 inlet~;
#N canvas 0 50 450 300 play 0;
#X obj 37 37 inlet;
#X obj 37 60 select 1 0;
#X obj 41 98 bng 15 250 50 0 empty empty empty 17 7 0 10 -262144 -1
-1;
#X obj 41 118 t b b;
#X obj 41 141 tabplay~ live_rec_L;
#X obj 68 161 tabplay~ live_rec_R;
#X msg 96 99 stop;
#X obj 41 205 outlet~;
#X obj 68 184 outlet~;
#X connect 0 0 1 0;
#X connect 1 0 2 0;
#X connect 1 1 6 0;
#X connect 2 0 3 0;
#X connect 3 0 4 0;
#X connect 3 1 5 0;
#X connect 4 0 7 0;
#X connect 5 0 8 0;
#X connect 6 0 4 0;
#X connect 6 0 5 0;
#X restore 293 141 pd play;
#X obj 430 58 bng 15 250 50 0 empty empty Save_wav 17 7 0 10 -262144
-1 -1;
#N canvas 406 135 450 300 savewav 0;
#X obj 80 22 inlet;
#X obj 80 45 savepanel;
#X obj 80 101 soundfiler;
#X floatatom 80 124 5 0 0 0 - - -;
#X obj 80 155 bng 15 250 50 0 empty empty empty 17 7 0 10 -262144 -1
-1;
#X obj 80 175 outlet;
#X msg 80 68 write -wave \$1 live_rec_L live_rec_R;
#X connect 0 0 1 0;
#X connect 1 0 6 0;
#X connect 2 0 3 0;
#X connect 3 0 4 0;
#X connect 4 0 5 0;
#X connect 6 0 2 0;
#X restore 427 141 pd savewav;
#X obj 428 167 bng 15 250 50 0 empty empty empty 17 7 0 10 -262144
-1 -1;
#X obj 519 114 openpanel;
#X msg 546 164 open \$1;
#X obj 546 193 readsf~ 2;
#X obj 546 216 dac~;
#X obj 518 136 t b a;
#X msg 509 164 start;
#X obj 595 218 bng 15 250 50 0 empty empty empty 17 7 0 10 -262144
-1 -1;
#X obj 514 58 tgl 15 0 empty empty Play_wav 17 7 0 10 -262144 -1 -1
0 1;
#X obj 491 79 select 0 1;
#X msg 491 114 stop;
#X msg 595 238 0;
#X obj 38 156 t b f;
#X connect 0 0 31 0;
#X connect 3 0 5 0;
#X connect 4 0 3 0;
#X connect 5 0 6 0;
#X connect 7 0 12 2;
#X connect 8 0 0 0;
#X connect 9 0 4 0;
#X connect 11 0 16 0;
#X connect 12 0 13 0;
#X connect 14 0 12 0;
#X connect 15 0 12 1;
#X connect 16 0 10 0;
#X connect 16 1 10 1;
#X connect 17 0 18 0;
#X connect 18 0 19 0;
#X connect 20 0 24 0;
#X connect 21 0 22 0;
#X connect 22 0 23 0;
#X connect 22 0 23 1;
#X connect 22 1 23 1;
#X connect 22 2 26 0;
#X connect 24 0 25 0;
#X connect 24 1 21 0;
#X connect 25 0 22 0;
#X connect 26 0 30 0;
#X connect 27 0 28 0;
#X connect 28 0 29 0;
#X connect 28 1 20 0;
#X connect 29 0 22 0;
#X connect 30 0 27 0;
#X connect 31 1 3 1;
#X coords 0 -1 1 1 170 70 2 429 3;
#X restore 217 324 pd record_live;
#N canvas 0 58 450 300 subpatches 0;
#N canvas 4 57 778 382 apc_leds 0;
#X text 14 21 0 to 64;
#X text 9 45 64 to 71;
#X text 69 21 82 to 89;
#X obj 87 87 r apc_leds_m1;
#X obj 141 7 array define apc_leds_m1 128;
#X obj 114 182 tabwrite apc_leds_m1;
#X obj 87 110 t a a;
#X obj 114 134 swap;
#X msg 48 86 64 0;
#X obj 114 157 pack f f;
#X text 137 112 idex \, value;
#X obj 87 289 noteout 1;
#X floatatom 251 52 5 0 0 0 act_m act_m-r act_m-s;
#X text 130 51 active mode:;
#X obj 141 26 array define apc_leds_m2 128;
#X obj 120 239 == 1;
#X obj 87 263 spigot;
#X obj 120 212 r act_m-s;
#X obj 338 10 loadbang;
#X msg 338 33 1;
#X obj 338 56 s act_m-r;
#X obj 252 110 t a a;
#X obj 279 134 swap;
#X obj 279 157 pack f f;
#X text 302 112 idex \, value;
#X obj 252 289 noteout 1;
#X obj 252 263 spigot;
#X obj 285 212 r act_m-s;
#X obj 252 87 r apc_leds_m2;
#X obj 279 182 tabwrite apc_leds_m2;
#X obj 285 239 == 2;
#X msg 372 33 2;
#X obj 462 94 r act_m-s;
#X text 464 55 if active mode changes \, send all info to APC, f 23
;
#X obj 508 288 tabread;
#X obj 462 117 t b f, f 22;
#X msg 591 261 set apc_leds_m\$1;
#X floatatom 508 313 5 0 0 0 - - -;
#X obj 462 356 noteout 1;
#X obj 463 233 t f f;
#X obj 463 334 pack f f;
#X obj 463 164 f;
#X obj 492 164 + 1;
#X msg 517 233 stop;
#X floatatom 463 210 5 0 0 0 - - -;
#X obj 426 119 bng 15 250 50 0 empty empty empty 17 7 0 10 -262144
-1 -1;
#X obj 517 209 t b b;
#X obj 556 235 f 0;
#X obj 461 140 metro 1;
#X obj 463 187 moses 82;
#X floatatom 296 264 5 0 0 0 - - -;
#X floatatom 135 259 5 0 0 0 - - -;
#N canvas 15 55 471 300 blink 0;
#X obj 112 17 inlet;
#X text 156 15 note \, vel;
#X obj 112 42 swap, f 22;
#X obj 115 254 outlet;
#X msg 115 228 \$2 \$1;
#X obj 32 62 bng 15 250 50 0 empty empty empty 17 7 0 10 -262144 -1
-1;
#X obj 33 38 r beatbng;
#X msg 257 220 4 127 17;
#X msg 228 252 4 0 17;
#X obj 32 113 delay 150;
#X obj 230 195 t f;
#X obj 113 113 - 1;
#X obj 91 160 list;
#X obj 113 136 pack f f;
#X obj 241 107 f 0;
#X obj 241 130 pack f f;
#X obj 241 84 t b f f;
#X obj 146 157 list;
#X obj 32 82 t b b;
#X msg 241 20 64 2;
#X obj 112 65 route 2 4 6;
#X obj 112 88 t f f;
#X text 305 79 CANCELLED: I can't do that \, I would have to update
the whole matrices of buttons every beat, f 22;
#X connect 0 0 2 0;
#X connect 2 0 20 0;
#X connect 2 1 16 0;
#X connect 4 0 3 0;
#X connect 6 0 5 0;
#X connect 9 0 12 0;
#X connect 11 0 13 0;
#X connect 12 0 4 0;
#X connect 13 0 12 1;
#X connect 14 0 15 0;
#X connect 15 0 17 1;
#X connect 16 0 14 0;
#X connect 16 1 15 1;
#X connect 16 2 13 1;
#X connect 17 0 4 0;
#X connect 18 0 9 0;
#X connect 18 1 17 0;
#X connect 19 0 2 0;
#X connect 20 0 21 0;
#X connect 20 1 21 0;
#X connect 20 2 21 0;
#X connect 21 0 11 0;
#X restore 173 331 pd blink;
#X connect 3 0 6 0;
#X connect 6 0 16 0;
#X connect 6 1 7 0;
#X connect 7 0 9 0;
#X connect 7 1 9 1;
#X connect 8 0 6 0;
#X connect 9 0 5 0;
#X connect 15 0 16 1;
#X connect 15 0 51 0;
#X connect 16 0 11 0;
#X connect 17 0 15 0;
#X connect 18 0 19 0;
#X connect 19 0 20 0;
#X connect 21 0 26 0;
#X connect 21 1 22 0;
#X connect 22 0 23 0;
#X connect 22 1 23 1;
#X connect 23 0 29 0;
#X connect 26 0 25 0;
#X connect 27 0 30 0;
#X connect 28 0 21 0;
#X connect 30 0 26 1;
#X connect 30 0 50 0;
#X connect 31 0 20 0;
#X connect 32 0 35 0;
#X connect 34 0 37 0;
#X connect 35 0 48 0;
#X connect 35 1 36 0;
#X connect 36 0 34 0;
#X connect 37 0 40 1;
#X connect 39 0 40 0;
#X connect 39 1 34 0;
#X connect 40 0 38 0;
#X connect 41 0 42 0;
#X connect 41 0 49 0;
#X connect 42 0 41 1;
#X connect 43 0 48 0;
#X connect 44 0 39 0;
#X connect 45 0 48 0;
#X connect 46 0 43 0;
#X connect 46 1 47 0;
#X connect 47 0 41 1;
#X connect 48 0 41 0;
#X connect 49 0 44 0;
#X connect 49 1 46 0;
#X restore 96 60 pd apc_leds;
#N canvas 36 57 705 392 matrix 0;
#X obj 288 3 bng 15 250 50 0 empty empty empty 17 7 0 10 -262144 -1
-1;
#X obj 70 92 f;
#X obj 70 116 moses 64;
#X floatatom 70 139 5 0 0 0 - - -;
#X obj 119 184 mod 8;
#X obj 288 182 div 8;
#X floatatom 288 205 5 0 0 0 - - -;
#X floatatom 119 207 5 0 0 0 - - -;
#X msg 114 138 stop;
#X obj 70 24 t b f;
#X msg 97 47 0;
#X obj 98 91 + 1;
#X obj 101 294 pack f f f;
#X obj 146 251 expr ( 30 + 15 * $f1 );
#X floatatom 146 274 5 0 0 0 - - -;
#X obj 288 229 expr ( 200 - 15 * $f1 );
#X floatatom 288 252 5 0 0 0 - - -;
#X msg 101 318 obj \$2 \$3 rec_stereo \$1;
#X obj 85 771 s pd-arraybuttons;
#X obj 450 4 bng 15 250 50 0 empty empty empty 17 7 0 10 -262144 -1
-1;
#X obj 450 92 f;
#X floatatom 450 139 5 0 0 0 - - -;
#X obj 450 201 t f f f;
#X msg 522 161 stop;
#X obj 450 24 t b f;
#X msg 477 47 0;
#X obj 479 93 + 1;
#X obj 450 70 metro 100;
#X obj 450 116 moses 16;
#X msg 450 247 obj \$1 20 inlet~;
#X obj 450 270 s pd-arraybuttons;
#X obj 450 224 expr ( 50 * $f1 );
#X obj 560 4 bng 15 250 50 0 empty empty empty 17 7 0 10 -262144 -1
-1;
#X obj 560 92 f;
#X floatatom 560 139 5 0 0 0 - - -;
#X obj 560 201 t f f f;
#X msg 633 160 stop;
#X obj 560 24 t b f;
#X msg 587 47 0;
#X obj 589 93 + 1;
#X obj 560 70 metro 100;
#X obj 560 116 moses 16;
#X obj 560 270 s pd-arraybuttons;
#X obj 560 224 expr ( 50 * $f1 );
#X msg 560 247 obj \$1 300 outlet~;
#X obj 70 161 t f f f f f;
#X obj 215 666 pack f f;
#X obj 119 229 t f f;
#X obj 150 690 pack f f;
#X msg 150 716 connect \$1 0 \$2 0;
#X msg 280 666 connect \$2 0 \$1 0;
#X obj 119 340 t f f f f;
#X obj 280 640 pack f f;
#X obj 85 610 t f f f f, f 33;
#X floatatom 325 389 5 0 0 0 - - -;
#X text 430 366 inlet 1;
#X text 389 412 inlet 2;
#X text 333 467 outlet 1;
#X text 280 517 oulet 2;
#X msg 215 689 connect \$2 0 \$1 1;
#X obj 85 715 pack f f;
#X msg 85 741 connect \$1 1 \$2 0;
#X obj 606 138 t b b;
#X obj 606 180 delay 100;
#X obj 495 138 t b b;
#X obj 495 181 delay 100;
#X obj 70 70 metro 1000;
#X floatatom 118 539 5 0 0 0 - - -;
#X floatatom 195 490 5 0 0 0 - - -;
#X floatatom 260 433 5 0 0 0 - - -;
#X msg 168 81 0;
#X floatatom 85 587 5 0 0 0 - - -;
#X obj 85 564 expr ( $f1 + 32 );
#X obj 70 4 bng 15 250 50 0 empty empty empty 17 7 0 10 -262144 -1
-1;
#X obj 325 366 expr ( $f1 * 2 );
#X obj 260 410 expr ( $f1 * 2 + 1 );
#X obj 195 467 expr ( 16 + $f1 * 2 );
#X obj 119 516 expr ( 16 + 1 + $f1 * 2 );
#X connect 0 0 19 0;
#X connect 1 0 2 0;
#X connect 1 0 11 0;
#X connect 2 0 3 0;
#X connect 2 1 8 0;
#X connect 3 0 45 0;
#X connect 4 0 7 0;
#X connect 5 0 6 0;
#X connect 6 0 15 0;
#X connect 7 0 47 0;
#X connect 8 0 66 0;
#X connect 9 0 66 0;
#X connect 9 1 10 0;
#X connect 10 0 1 1;
#X connect 11 0 1 1;
#X connect 12 0 17 0;
#X connect 13 0 14 0;
#X connect 14 0 12 1;
#X connect 15 0 16 0;
#X connect 16 0 12 2;
#X connect 17 0 18 0;
#X connect 19 0 24 0;
#X connect 20 0 26 0;
#X connect 20 0 28 0;
#X connect 21 0 22 0;
#X connect 22 0 31 0;
#X connect 23 0 27 0;
#X connect 24 0 27 0;
#X connect 24 1 25 0;
#X connect 25 0 20 1;
#X connect 26 0 20 1;
#X connect 27 0 20 0;
#X connect 28 0 21 0;
#X connect 28 1 64 0;
#X connect 29 0 30 0;
#X connect 31 0 29 0;
#X connect 32 0 37 0;
#X connect 33 0 39 0;
#X connect 33 0 41 0;
#X connect 34 0 35 0;
#X connect 35 0 43 0;
#X connect 36 0 40 0;
#X connect 37 0 40 0;
#X connect 37 1 38 0;
#X connect 38 0 33 1;
#X connect 39 0 33 1;
#X connect 40 0 33 0;
#X connect 41 0 34 0;
#X connect 41 1 62 0;
#X connect 43 0 44 0;
#X connect 44 0 42 0;
#X connect 45 1 72 0;
#X connect 45 2 12 0;
#X connect 45 3 4 0;
#X connect 45 4 5 0;
#X connect 46 0 59 0;
#X connect 47 0 51 0;
#X connect 47 1 13 0;
#X connect 48 0 49 0;
#X connect 49 0 18 0;
#X connect 50 0 18 0;
#X connect 51 0 77 0;
#X connect 51 1 76 0;
#X connect 51 2 75 0;
#X connect 51 3 74 0;
#X connect 52 0 50 0;
#X connect 53 0 60 0;
#X connect 53 1 48 0;
#X connect 53 2 46 0;
#X connect 53 3 52 0;
#X connect 54 0 52 1;
#X connect 59 0 18 0;
#X connect 60 0 61 0;
#X connect 61 0 18 0;
#X connect 62 0 63 0;
#X connect 62 1 36 0;
#X connect 63 0 73 0;
#X connect 64 0 65 0;
#X connect 64 1 23 0;
#X connect 65 0 32 0;
#X connect 66 0 1 0;
#X connect 67 0 60 1;
#X connect 68 0 48 1;
#X connect 69 0 46 1;
#X connect 70 0 1 0;
#X connect 71 0 53 0;
#X connect 72 0 71 0;
#X connect 73 0 9 0;
#X connect 74 0 54 0;
#X connect 75 0 69 0;
#X connect 76 0 68 0;
#X connect 77 0 67 0;
#X coords 0 392 1 391 121 121 0;
#X restore 70 82 pd matrix;
#N canvas 0 58 567 400 change_apc_mode 0;
#X msg 207 239 1;
#X obj 207 262 s act_m-r;
#X obj 113 14 notein;
#X floatatom 113 37 5 0 0 0 - - -;
#X floatatom 152 37 5 0 0 0 - - -;
#X obj 113 59 pack f f;
#X obj 113 82 route 98;
#X floatatom 113 105 5 0 0 0 - - -;
#X obj 27 12 notein;
#X floatatom 27 35 5 0 0 0 - - -;
#X floatatom 66 35 5 0 0 0 - - -;
#X obj 27 133 spigot;
#X obj 207 94 tgl 15 0 empty empty empty 17 7 0 10 -262144 -1 -1 0
1;
#X obj 207 118 select 0 1;
#X obj 27 57 stripnote;
#X obj 207 145 t b b;
#X obj 233 212 noteout 1;
#X obj 297 144 t b b;
#X obj 327 240 noteout 1;
#X obj 301 94 tgl 15 0 empty empty empty 17 7 0 10 -262144 -1 -1 0
1;
#X obj 233 167 f;
#X msg 233 189 \$1 0;
#X obj 207 23 t f f f;
#X obj 207 73 t b b;
#X obj 232 94 f 2;
#X obj 297 239 f;
#X obj 302 74 t b b b;
#X obj 357 96 tgl 15 0 empty empty empty 17 7 0 10 -262144 -1 -1 0
1;
#X obj 357 116 s activate_taptempo;
#X obj 329 94 f 2;
#X obj 327 194 pack f f;
#X obj 326 168 f 1;
#X msg 327 217 \$2 \$1;
#X obj 384 163 tgl 15 0 empty empty empty 17 7 0 10 -262144 -1 -1 0
1;
#X obj 385 143 t b b b;
#X obj 440 165 tgl 15 0 empty empty empty 17 7 0 10 -262144 -1 -1 0
1;
#X obj 405 162 f 2;
#X obj 440 187 s start_play;
#X obj 207 51 select 89 88 82 87, f 48;
#X obj 419 96 tgl 15 0 empty empty empty 17 7 0 10 -262144 -1 -1 0
1;
#X obj 420 76 t b b b;
#X obj 475 98 tgl 15 0 empty empty empty 17 7 0 10 -262144 -1 -1 0
1;
#X obj 440 95 f 2;
#X obj 480 139 s start_tick;
#X connect 0 0 1 0;
#X connect 2 0 3 0;
#X connect 2 1 4 0;
#X connect 3 0 5 0;
#X connect 4 0 5 1;
#X connect 5 0 6 0;
#X connect 6 0 7 0;
#X connect 7 0 11 1;
#X connect 8 0 9 0;
#X connect 8 1 10 0;
#X connect 9 0 14 0;
#X connect 10 0 14 1;
#X connect 11 0 22 0;
#X connect 12 0 13 0;
#X connect 13 0 15 0;
#X connect 13 1 17 0;
#X connect 14 0 11 0;
#X connect 15 0 0 0;
#X connect 15 1 20 0;
#X connect 17 0 25 0;
#X connect 17 1 31 0;
#X connect 19 0 30 0;
#X connect 20 0 21 0;
#X connect 21 0 16 0;
#X connect 22 0 38 0;
#X connect 22 1 20 1;
#X connect 22 2 30 1;
#X connect 23 0 12 0;
#X connect 23 1 24 0;
#X connect 24 0 25 1;
#X connect 25 0 1 0;
#X connect 26 0 19 0;
#X connect 26 1 29 0;
#X connect 26 2 27 0;
#X connect 27 0 28 0;
#X connect 29 0 25 1;
#X connect 30 0 32 0;
#X connect 31 0 30 0;
#X connect 32 0 18 0;
#X connect 33 0 30 0;
#X connect 34 0 33 0;
#X connect 34 1 36 0;
#X connect 34 2 35 0;
#X connect 35 0 37 0;
#X connect 36 0 25 1;
#X connect 38 0 23 0;
#X connect 38 1 26 0;
#X connect 38 2 34 0;
#X connect 38 3 40 0;
#X connect 39 0 30 0;
#X connect 40 0 39 0;
#X connect 40 1 42 0;
#X connect 40 2 41 0;
#X connect 41 0 43 0;
#X connect 42 0 25 1;
#X restore 21 38 pd change_apc_mode;
#N canvas 263 73 531 392 bars 0;
#X obj 194 13 r act_m-s;
#X floatatom 194 36 5 0 0 0 - - -;
#X obj 194 61 select 2;
#X floatatom 49 24 5 0 0 1 bars_to_record - -;
#X obj 46 176 f;
#X obj 75 176 + 1;
#X obj 46 199 moses, f 6;
#X msg 73 131 stop;
#X obj 185 145 notein 1;
#X obj 185 168 stripnote;
#X floatatom 185 191 5 0 0 0 - - -;
#X floatatom 230 288 5 0 0 0 - - -;
#X obj 194 84 t b b;
#X obj 221 114 f 1;
#X obj 239 84 t b b;
#X obj 185 214 spigot;
#X floatatom 224 191 5 0 0 0 - - -;
#X obj 263 112 f 0;
#X obj 185 238 moses 24;
#X obj 230 261 moses 32;
#X obj 115 131 f 24;
#X msg 46 223 \$1 1;
#X obj 230 310 t f b f;
#X obj 8 178 bng 15 250 50 0 empty empty empty 17 7 0 10 -262144 -1
-1;
#X obj 230 336 - 23;
#X floatatom 6 199 5 0 0 0 - - -;
#X obj 269 334 + 1;
#X obj 46 110 t b b b, f 17;
#X msg 82 245 \$1 0;
#X obj 430 18 r globalplay;
#X obj 429 43 r globalrec;
#X obj 429 66 route bang stop;
#X obj 429 92 bng 15 250 50 0 empty empty empty 17 7 0 10 -262144 -1
-1;
#X obj 472 93 bng 15 250 50 0 empty empty empty 17 7 0 10 -262144 -1
-1;
#X obj 145 131 f;
#X floatatom 145 154 5 0 0 0 - - -;
#X obj 46 153 metro 1;
#X obj 46 281 s apc_leds_m2;
#X text 321 313 blink the current bar, f 11;
#X obj 83 222 moses 32;
#X obj 321 2 r beatnum8;
#X floatatom 321 25 5 0 0 0 - - -;
#X obj 321 115 f;
#X obj 350 115 + 1;
#X floatatom 321 138 5 0 0 0 - - -;
#X obj 429 112 f 0;
#X obj 321 160 int;
#X obj 321 240 + 24;
#X obj 321 208 mod;
#X msg 321 278 \$1 2;
#X obj 321 184 t f f;
#X obj 355 210 - 1;
#X msg 356 291 \$1 1;
#X obj 356 238 mod;
#X obj 360 262 + 24;
#X floatatom 289 70 5 0 0 0 - - -;
#X obj 319 47 div 4;
#X obj 319 70 change;
#X obj 319 94 select 0 1;
#X connect 0 0 1 0;
#X connect 1 0 2 0;
#X connect 2 0 12 0;
#X connect 2 1 14 0;
#X connect 3 0 48 1;
#X connect 3 0 53 1;
#X connect 4 0 5 0;
#X connect 4 0 6 0;
#X connect 4 0 25 0;
#X connect 5 0 4 1;
#X connect 6 0 21 0;
#X connect 6 1 39 0;
#X connect 7 0 36 0;
#X connect 8 0 9 0;
#X connect 8 1 9 1;
#X connect 9 0 10 0;
#X connect 10 0 15 0;
#X connect 11 0 22 0;
#X connect 12 1 13 0;
#X connect 13 0 16 0;
#X connect 14 0 7 0;
#X connect 14 1 17 0;
#X connect 15 0 18 0;
#X connect 16 0 15 1;
#X connect 17 0 16 0;
#X connect 18 1 19 0;
#X connect 19 0 11 0;
#X connect 20 0 4 1;
#X connect 21 0 37 0;
#X connect 22 0 24 0;
#X connect 22 1 27 0;
#X connect 22 2 26 0;
#X connect 24 0 3 0;
#X connect 26 0 34 1;
#X connect 27 0 36 0;
#X connect 27 1 20 0;
#X connect 27 2 34 0;
#X connect 28 0 37 0;
#X connect 29 0 31 0;
#X connect 30 0 31 0;
#X connect 31 0 32 0;
#X connect 31 1 33 0;
#X connect 32 0 45 0;
#X connect 33 0 27 0;
#X connect 34 0 6 1;
#X connect 34 0 35 0;
#X connect 36 0 4 0;
#X connect 36 0 23 0;
#X connect 39 0 28 0;
#X connect 39 1 7 0;
#X connect 40 0 41 0;
#X connect 41 0 56 0;
#X connect 42 0 43 0;
#X connect 42 0 44 0;
#X connect 43 0 42 1;
#X connect 44 0 46 0;
#X connect 45 0 42 0;
#X connect 46 0 50 0;
#X connect 47 0 49 0;
#X connect 48 0 47 0;
#X connect 49 0 37 0;
#X connect 50 0 48 0;
#X connect 50 1 51 0;
#X connect 51 0 53 0;
#X connect 52 0 37 0;
#X connect 53 0 54 0;
#X connect 54 0 52 0;
#X connect 56 0 55 0;
#X connect 56 0 57 0;
#X connect 57 0 58 0;
#X connect 58 0 42 0;
#X connect 58 1 42 0;
#X restore 21 82 pd bars;
#N canvas 12 75 406 329 beat_led 0;
#X obj 54 350 s apc_leds_m2;
#X obj 113 279 pack f f;
#X obj 54 86 bng 15 250 50 0 empty empty empty 17 7 0 10 -262144 -1
-1;
#X msg 54 322 8 3 \, 12 3;
#X obj 54 106 t b b, f 15;
#X obj 54 15 r act_m-s;
#X floatatom 54 38 5 0 0 0 - - -;
#X obj 54 60 select 2;
#X obj 61 134 r beatnum8;
#X obj 107 184 t f f;
#X obj 149 227 mod 8;
#X floatatom 149 250 5 0 0 0 - - -;
#X floatatom 107 207 5 0 0 0 - - -;
#X obj 141 130 f 1;
#X obj 172 129 f 0;
#X obj 108 160 spigot;
#X floatatom 61 157 5 0 0 0 - - -;
#X obj 144 205 - 1;
#X msg 113 302 \$1 3 \, \$2 0;
#X obj 249 41 r globalplay;
#X obj 249 64 r globalrec;
#X obj 249 87 route stop;
#X obj 249 151 metro 1;
#X obj 249 174 f;
#X obj 280 174 + 1;
#X floatatom 249 197 5 0 0 0 - - -;
#X obj 249 219 moses 8;
#X msg 318 129 stop;
#X msg 249 242 \$1 0;
#X obj 249 110 t b b;
#X obj 274 130 f 0;
#X connect 1 0 18 0;
#X connect 2 0 4 0;
#X connect 3 0 0 0;
#X connect 4 0 3 0;
#X connect 4 1 13 0;
#X connect 5 0 6 0;
#X connect 6 0 7 0;
#X connect 7 0 2 0;
#X connect 7 1 14 0;
#X connect 8 0 15 0;
#X connect 8 0 16 0;
#X connect 9 0 12 0;
#X connect 9 1 17 0;
#X connect 10 0 11 0;
#X connect 11 0 1 1;
#X connect 12 0 1 0;
#X connect 13 0 15 1;
#X connect 14 0 15 1;
#X connect 15 0 9 0;
#X connect 17 0 10 0;
#X connect 18 0 0 0;
#X connect 19 0 21 0;
#X connect 20 0 21 0;
#X connect 21 0 29 0;
#X connect 22 0 23 0;
#X connect 23 0 24 0;
#X connect 23 0 25 0;
#X connect 24 0 23 1;
#X connect 25 0 26 0;
#X connect 26 0 28 0;
#X connect 26 1 27 0;
#X connect 27 0 22 0;
#X connect 28 0 0 0;
#X connect 29 0 22 0;
#X connect 29 1 30 0;
#X connect 30 0 23 1;
#X restore 21 60 pd beat_led;
#X obj 21 103 metronome;
#N canvas 0 50 450 300 resize_tracks 0;
#X obj 55 172 s trackresize;
#X obj 55 143 pack f f;
#X text 117 143 button number \, new sample size;
#N canvas 0 50 450 300 arraysize_samples 0;
#X floatatom 73 51 3 0 0 1 sec - -;
#X floatatom 31 51 3 0 0 1 min - -;
#X floatatom 31 72 11 0 0 1 samples - -;
#X obj 216 52 loadbang;
#X obj 216 75 samplerate~;
#X floatatom 216 98 5 0 0 0 - - -;
#X obj 78 122 * 60;
#X obj 78 151 +;
#X floatatom 78 174 5 0 0 0 - - -;
#X obj 78 196 *;
#X floatatom 78 219 5 0 0 0 - - -;
#X obj 216 25 bng 15 250 50 0 empty empty empty 17 7 0 10 -262144 -1
-1;
#X connect 0 0 7 1;
#X connect 1 0 6 0;
#X connect 3 0 4 0;
#X connect 4 0 5 0;
#X connect 5 0 9 1;
#X connect 6 0 7 0;
#X connect 7 0 8 0;
#X connect 8 0 9 0;
#X connect 9 0 10 0;
#X connect 10 0 2 0;
#X connect 11 0 4 0;
#X coords 0 -1 1 1 120 60 1 30 30;
#X restore 287 43 pd arraysize_samples;
#X msg 74 78 2.646e+06;
#X msg 55 55 56 \, 48 \, 57 \, 49 \, 0 \, 60 \, 61;
#X connect 1 0 0 0;
#X connect 4 0 1 1;
#X connect 5 0 1 0;
#X restore 21 17 pd resize_tracks;
#X restore 433 253 pd subpatches;
#X connect 0 0 2 0;
#X connect 0 1 2 1;
#X connect 0 2 2 2;
#X connect 0 3 2 3;
#X connect 0 4 2 4;
#X connect 0 5 2 5;
#X connect 0 6 2 6;
#X connect 0 7 2 7;
#X connect 1 0 9 0;
#X connect 1 0 9 2;
#X connect 1 0 9 4;
#X connect 1 1 9 1;
#X connect 1 1 9 3;
#X connect 1 1 9 5;
#X connect 2 0 17 0;
#X connect 2 1 9 10;
#X connect 2 2 13 0;
#X connect 2 3 13 0;
#X connect 2 4 9 14;
#X connect 3 0 5 0;
#X connect 3 1 5 1;
#X connect 5 0 21 0;
#X connect 5 0 22 0;
#X connect 5 0 30 0;
#X connect 5 1 21 1;
#X connect 5 1 22 1;
#X connect 5 1 30 1;
#X connect 6 0 29 0;
#X connect 6 1 29 1;
#X connect 7 0 10 0;
#X connect 9 0 3 0;
#X connect 9 1 3 1;
#X connect 9 2 6 0;
#X connect 9 3 6 1;
#X connect 9 4 25 0;
#X connect 9 5 25 1;
#X connect 9 6 26 0;
#X connect 9 7 26 1;
#X connect 9 8 12 0;
#X connect 9 9 12 1;
#X connect 9 10 27 0;
#X connect 9 11 27 1;
#X connect 9 12 15 0;
#X connect 9 13 15 1;
#X connect 9 14 16 0;
#X connect 9 15 16 1;
#X connect 12 0 29 2;
#X connect 12 0 5 0;
#X connect 12 1 5 1;
#X connect 13 0 9 12;
#X connect 13 1 9 13;
#X connect 15 0 5 0;
#X connect 15 1 5 1;
#X connect 16 0 5 0;
#X connect 16 1 5 1;
#X connect 17 0 9 8;
#X connect 17 1 9 9;
#X connect 23 0 5 1;
#X connect 23 0 5 0;
#X connect 25 0 5 0;
#X connect 25 1 5 1;
#X connect 27 0 28 0;
#X connect 27 1 28 1;
#X connect 28 0 5 0;
#X connect 28 1 5 1;
#X connect 29 0 5 0;
#X connect 29 1 5 1;
