#N canvas 620 93 367 462 12;
#X obj 80 50 ctlin;
#X floatatom 80 80 5 0 0 0 - - -;
#X floatatom 100 100 5 0 0 0 - - -;
#X floatatom 120 130 5 0 0 0 - - -;
#X obj 80 160 stripnote;
#X obj 80 130 swap;
#X floatatom 80 189 5 0 0 0 - - -;
#X obj 80 281 s;
#X msg 112 248 symbol t\$1;
#X obj 80 329 r t1;
#X obj 79 427 ctlout;
#X obj 130 330 r t2;
#X obj 180 330 r t3;
#X obj 230 330 r t4;
#X obj 280 330 r t5;
#X obj 80 356 tgl 15 0 empty empty empty 17 7 0 10 -262144 -1 -1 0
1;
#X msg 80 382 \$1 1 1;
#X obj 130 356 tgl 15 0 empty empty empty 17 7 0 10 -262144 -1 -1 0
1;
#X obj 180 356 tgl 15 0 empty empty empty 17 7 0 10 -262144 -1 -1 0
1;
#X obj 230 356 tgl 15 0 empty empty empty 17 7 0 10 -262144 -1 -1 0
1;
#X obj 280 356 tgl 15 0 empty empty empty 17 7 0 10 -262144 -1 -1 0
1;
#X msg 130 382 \$1 2 1;
#X msg 180 382 \$1 3 1;
#X msg 230 382 \$1 4 1;
#X msg 280 382 \$1 5 1;
#X obj 80 220 t b f;
#X connect 0 0 1 0;
#X connect 0 1 2 0;
#X connect 0 2 3 0;
#X connect 1 0 5 0;
#X connect 2 0 5 1;
#X connect 4 0 6 0;
#X connect 5 0 4 0;
#X connect 5 1 4 1;
#X connect 6 0 25 0;
#X connect 8 0 7 1;
#X connect 9 0 15 0;
#X connect 11 0 17 0;
#X connect 12 0 18 0;
#X connect 13 0 19 0;
#X connect 14 0 20 0;
#X connect 15 0 16 0;
#X connect 16 0 10 0;
#X connect 17 0 21 0;
#X connect 18 0 22 0;
#X connect 19 0 23 0;
#X connect 20 0 24 0;
#X connect 21 0 10 0;
#X connect 22 0 10 0;
#X connect 23 0 10 0;
#X connect 24 0 10 0;
#X connect 25 0 7 0;
#X connect 25 1 8 0;
