#N canvas 10 69 706 377 10;
#X obj 53 24 inlet;
#X obj 24 380 f \$1;
#X floatatom 24 405 5 0 0 0 - - -;
#X obj 278 134 select;
#X floatatom 72 120 5 0 0 0 - - -;
#X obj 73 295 s \$0-sel_note;
#X obj 311 92 r \$0-sel_note;
#X floatatom 311 114 5 0 0 0 - - -;
#X text 58 380 instance number;
#X obj 80 273 print set button;
#X obj 24 353 bng 15 250 50 0 empty empty empty 17 7 0 10 -262144 -1
-1;
#X obj 443 13 table \$0-array-L;
#X obj 550 13 table \$0-array-R;
#X obj 346 306 tabplay~ \$0-array-L;
#X obj 407 284 tabplay~ \$0-array-R;
#X obj 407 259 spigot;
#X obj 542 214 != 0;
#X obj 515 138 r \$0-Rarraysize;
#X floatatom 515 162 5 0 0 0 - - -;
#X obj 362 386 *~;
#X obj 515 187 t f f;
#X obj 377 335 == 0;
#X floatatom 377 358 5 0 0 0 - - -;
#X floatatom 542 237 5 0 0 0 - - -;
#X obj 347 427 *~ 0.7;
#X obj 407 428 *~ 0.7;
#X text 122 422 outputs;
#X floatatom 183 120 5 0 0 0 - - -;
#N canvas 105 105 327 306 loadwav 0;
#X obj 46 152 soundfiler;
#X floatatom 46 177 5 0 0 0 - - -;
#X obj 65 265 print soundfiler \$0 \$1;
#X obj 46 48 t a b;
#X obj 73 74 f \$0;
#X obj 46 99 pack s f;
#X msg 46 131 read -resize \$1 \$2-array-L \$2-array-R;
#X obj 85 245 s \$0-Rarraysize;
#X obj 85 222 array max \$0-array-R;
#X obj 46 17 inlet;
#X obj 46 199 t b a b;
#X obj 46 287 outlet;
#X connect 0 0 1 0;
#X connect 1 0 10 0;
#X connect 3 0 5 0;
#X connect 3 1 4 0;
#X connect 4 0 5 1;
#X connect 5 0 6 0;
#X connect 6 0 0 0;
#X connect 8 0 7 0;
#X connect 9 0 3 0;
#X connect 10 0 11 0;
#X connect 10 1 2 0;
#X connect 10 2 8 0;
#X restore 100 248 pd loadwav;
#X text 30 2 button_number /path/to/sample.wav output_1 output_2 stopnote
;
#X obj 278 67 t f f, f 21;
#X obj 402 89 select;
#X obj 435 67 r \$0-stopnote;
#X obj 183 145 s \$0-stopnote;
#X msg 402 160 stop;
#X obj 406 459 *~;
#X obj 348 458 *~;
#X obj 72 95 unpack f s f f f, f 19;
#X obj 188 253 bng 15 250 50 0 empty empty empty 17 7 0 10 -262144
-1 -1;
#X msg 188 273 0;
#N canvas 0 50 530 389 switchramp 0;
#X obj 202 12 inlet;
#X text 245 14 0 or 1;
#X obj 202 37 select 0 1, f 28;
#X obj 202 144 bng 15 250 50 0 empty empty empty 17 7 0 10 -262144
-1 -1;
#X obj 284 65 bng 15 250 50 0 empty empty empty 17 7 0 10 -262144 -1
-1;
#X text 309 63 switch on and ramp volume up;
#X obj 284 91 t b b b b b, f 16;
#X obj 161 118 tgl 15 0 empty empty empty 17 7 0 10 -262144 -1 -1 0
1;
#X obj 377 114 f 0;
#X obj 353 114 f 1;
#X obj 328 115 f 1;
#X obj 306 116 f 1;
#X obj 283 116 f 1;
#X obj 236 336 outlet;
#X text 235 353 switch;
#X text 300 353 vol multipl;
#X obj 296 334 outlet~;
#X obj 390 336 outlet;
#X text 389 357 1 or 0;
#X obj 295 306 line~;
#X msg 295 277 \$1 10;
#X text 224 140 ramp vol down and switch off;
#X obj 202 164 t b b b;
#X obj 202 228 delay 15;
#X obj 202 251 t b b;
#X obj 202 274 f 0;
#X obj 230 275 f 0;
#X obj 241 187 f 0;
#X obj 217 189 f 0;
#X text 142 101 switch;
#X obj 102 103 bng 15 250 50 0 empty empty empty 17 7 0 10 -262144
-1 -1;
#X text 120 101 on;
#X obj 102 121 bng 15 250 50 0 empty empty empty 17 7 0 10 -262144
-1 -1;
#X text 118 118 off;
#X connect 0 0 2 0;
#X connect 2 0 3 0;
#X connect 2 1 4 0;
#X connect 3 0 22 0;
#X connect 4 0 6 0;
#X connect 6 0 12 0;
#X connect 6 1 11 0;
#X connect 6 2 10 0;
#X connect 6 3 9 0;
#X connect 6 4 8 0;
#X connect 8 0 19 0;
#X connect 9 0 7 0;
#X connect 10 0 13 0;
#X connect 11 0 17 0;
#X connect 12 0 20 0;
#X connect 19 0 16 0;
#X connect 20 0 19 0;
#X connect 22 0 23 0;
#X connect 22 1 28 0;
#X connect 22 2 27 0;
#X connect 23 0 24 0;
#X connect 24 0 25 0;
#X connect 24 1 26 0;
#X connect 25 0 13 0;
#X connect 26 0 7 0;
#X connect 27 0 17 0;
#X connect 28 0 20 0;
#X connect 30 0 4 0;
#X connect 32 0 3 0;
#X coords 0 -1 1 1 85 40 2 100 100;
#X restore 585 406 pd switchramp;
#X obj 585 451 switch~;
#X floatatom 662 455 5 0 0 0 - - -;
#X obj 612 356 f 1;
#X obj 53 47 t b a b;
#X obj 585 357 f 0;
#X obj 346 229 t b b b, f 21;
#X obj 457 326 bng 15 250 50 0 empty empty empty 17 7 0 10 -262144
-1 -1;
#X obj 347 511 throw~;
#X obj 406 512 throw~;
#X msg 128 472 set s\$1;
#X msg 151 450 set s\$1;
#X obj 260 42 bng 15 250 50 0 empty empty empty 17 7 0 10 -262144 -1
-1;
#X obj 585 382 change;
#X obj 278 162 t b b;
#X msg 278 185 0 5;
#X obj 278 455 line~;
#X obj 348 483 *~;
#X obj 406 484 *~;
#X msg 307 231 1 5;
#X obj 307 184 delay 5;
#X obj 307 207 t b b, f 7;
#N canvas 0 50 450 300 note_in 0;
#X obj 53 18 notein, f 12;
#X floatatom 53 43 5 0 0 0 - - -;
#X obj 53 70 stripnote;
#X obj 53 101 spigot;
#X floatatom 130 49 5 0 0 0 - - -;
#X obj 122 71 == 18;
#X obj 53 124 outlet;
#X connect 0 0 1 0;
#X connect 0 1 2 1;
#X connect 0 2 4 0;
#X connect 0 2 5 0;
#X connect 1 0 2 0;
#X connect 2 0 3 0;
#X connect 3 0 6 0;
#X connect 5 0 3 1;
#X restore 278 41 pd note_in;
#X obj 92 72 s \$0on;
#X obj 53 323 s \$0off;
#X obj 625 308 r \$0on;
#X obj 581 288 r \$0off;
#X obj 469 257 s \$0on;
#X obj 457 347 s \$0off;
#X text 356 167 <-- ramp to avoid click when restarting tabplay before
it finished, f 19;
#X obj 402 112 t b b, f 10;
#X msg 462 138 0 5;
#X obj 402 137 delay 5;
#X obj 321 162 bng 15 250 50 0 empty empty empty 17 7 0 10 -262144
-1 -1;
#X connect 0 0 44 0;
#X connect 1 0 2 0;
#X connect 3 0 54 0;
#X connect 3 0 73 0;
#X connect 4 0 5 0;
#X connect 4 0 9 0;
#X connect 6 0 7 0;
#X connect 7 0 3 1;
#X connect 10 0 1 0;
#X connect 13 0 19 0;
#X connect 13 0 24 0;
#X connect 13 1 47 0;
#X connect 14 0 25 0;
#X connect 15 0 14 0;
#X connect 16 0 15 1;
#X connect 16 0 23 0;
#X connect 17 0 18 0;
#X connect 18 0 20 0;
#X connect 19 0 25 0;
#X connect 20 0 21 0;
#X connect 20 1 16 0;
#X connect 21 0 19 1;
#X connect 21 0 22 0;
#X connect 24 0 36 0;
#X connect 25 0 35 0;
#X connect 27 0 33 0;
#X connect 28 0 38 0;
#X connect 30 0 3 0;
#X connect 30 1 31 0;
#X connect 31 0 70 0;
#X connect 32 0 31 1;
#X connect 34 0 13 0;
#X connect 34 0 14 0;
#X connect 35 0 58 0;
#X connect 36 0 57 0;
#X connect 37 0 4 0;
#X connect 37 1 28 0;
#X connect 37 2 50 0;
#X connect 37 3 51 0;
#X connect 37 4 27 0;
#X connect 38 0 39 0;
#X connect 40 0 41 0;
#X connect 40 1 35 1;
#X connect 40 1 36 1;
#X connect 40 2 42 0;
#X connect 43 0 53 0;
#X connect 44 0 64 0;
#X connect 44 1 37 0;
#X connect 44 2 63 0;
#X connect 45 0 53 0;
#X connect 46 0 13 0;
#X connect 46 1 15 0;
#X connect 46 2 67 0;
#X connect 47 0 68 0;
#X connect 50 0 48 0;
#X connect 51 0 49 0;
#X connect 53 0 40 0;
#X connect 54 0 55 0;
#X connect 54 1 60 0;
#X connect 55 0 56 0;
#X connect 56 0 57 1;
#X connect 56 0 58 1;
#X connect 57 0 48 0;
#X connect 58 0 49 0;
#X connect 59 0 56 0;
#X connect 60 0 61 0;
#X connect 61 0 59 0;
#X connect 61 1 46 0;
#X connect 62 0 52 0;
#X connect 62 0 30 0;
#X connect 65 0 43 0;
#X connect 66 0 45 0;
#X connect 70 0 72 0;
#X connect 70 1 71 0;
#X connect 71 0 56 0;
#X connect 72 0 34 0;
