#N canvas 175 57 439 395 10;
#X obj 32 103 text define \$0-toload;
#X obj 32 173 text sequence \$0-toload;
#X obj 32 198 list trim;
#X obj 32 223 route #, f 12;
#X text 31 246 # comments;
#X obj 40 415 print, f 6;
#X msg 135 145 step;
#X obj 15 7 loadbang;
#X obj 101 249 t a b a b;
#X obj 147 298 + 1;
#X obj 147 273 f;
#X obj 32 128 t a -1;
#X floatatom 147 323 5 0 0 0 - - -;
#X msg 147 347 \$1;
#X obj 101 388 list prepend;
#X obj 107 15 bng 15 250 50 0 empty empty empty 17 7 0 10 -262144 -1
-1;
#X msg 66 56 clear;
#X msg 32 148 line 0 \, bang;
#X msg 248 331 vis 2 1;
#X msg 49 79 read /home/zig/Documents/Pd/samples_to_load.txt;
#X msg 251 355 vis 0 1;
#X msg 257 377 vis 1 1;
#X obj 101 415 clone -s 1 load_sample 16;
#X obj 15 32 t b b b b;
#X msg 15 276 \; pd dsp 1;
#X connect 0 0 11 0;
#X connect 1 0 2 0;
#X connect 2 0 3 0;
#X connect 3 1 8 0;
#X connect 6 0 1 0;
#X connect 7 0 23 0;
#X connect 8 0 14 0;
#X connect 8 3 10 0;
#X connect 9 0 12 0;
#X connect 10 0 9 0;
#X connect 11 0 17 0;
#X connect 11 1 10 1;
#X connect 12 0 13 0;
#X connect 12 0 10 1;
#X connect 13 0 14 1;
#X connect 14 0 5 0;
#X connect 14 0 22 0;
#X connect 15 0 23 0;
#X connect 16 0 0 0;
#X connect 17 0 1 0;
#X connect 18 0 22 0;
#X connect 19 0 0 0;
#X connect 20 0 22 0;
#X connect 21 0 22 0;
#X connect 23 0 24 0;
#X connect 23 1 0 0;
#X connect 23 2 19 0;
#X connect 23 3 16 0;
