#N canvas 0 50 450 300 10;
#X obj 65 111 select 0;
#X obj 65 191 vline~;
#X obj 65 214 *~;
#X obj 65 259 outlet~;
#X obj 65 64 mod 4;
#X floatatom 65 87 5 0 0 0 - - -;
#X obj 65 9 r beatnum8;
#X obj 65 134 t b b;
#X obj 165 191 osc~ 800;
#X obj 110 134 t b b;
#X obj 180 20 tgl 15 0 empty empty tick 17 7 0 10 -262144 -1 -1 1 1
;
#X obj 65 32 spigot;
#X obj 180 42 t f f;
#X obj 215 116 switch~;
#X obj 63 235 *~ 0.5;
#X msg 210 163 200;
#X msg 165 163 400;
#X msg 65 168 1 20 \, 0 150 10;
#X obj 280 22 r globalplay;
#X obj 280 45 route bang stop;
#X msg 280 68 1;
#X msg 317 68 0;
#X obj 220 94 tgl 15 0 empty empty empty 17 7 0 10 -262144 -1 -1 1
1;
#X obj 319 142 r start_tick;
#X obj 38 136 bng 15 250 50 0 empty empty empty 17 7 0 10 -262144 -1
-1;
#X connect 0 0 7 0;
#X connect 0 0 24 0;
#X connect 0 1 9 0;
#X connect 1 0 2 0;
#X connect 2 0 14 0;
#X connect 4 0 5 0;
#X connect 5 0 0 0;
#X connect 6 0 11 0;
#X connect 7 0 17 0;
#X connect 7 1 16 0;
#X connect 8 0 2 1;
#X connect 9 0 17 0;
#X connect 9 1 15 0;
#X connect 10 0 12 0;
#X connect 11 0 4 0;
#X connect 12 0 11 1;
#X connect 12 1 22 0;
#X connect 14 0 3 0;
#X connect 15 0 8 0;
#X connect 16 0 8 0;
#X connect 17 0 1 0;
#X connect 18 0 19 0;
#X connect 19 0 20 0;
#X connect 19 1 21 0;
#X connect 20 0 22 0;
#X connect 21 0 22 0;
#X connect 22 0 13 0;
#X connect 23 0 10 0;
#X coords 0 -1 1 1 50 15 2 180 20;
