#N canvas 79 85 460 358 10;
#X obj 98 9 notein;
#X obj 188 33 cnv 15 49 16 empty empty midimon: 1 6 0 10 -233017 -66577
0;
#X obj 98 258 s \$0-midimon-r;
#X msg 203 123 45 127 1;
#X obj 98 129 t b a;
#X obj 98 206 delay 200;
#X obj 187 60 import zexy;
#X obj 125 155 list2symbol;
#X obj 98 108 pack s f f f;
#X obj 98 32 t b a;
#X msg 98 55 symbol N;
#X obj 32 34 t b a;
#X obj 32 11 ctlin;
#X msg 32 57 symbol CC;
#X msg 125 180 label \$1 \, color 15;
#X msg 98 231 color 10;
#X obj 236 33 cnv 15 70 16 empty \$0-midimon-r empty 4 7 0 10 -233017
-66577 0;
#X obj 292 220 f;
#X connect 0 0 9 0;
#X connect 0 1 8 2;
#X connect 0 2 8 3;
#X connect 3 0 7 0;
#X connect 4 0 5 0;
#X connect 4 1 7 0;
#X connect 5 0 15 0;
#X connect 7 0 14 0;
#X connect 8 0 4 0;
#X connect 9 0 10 0;
#X connect 9 1 8 1;
#X connect 10 0 8 0;
#X connect 11 0 13 0;
#X connect 11 1 8 1;
#X connect 12 0 11 0;
#X connect 12 1 8 2;
#X connect 12 2 8 3;
#X connect 13 0 8 0;
#X connect 14 0 2 0;
#X connect 15 0 2 0;
#X coords 0 -1 1 1 119 16 2 187 33;
