#N canvas 1028 184 591 418 12;
#X obj 136 76 ctlin;
#X floatatom 173 115 3 0 0 0 value - -;
#X floatatom 122 115 2 0 0 0 CC# - -;
#X floatatom 224 115 2 0 0 0 chan - -;
#X obj 208 76 notein;
#X floatatom 174 137 3 0 0 0 value - -;
#X floatatom 122 136 2 0 0 0 note - -;
#X floatatom 225 136 2 0 0 0 chan - -;
#X obj 496 141 f \$2;
#X obj 286 121 symbol \$1;
#X obj 455 138 f \$4;
#X obj 440 256 ==;
#X text 18 10 arguments: \; cc or note 1 \; \; -channel 1 \; -apcmode
1 \;;
#X obj 285 194 select cc note;
#X msg 285 216 1 0;
#X msg 333 218 0 1;
#X obj 285 242 unpack;
#X msg 375 218 0 0;
#X obj 252 275 spigot;
#X obj 323 275 spigot;
#X obj 288 313 spigot;
#X floatatom 440 279 5 0 0 0 - - -;
#X obj 481 257 ==;
#X floatatom 481 280 5 0 0 0 - - -;
#X obj 122 162 t f f;
#X obj 106 192 t f f;
#X obj 288 336 spigot;
#X floatatom 288 359 5 0 0 0 - - -;
#X obj 288 413 outlet;
#X obj 522 260 ==;
#X floatatom 522 283 5 0 0 0 - - -;
#X obj 537 144 f \$6;
#X obj 553 215 r act_m-s;
#X obj 288 387 spigot;
#X connect 0 0 1 0;
#X connect 0 1 2 0;
#X connect 0 2 3 0;
#X connect 1 0 18 0;
#X connect 2 0 24 0;
#X connect 3 0 11 0;
#X connect 4 0 5 0;
#X connect 4 1 6 0;
#X connect 4 2 7 0;
#X connect 5 0 19 0;
#X connect 6 0 25 0;
#X connect 8 0 22 1;
#X connect 9 0 13 0;
#X connect 10 0 11 1;
#X connect 11 0 21 0;
#X connect 13 0 14 0;
#X connect 13 1 15 0;
#X connect 13 2 17 0;
#X connect 14 0 16 0;
#X connect 15 0 16 0;
#X connect 16 0 18 1;
#X connect 16 1 19 1;
#X connect 17 0 16 0;
#X connect 18 0 20 0;
#X connect 19 0 20 0;
#X connect 20 0 26 0;
#X connect 21 0 20 1;
#X connect 22 0 23 0;
#X connect 23 0 26 1;
#X connect 24 1 22 0;
#X connect 25 1 22 0;
#X connect 26 0 27 0;
#X connect 27 0 33 0;
#X connect 29 0 30 0;
#X connect 30 0 33 1;
#X connect 31 0 29 1;
#X connect 32 0 29 0;
#X connect 33 0 28 0;
#X coords 0 -1 1 1 152 63 1 90 95;
