#N canvas 271 124 450 300 10;
#X obj 185 177 *~;
#X obj 101 32 vsl 15 37 1 127 0 0 \$0-slider-s \$0-slider-r empty 0
-9 0 10 -262144 -1 -1 0 0;
#X obj 35 26 loadbang;
#X obj 69 248 outlet;
#X obj 149 3 inlet;
#X obj 101 70 tgl 15 0 empty empty M 5 7 0 10 -262144 -258113 -1 0
1;
#X obj 71 198 == 0;
#X obj 109 220 switch~;
#X floatatom 71 221 5 0 0 0 - - -;
#X obj 200 102 / 120;
#X obj 185 73 inlet~;
#X obj 185 200 outlet~;
#X obj 35 49 f 1;
#X obj 249 178 *~;
#X obj 249 74 inlet~;
#X obj 249 201 outlet~;
#X msg 200 125 \$1 50;
#X obj 200 148 line~;
#X obj 148 24 route bang float;
#X obj 152 52 bng 15 250 50 0 empty empty empty 17 7 0 10 -262144 -1
-1;
#X obj 101 82 monitor_small;
#X obj 108 82 monitor_small;
#X connect 0 0 11 0;
#X connect 0 0 20 0;
#X connect 1 0 9 0;
#X connect 2 0 12 0;
#X connect 4 0 18 0;
#X connect 5 0 6 0;
#X connect 6 0 7 0;
#X connect 6 0 8 0;
#X connect 8 0 3 0;
#X connect 9 0 16 0;
#X connect 10 0 0 0;
#X connect 12 0 5 0;
#X connect 13 0 15 0;
#X connect 13 0 21 0;
#X connect 14 0 13 0;
#X connect 16 0 17 0;
#X connect 17 0 0 1;
#X connect 17 0 13 1;
#X connect 18 0 5 0;
#X connect 18 0 19 0;
#X connect 18 1 1 0;
#X coords 0 -1 1 1 15 60 2 101 30;
