#N canvas 399 148 285 298 10;
#X obj 46 121 dsp_volume 1;
#X obj 66 121 dsp_volume 2;
#X obj 86 121 dsp_volume 2;
#X obj 106 121 dsp_volume 2;
#X obj 126 121 dsp_volume 2;
#X obj 146 121 dsp_volume 2;
#X obj 166 121 dsp_volume 2;
#X obj 186 121 dsp_volume 2;
#X obj 47 13 ctlin;
#X floatatom 92 37 4 0 0 0 - - -;
#X obj 47 59 pack f f;
#X floatatom 47 37 3 0 0 0 - - -;
#X obj 138 12 loadbang;
#X msg 138 35 \; pd dsp 1;
#X msg 46 218 info;
#X obj 35 251 plugin~ tap_reverb;
#X obj 47 82 route 48 49 50 51 52 53 54 55 56;
#X obj 206 121 dsp_volume 2;
#X connect 8 0 9 0;
#X connect 8 1 11 0;
#X connect 9 0 10 1;
#X connect 10 0 16 0;
#X connect 11 0 10 0;
#X connect 12 0 13 0;
#X connect 14 0 15 0;
#X connect 16 0 0 0;
#X connect 16 1 1 0;
#X connect 16 2 2 0;
#X connect 16 3 3 0;
#X connect 16 4 4 0;
#X connect 16 5 5 0;
#X connect 16 6 6 0;
#X connect 16 7 7 0;
#X connect 16 8 17 0;
#X coords 0 -1 1 1 178 88 1 45 120;
