#N canvas 309 104 450 300 10;
#X obj 50 55 snapshot~;
#X floatatom 50 78 7 0 0 0 - - -;
#X obj 119 125 bng 8 250 50 0 empty \$0-vubang-r empty 17 7 0 10 -33289 -258113 -1;
#X obj 50 100 moses 0.0001;
#X obj 49 -39 inlet~;
#X obj 115 30 metro 100;
#X obj 115 -15 select 1 0;
#X msg 143 8 stop;
#X obj 193 -29 r vumeter_all;
#X floatatom 193 -6 5 0 0 0 - - -;
#X obj 207 58 loadbang;
#X obj 207 81 f \$0;
#X obj 207 104 outlet;
#X obj 215 37 bng 15 250 50 0 empty empty empty 17 7 0 10 -262144 -1 -1;
#X connect 0 0 1 0;
#X connect 1 0 3 0;
#X connect 3 1 2 0;
#X connect 4 0 0 0;
#X connect 5 0 0 0;
#X connect 6 0 5 0;
#X connect 6 1 7 0;
#X connect 7 0 5 0;
#X connect 8 0 9 0;
#X connect 9 0 6 0;
#X connect 10 0 11 0;
#X connect 11 0 12 0;
#X connect 13 0 11 0;
#X coords 0 -1 1 1 8 8 2 119 125;
