#N canvas 314 81 539 379 10;
#X obj 26 50 + 1;
#X obj 274 99 select 1 2, f 27;
#X obj 150 97 f \$0;
#X obj 26 73 t f b f, f 42;
#X obj 197 47 inlet~;
#X obj 256 48 inlet~;
#X obj 197 345 outlet~;
#X obj 255 346 outlet~;
#X msg 273 152 0;
#X msg 353 154 1;
#X obj 256 222 *~;
#X floatatom 342 55 5 0 0 1 #_0_of_the_right_vubang - -;
#X obj 305 152 f;
#X msg 388 182 \; \$1-vubang-r color 2 13;
#X obj 274 122 t b b;
#X obj 387 155 f;
#X msg 308 225 \; \$1-vubang-r color 0 13;
#X obj 354 130 t b b;
#X obj 93 13 loadbang;
#X msg 93 36 0;
#X obj 26 96 makefilename %d;
#X obj 26 118 pack s f;
#X msg 26 144 \; \$2-monostereo-r label \$1;
#X floatatom 271 175 5 0 0 0 - - -;
#X obj 29 32 tgl 13 0 empty empty M 4 7 0 10 -166441 -258113 -1 0 1
;
#X obj 26 12 tgl 20 0 empty \$0-monostereo-r 1 6 13 0 12 -262144 -228856
-1 0 1;
#X obj 27 10 monitor_small;
#X obj 37 10 monitor_small;
#X obj 33 213 select 1;
#X obj 110 210 f \$0;
#X obj 33 191 t f b;
#X msg 125 36 1;
#X obj 33 286 t a a;
#X obj 309 312 dsp_switch_vanilla;
#X obj 310 356 switch~;
#X msg 73 235 0 1;
#X obj 33 263 pack f f f;
#X msg 309 271 \$2;
#X obj 198 285 *~;
#X obj 255 283 *~;
#X text 108 235 color \, switch~;
#X obj 26 33 cnv 10 20 12 empty \$0-muteinput-r M 7 7 0 11 -262144
-66577 0;
#X msg 33 308 \; \$3-monostereo-r color \$1 \; \$3-muteinput-r color
\$1;
#X msg 33 237 1 0;
#X obj 333 18 inlet;
#X obj 391 355 outlet;
#X obj 212 251 *~;
#X obj 271 197 t f f;
#X obj 224 225 == 0;
#X connect 0 0 3 0;
#X connect 1 0 14 0;
#X connect 1 1 17 0;
#X connect 2 0 21 1;
#X connect 3 0 20 0;
#X connect 3 1 2 0;
#X connect 3 2 1 0;
#X connect 4 0 26 0;
#X connect 4 0 38 0;
#X connect 4 0 46 0;
#X connect 5 0 10 0;
#X connect 5 0 27 0;
#X connect 8 0 23 0;
#X connect 9 0 23 0;
#X connect 10 0 39 0;
#X connect 11 0 15 1;
#X connect 11 0 12 1;
#X connect 12 0 16 0;
#X connect 14 0 8 0;
#X connect 14 1 12 0;
#X connect 15 0 13 0;
#X connect 17 0 9 0;
#X connect 17 1 15 0;
#X connect 18 0 19 0;
#X connect 18 0 31 0;
#X connect 19 0 25 0;
#X connect 20 0 21 0;
#X connect 21 0 22 0;
#X connect 23 0 47 0;
#X connect 24 0 30 0;
#X connect 25 0 0 0;
#X connect 27 0 11 0;
#X connect 28 0 43 0;
#X connect 28 1 35 0;
#X connect 29 0 36 2;
#X connect 30 0 28 0;
#X connect 30 1 29 0;
#X connect 31 0 24 0;
#X connect 32 0 42 0;
#X connect 32 1 37 0;
#X connect 33 0 34 0;
#X connect 33 1 38 1;
#X connect 33 1 39 1;
#X connect 33 2 45 0;
#X connect 35 0 36 0;
#X connect 36 0 32 0;
#X connect 37 0 33 0;
#X connect 38 0 6 0;
#X connect 39 0 7 0;
#X connect 43 0 36 0;
#X connect 44 0 24 0;
#X connect 46 0 39 0;
#X connect 47 0 48 0;
#X connect 47 1 10 1;
#X connect 48 0 46 1;
#X coords 0 -1 1 1 20 35 2 26 10;
