#N canvas 125 72 550 300 10;
#X obj 26 12 tgl 20 0 empty \$0-monostereo-r 1 6 13 0 12 -262144 -228856
-1 0 1;
#X obj 26 50 + 1;
#X obj 274 99 select 1 2, f 27;
#X obj 150 97 f \$0;
#X obj 26 73 t f b f, f 42;
#X obj 196 20 inlet~;
#X obj 256 21 inlet~;
#X obj 196 219 outlet~;
#X obj 254 220 outlet~;
#X msg 273 152 0;
#X msg 353 154 1;
#X obj 255 194 *~;
#X obj 27 10 monitor_small;
#X obj 37 10 monitor_small;
#X floatatom 342 55 5 0 0 1 #_0_of_the_right_vubang - -;
#X obj 305 152 f;
#X msg 388 182 \; \$1-vubang-r color 2 13;
#X obj 274 122 t b b;
#X obj 387 155 f;
#X msg 308 225 \; \$1-vubang-r color 0 13;
#X obj 354 130 t b b;
#X obj 93 13 loadbang;
#X msg 93 36 0;
#X obj 26 96 makefilename %d;
#X obj 26 118 pack s f;
#X msg 26 144 \; \$2-monostereo-r label \$1;
#X floatatom 271 175 5 0 0 0 - - -;
#X connect 0 0 1 0;
#X connect 1 0 4 0;
#X connect 2 0 17 0;
#X connect 2 1 20 0;
#X connect 3 0 24 1;
#X connect 4 0 23 0;
#X connect 4 1 3 0;
#X connect 4 2 2 0;
#X connect 5 0 7 0;
#X connect 5 0 12 0;
#X connect 6 0 11 0;
#X connect 6 0 13 0;
#X connect 9 0 26 0;
#X connect 10 0 26 0;
#X connect 11 0 8 0;
#X connect 13 0 14 0;
#X connect 14 0 15 1;
#X connect 14 0 18 1;
#X connect 15 0 19 0;
#X connect 17 0 9 0;
#X connect 17 1 15 0;
#X connect 18 0 16 0;
#X connect 20 0 10 0;
#X connect 20 1 18 0;
#X connect 21 0 22 0;
#X connect 22 0 0 0;
#X connect 23 0 24 0;
#X connect 24 0 25 0;
#X connect 26 0 11 1;
#X coords 0 -1 1 1 20 22 2 26 10;
