#N canvas 46 100 594 337 10;
#N canvas 0 50 450 300 arraysize_samples 0;
#X floatatom 73 51 3 0 0 1 sec - -;
#X floatatom 31 51 3 0 0 1 min - -;
#X floatatom 31 72 11 0 0 1 samples - -;
#X obj 216 52 loadbang;
#X obj 216 75 samplerate~;
#X floatatom 216 98 5 0 0 0 - - -;
#X obj 78 122 * 60;
#X obj 78 151 +;
#X floatatom 78 174 5 0 0 0 - - -;
#X obj 78 196 *;
#X floatatom 78 219 5 0 0 0 - - -;
#X obj 216 25 bng 15 250 50 0 empty empty empty 17 7 0 10 -262144 -1
-1;
#X connect 0 0 7 1;
#X connect 1 0 6 0;
#X connect 3 0 4 0;
#X connect 4 0 5 0;
#X connect 5 0 9 1;
#X connect 6 0 7 0;
#X connect 7 0 8 0;
#X connect 8 0 9 0;
#X connect 9 0 10 0;
#X connect 10 0 2 0;
#X connect 11 0 4 0;
#X coords 0 -1 1 1 120 60 1 30 30;
#X restore 287 203 pd arraysize_samples;
#X obj 31 146 inlet~;
#X obj 131 287 outlet~;
#X text 330 170 if armed \, pass message through, f 15;
#X obj 6 5 inlet;
#X obj 30 30 triggers;
#X obj 291 35 loadbang;
#X obj 294 128 outlet;
#X obj 315 9 bng 15 250 50 0 empty empty empty 17 7 0 10 -262144 -1
-1;
#X obj 294 65 f \$0;
#X msg 294 107 symbol track\$1;
#X obj 421 22 r clear_all;
#X obj 421 45 bng 15 250 50 0 empty empty empty 17 7 0 10 -262144 -1
-1;
#X obj 448 276 outlet;
#X msg 71 232 R;
#X obj 257 277 array define track\$0 768000;
#X obj 421 65 f \$0;
#X msg 421 88 \; track\$1 const 0;
#N canvas 71 139 450 339 trig_rec 1;
#N canvas -13 57 674 398 rec 0;
#X obj 43 23 inlet~;
#X obj 45 313 *~;
#X obj 137 23 inlet;
#X obj 139 157 bng 15 250 50 0 empty empty empty 17 7 0 10 -262144
-1 -1;
#X obj 203 71 bng 15 250 50 0 empty empty empty 17 7 0 10 -262144 -1
-1;
#X msg 157 207 1;
#X msg 190 207 0;
#X msg 257 150 stop;
#X obj 157 277 switch~;
#X obj 157 232 dsp_switch_vanilla;
#X obj 259 294 tgl 15 0 empty empty recording -57 7 0 10 -262144 -258113
-1 0 1;
#X obj 379 145 timer;
#X floatatom 382 169 5 0 0 0 - - -;
#X obj 369 29 loadbang;
#X obj 369 52 samplerate~;
#X floatatom 369 75 5 0 0 0 - - -;
#X obj 382 191 *;
#X floatatom 382 214 8 0 0 0 - - -;
#X obj 378 272 s \$0-length;
#X obj 372 9 bng 15 250 50 0 empty empty empty 17 7 0 10 -262144 -1
-1;
#X obj 369 97 / 1000;
#X obj 261 314 outlet;
#X obj 203 122 delay 15;
#X obj 16 140 f \$0;
#X floatatom 16 163 5 0 0 0 - - -;
#X msg 16 185 set track\$1;
#X obj 16 100 loadbang;
#X obj 45 342 tabwrite~;
#X obj 553 110 r globaltempo_ms;
#X floatatom 553 133 5 0 0 0 - - -;
#X obj 553 155 * 4;
#X floatatom 553 178 5 0 0 0 - - -;
#X text 591 174 nombre de ms dans une mesure, f 12;
#X obj 509 206 /;
#X floatatom 509 229 5 0 0 0 - - -;
#X obj 509 251 + 0.49999;
#X obj 509 274 int;
#X floatatom 509 297 5 0 0 0 - - -;
#X obj 509 319 *;
#X floatatom 509 346 5 0 0 0 - - -;
#X obj 509 368 *;
#X floatatom 509 391 7 0 0 0 - - -;
#X text 561 308 round to the closest bar, f 10;
#X obj 139 176 t b b b b;
#X obj 203 91 t b b b b, f 14;
#X obj 321 313 == 0;
#X obj 137 49 route rec stop, f 22;
#X text 127 343 record also the ramp from the switch?;
#X floatatom 439 102 5 0 0 0 - - -;
#X obj 406 123 spigot;
#X connect 0 0 1 0;
#X connect 1 0 27 0;
#X connect 2 0 46 0;
#X connect 3 0 43 0;
#X connect 4 0 44 0;
#X connect 5 0 9 0;
#X connect 5 0 10 0;
#X connect 6 0 9 0;
#X connect 6 0 10 0;
#X connect 7 0 27 0;
#X connect 9 0 8 0;
#X connect 9 1 1 1;
#X connect 10 0 21 0;
#X connect 10 0 45 0;
#X connect 10 0 48 0;
#X connect 11 0 12 0;
#X connect 12 0 16 0;
#X connect 12 0 33 0;
#X connect 13 0 14 0;
#X connect 14 0 15 0;
#X connect 15 0 20 0;
#X connect 16 0 17 0;
#X connect 19 0 14 0;
#X connect 20 0 16 1;
#X connect 20 0 40 1;
#X connect 22 0 6 0;
#X connect 23 0 24 0;
#X connect 24 0 25 0;
#X connect 25 0 27 0;
#X connect 26 0 23 0;
#X connect 28 0 29 0;
#X connect 29 0 30 0;
#X connect 30 0 31 0;
#X connect 31 0 33 1;
#X connect 31 0 38 1;
#X connect 33 0 34 0;
#X connect 34 0 35 0;
#X connect 35 0 36 0;
#X connect 36 0 37 0;
#X connect 37 0 38 0;
#X connect 38 0 39 0;
#X connect 39 0 40 0;
#X connect 40 0 41 0;
#X connect 41 0 18 0;
#X connect 43 0 27 0;
#X connect 43 1 5 0;
#X connect 43 2 11 0;
#X connect 44 0 22 0;
#X connect 44 2 7 0;
#X connect 44 3 49 0;
#X connect 46 0 3 0;
#X connect 46 1 4 0;
#X connect 48 0 49 1;
#X connect 49 0 11 1;
#X coords 0 398 1 397 72 30 0;
#X restore 109 314 pd rec;
#X text 166 301 start recording on next beat 0 \, stop on next beat
0, f 16;
#X obj 41 25 r globalrec;
#X text 116 25 on pedal;
#X msg 69 93 0;
#X obj 41 48 route stop;
#X obj 69 116 tgl 15 0 empty empty empty 17 7 0 10 -262144 -1 -1 0
1;
#X msg 98 74 1;
#X obj 109 359 tgl 15 0 empty empty empty 17 7 0 10 -262144 -1 -1 0
1;
#X obj 142 235 list;
#X obj 142 258 list trim;
#X obj 142 114 r beat0;
#X obj 142 162 spigot;
#X floatatom 175 138 1 0 0 0 - - -;
#X obj 142 205 spigot;
#X floatatom 175 182 1 0 0 0 - - -;
#X obj 211 98 route rec stop;
#X obj 211 49 t a a, f 18;
#X msg 212 122 1;
#X msg 254 146 0;
#X obj 211 74 route rec;
#X obj 211 26 r \$0loc_rec;
#X obj 251 123 t b b;
#X msg 284 147 rec stop;
#X obj 109 382 select 1;
#X msg 109 405 0;
#X obj 41 72 t b b;
#X msg 41 139 rec stop;
#X obj 142 283 route rec;
#X obj 47 385 outlet;
#X obj 34 255 inlet~;
#X obj 108 336 change;
#X obj 213 260 spigot;
#X floatatom 247 235 1 0 0 0 - - -;
#X msg 352 316 \; track\$1 const 0, f 7;
#X obj 352 289 f \$0;
#X obj 351 268 bng 15 250 50 0 empty empty empty 17 7 0 10 -262144
-1 -1;
#X obj 313 201 tgl 15 0 empty empty empty 17 7 0 10 -262144 -1 -1 0
1;
#X obj 332 201 tgl 15 0 empty empty empty 17 7 0 10 -262144 -1 -1 1
1;
#X obj 313 221 +;
#X obj 351 243 == 2;
#X floatatom 313 244 5 0 0 0 - - -;
#X connect 0 0 31 0;
#X connect 2 0 5 0;
#X connect 4 0 6 0;
#X connect 5 0 26 0;
#X connect 5 1 7 0;
#X connect 6 0 13 0;
#X connect 6 0 37 0;
#X connect 7 0 6 0;
#X connect 8 0 24 0;
#X connect 8 0 29 0;
#X connect 8 0 33 0;
#X connect 9 0 10 0;
#X connect 10 0 28 0;
#X connect 11 0 12 0;
#X connect 12 0 14 0;
#X connect 13 0 12 1;
#X connect 14 0 9 0;
#X connect 15 0 14 1;
#X connect 16 0 18 0;
#X connect 16 1 22 0;
#X connect 17 0 20 0;
#X connect 17 1 9 1;
#X connect 18 0 15 0;
#X connect 18 0 38 0;
#X connect 19 0 15 0;
#X connect 19 0 38 0;
#X connect 20 0 16 0;
#X connect 21 0 17 0;
#X connect 22 0 19 0;
#X connect 22 1 23 0;
#X connect 23 0 32 0;
#X connect 24 0 25 0;
#X connect 25 0 13 0;
#X connect 26 0 27 0;
#X connect 26 1 4 0;
#X connect 27 0 32 0;
#X connect 28 0 0 1;
#X connect 30 0 0 0;
#X connect 31 0 8 0;
#X connect 32 0 28 0;
#X connect 33 0 32 1;
#X connect 35 0 34 0;
#X connect 36 0 35 0;
#X connect 37 0 39 0;
#X connect 38 0 39 1;
#X connect 39 0 40 0;
#X connect 39 0 41 0;
#X connect 40 0 36 0;
#X coords 0 -1 1 1 86 19 1 40 357;
#X restore 30 182 pd trig_rec;
#N canvas 304 71 395 404 trig_play 0;
#N canvas 67 60 721 399 play 0;
#X obj 188 354 *~;
#X obj 148 20 inlet;
#X obj 150 70 bng 15 250 50 0 empty empty empty 17 7 0 10 -262144 -1
-1;
#X obj 328 68 bng 15 250 50 0 empty empty empty 17 7 0 10 -262144 -1
-1;
#X msg 226 144 1;
#X msg 328 135 0;
#X msg 381 191 stop;
#X obj 324 368 switch~;
#X obj 325 317 dsp_switch_vanilla;
#X obj 462 336 tgl 15 0 empty empty playing -43 7 0 10 -262144 -258113
-1 0 1;
#X obj 13 37 r \$0-length;
#X floatatom 13 61 7 0 0 0 - - -;
#X obj 189 379 outlet~;
#X obj 188 151 f;
#N canvas 112 212 205 234 floor 0;
#X obj 36 11 inlet;
#X floatatom 36 136 5 0 0 0 - - -;
#X obj 36 158 * \$1;
#X floatatom 36 181 5 0 0 0 - - -;
#X obj 36 203 outlet;
#X obj 36 113 div;
#X obj 94 14 loadbang;
#X obj 94 85 t f f;
#X floatatom 94 62 5 0 0 0 - - -;
#X obj 160 15 bng 15 250 50 0 empty empty empty 17 7 0 10 -262144 -1
-1;
#X obj 94 39 f 64;
#X connect 0 0 5 0;
#X connect 1 0 2 0;
#X connect 2 0 3 0;
#X connect 3 0 4 0;
#X connect 5 0 1 0;
#X connect 6 0 10 0;
#X connect 7 0 5 1;
#X connect 7 1 2 1;
#X connect 8 0 7 0;
#X connect 9 0 10 0;
#X connect 10 0 8 0;
#X restore 13 83 pd floor;
#X text 69 54 round down to the nearest block (64 samples), f 10;
#X obj 239 69 bng 15 250 50 0 empty empty empty 17 7 0 10 -262144 -1
-1;
#X obj 555 266 spigot;
#X msg 188 174 0 \$1;
#X obj 487 118 f 0;
#X text 646 192 loop?;
#X obj 239 89 t b b;
#X obj 266 117 f 1;
#X obj 554 197 bng 15 250 50 0 empty empty empty 17 7 0 10 -262144
-1 -1;
#X floatatom 607 192 5 0 0 0 - - -;
#X obj 555 288 bng 15 250 50 0 empty empty empty 17 7 0 10 -262144
-1 -1;
#X obj 599 265 spigot;
#X obj 632 241 == 0;
#X obj 607 216 t f f;
#X obj 601 288 bng 15 250 50 0 empty empty empty 17 7 0 10 -262144
-1 -1;
#X obj 436 363 outlet;
#X obj 150 44 route play loop stop, f 45;
#X obj 582 335 s loopstart;
#X obj 554 217 t b b b;
#X obj 19 126 loadbang;
#X obj 19 149 f \$0;
#X floatatom 19 172 5 0 0 0 - - -;
#X msg 19 194 set track\$1;
#X obj 188 243 tabplay~;
#X msg 434 189 0 10;
#X obj 209 304 line~;
#X obj 187 328 *~;
#X msg 151 247 1 10;
#X obj 151 119 t b b b, f 13;
#X obj 325 291 t f f;
#X obj 210 268 s \$0fin;
#X obj 554 173 r \$0fin;
#X obj 555 363 s \$0restart;
#X obj 160 87 r \$0restart;
#X obj 601 309 s \$0stop;
#X obj 338 108 r \$0stop;
#X obj 328 88 t b b b b, f 27;
#X obj 226 167 s \$0switch;
#X obj 328 163 s \$0switch;
#X obj 325 263 r \$0switch;
#X obj 555 307 t b b;
#X text 528 266 yes;
#X text 644 266 no;
#X obj 266 140 s \$0loop;
#X obj 487 143 s \$0loop;
#X obj 607 160 r \$0loop;
#X text 130 302 ramp to avoid clicks, f 8;
#X connect 0 0 12 0;
#X connect 1 0 31 0;
#X connect 2 0 43 0;
#X connect 3 0 51 0;
#X connect 4 0 52 0;
#X connect 5 0 53 0;
#X connect 6 0 38 0;
#X connect 8 0 7 0;
#X connect 8 1 0 1;
#X connect 9 0 30 0;
#X connect 10 0 11 0;
#X connect 11 0 14 0;
#X connect 13 0 18 0;
#X connect 14 0 13 1;
#X connect 16 0 21 0;
#X connect 17 0 25 0;
#X connect 18 0 38 0;
#X connect 19 0 59 0;
#X connect 21 0 43 0;
#X connect 21 1 22 0;
#X connect 22 0 58 0;
#X connect 23 0 33 0;
#X connect 24 0 28 0;
#X connect 25 0 55 0;
#X connect 26 0 29 0;
#X connect 27 0 26 1;
#X connect 28 0 17 1;
#X connect 28 1 27 0;
#X connect 29 0 49 0;
#X connect 31 0 2 0;
#X connect 31 1 16 0;
#X connect 31 2 3 0;
#X connect 33 0 17 0;
#X connect 33 1 26 0;
#X connect 34 0 35 0;
#X connect 35 0 36 0;
#X connect 36 0 37 0;
#X connect 37 0 38 0;
#X connect 38 0 41 0;
#X connect 38 1 45 0;
#X connect 39 0 40 0;
#X connect 40 0 41 1;
#X connect 41 0 0 0;
#X connect 42 0 40 0;
#X connect 43 0 42 0;
#X connect 43 1 13 0;
#X connect 43 2 4 0;
#X connect 44 0 8 0;
#X connect 44 1 9 0;
#X connect 46 0 23 0;
#X connect 48 0 43 0;
#X connect 50 0 5 0;
#X connect 51 0 5 0;
#X connect 51 1 6 0;
#X connect 51 2 39 0;
#X connect 51 3 19 0;
#X connect 54 0 44 0;
#X connect 55 0 47 0;
#X connect 55 1 32 0;
#X connect 60 0 24 0;
#X coords 0 399 1 398 60 30 0;
#X restore 120 308 pd play;
#X text 187 286 start playing on next beat 0 \, loop if needed, f
21;
#X obj 30 17 r globalplay;
#X msg 55 91 0;
#X obj 29 46 route stop;
#X obj 55 115 tgl 15 0 empty empty empty 17 7 0 10 -262144 -1 -1 1
1;
#X msg 85 70 1;
#X obj 158 350 tgl 15 0 empty empty empty 17 7 0 10 -262144 -1 -1 0
1;
#X obj 121 230 list;
#X obj 120 253 list trim;
#X obj 120 109 r beat0;
#X obj 120 157 spigot;
#X floatatom 153 134 1 0 0 0 - - -;
#X obj 120 200 spigot;
#X floatatom 153 177 1 0 0 0 - - -;
#X obj 188 43 t a a, f 18;
#X msg 188 146 1;
#X msg 262 143 0;
#X obj 188 20 r \$0loc_play;
#X obj 188 89 route play loop stop;
#X obj 188 66 route play;
#X msg 281 168 play stop;
#X obj 159 372 select 1;
#X msg 159 395 0;
#X obj 29 70 t b b;
#X msg 29 164 play stop;
#X obj 120 283 route play;
#X obj 104 395 outlet~;
#X obj 188 112 t b b;
#X obj 226 112 t b b;
#X msg 231 145 1;
#X obj 262 118 t b b b;
#X msg 301 144 0;
#X obj 104 110 bng 15 250 50 0 empty empty empty 17 7 0 10 -262144
-1 -1;
#X obj 102 160 bng 15 250 50 0 empty empty empty 17 7 0 10 -262144
-1 -1;
#X obj 103 201 bng 15 250 50 0 empty empty empty 17 7 0 10 -262144
-1 -1;
#X obj 252 396 outlet;
#X obj 252 374 change;
#X connect 0 0 27 0;
#X connect 0 1 7 0;
#X connect 2 0 4 0;
#X connect 3 0 5 0;
#X connect 4 0 24 0;
#X connect 4 1 6 0;
#X connect 5 0 12 0;
#X connect 6 0 5 0;
#X connect 7 0 22 0;
#X connect 7 0 37 0;
#X connect 8 0 9 0;
#X connect 9 0 26 0;
#X connect 10 0 11 0;
#X connect 10 0 33 0;
#X connect 11 0 13 0;
#X connect 11 0 34 0;
#X connect 12 0 11 1;
#X connect 13 0 8 0;
#X connect 13 0 35 0;
#X connect 14 0 13 1;
#X connect 15 0 20 0;
#X connect 15 1 8 1;
#X connect 16 0 14 0;
#X connect 17 0 14 0;
#X connect 18 0 15 0;
#X connect 19 0 28 0;
#X connect 19 1 29 0;
#X connect 19 2 31 0;
#X connect 20 0 19 0;
#X connect 21 0 26 0;
#X connect 22 0 23 0;
#X connect 23 0 14 0;
#X connect 24 0 25 0;
#X connect 24 1 3 0;
#X connect 25 0 26 0;
#X connect 26 0 0 0;
#X connect 28 0 16 0;
#X connect 29 0 16 0;
#X connect 29 1 30 0;
#X connect 31 0 17 0;
#X connect 31 1 21 0;
#X connect 31 2 32 0;
#X connect 37 0 36 0;
#X coords 0 -1 1 1 95 19 1 80 348;
#X restore 130 181 pd trig_play;
#N canvas 72 63 696 343 trigger3 0;
#X obj 93 75 inlet;
#X text 21 74 A \, P \, L \, -;
#X msg 94 192 rec rec;
#X msg 239 201 rec stop;
#X msg 296 178 play play;
#X msg 589 174 play stop;
#X msg 441 176 play loop;
#X obj 94 124 select A P L, f 73;
#X obj 93 102 symbol;
#X msg 384 177 rec stop;
#X msg 529 201 rec stop;
#X msg 157 171 play stop;
#X obj 94 215 s \$0loc_rec;
#X obj 254 224 s \$0loc_rec;
#X obj 384 222 s \$0loc_rec;
#X obj 589 201 s \$0loc_play;
#X obj 441 201 s \$0loc_play;
#X obj 529 224 s \$0loc_rec;
#X obj 296 201 s \$0loc_play;
#X obj 157 194 s \$0loc_play;
#X obj 94 147 t b b, f 11;
#X obj 529 148 t b b, f 11;
#X obj 384 149 t b b, f 10;
#X obj 239 150 t b b, f 10;
#N canvas 71 174 450 300 input_not_muted 0;
#X obj 27 45 unpack f f;
#X obj 27 92 mod 8;
#X floatatom 27 115 5 0 0 0 - - -;
#X msg 37 69 64;
#X obj 27 137 == 0;
#X obj 27 160 select 1;
#X obj 69 187 f;
#X obj 69 215 tgl 15 0 empty empty empty 17 7 0 10 -262144 -1 -1 0
1;
#X obj 69 235 outlet;
#X obj 27 22 r apc_leds_m1;
#X connect 0 0 1 0;
#X connect 0 1 6 1;
#X connect 1 0 2 0;
#X connect 2 0 4 0;
#X connect 3 0 1 0;
#X connect 4 0 5 0;
#X connect 5 0 6 0;
#X connect 6 0 7 0;
#X connect 7 0 8 0;
#X connect 9 0 0 0;
#X restore 417 25 pd input_not_muted;
#X obj 417 49 tgl 15 0 empty empty empty 17 7 0 10 -262144 -1 -1 0
1;
#X text 532 21 use this to define whether the butto is allowed to send
A \, P \, L, f 19;
#X symbolatom 123 316 4 0 0 0 rec - -;
#X msg 104 293 symbol \$2;
#X obj 104 267 pack s s;
#X obj 103 238 r \$0loc_rec;
#X symbolatom 123 334 4 0 0 0 play - -;
#X msg 184 293 symbol \$2;
#X obj 184 267 pack s s;
#X obj 183 238 r \$0loc_play;
#X connect 0 0 8 0;
#X connect 2 0 12 0;
#X connect 3 0 13 0;
#X connect 4 0 18 0;
#X connect 5 0 15 0;
#X connect 6 0 16 0;
#X connect 7 0 20 0;
#X connect 7 1 23 0;
#X connect 7 2 22 0;
#X connect 7 3 21 0;
#X connect 8 0 7 0;
#X connect 9 0 14 0;
#X connect 10 0 17 0;
#X connect 11 0 19 0;
#X connect 20 0 2 0;
#X connect 20 1 11 0;
#X connect 21 0 10 0;
#X connect 21 1 5 0;
#X connect 22 0 9 0;
#X connect 22 1 6 0;
#X connect 23 0 3 0;
#X connect 23 1 4 0;
#X connect 24 0 25 0;
#X connect 28 0 27 0;
#X connect 29 0 28 0;
#X connect 30 0 29 0;
#X connect 32 0 31 0;
#X connect 33 0 32 0;
#X connect 34 0 33 0;
#X coords 0 -1 1 1 55 37 2 95 315;
#X restore 61 29 pd trigger3;
#X obj 209 209 select 0;
#X msg 209 232 -;
#X obj 70 208 sel 1 0;
#X floatatom 294 88 5 0 0 0 - - -;
#X obj 209 252 bng 15 250 50 0 empty empty empty 17 7 0 10 -262144
-1 -1;
#X connect 1 0 18 0;
#X connect 4 0 20 0;
#X connect 6 0 9 0;
#X connect 8 0 9 0;
#X connect 9 0 10 0;
#X connect 9 0 24 0;
#X connect 10 0 7 0;
#X connect 11 0 12 0;
#X connect 12 0 16 0;
#X connect 14 0 13 0;
#X connect 16 0 17 0;
#X connect 18 0 23 0;
#X connect 19 0 2 0;
#X connect 19 1 21 0;
#X connect 21 0 22 0;
#X connect 22 0 13 0;
#X connect 22 0 25 0;
#X connect 23 0 14 0;
#X connect 23 1 22 0;
#X coords 0 -1 1 1 57 39 2 60 28;
