#N canvas 92 119 589 327 10;
#N canvas 0 50 450 300 arraysize_samples 0;
#X floatatom 73 51 3 0 0 1 sec - -;
#X floatatom 31 51 3 0 0 1 min - -;
#X floatatom 31 72 11 0 0 1 samples - -;
#X obj 216 52 loadbang;
#X obj 216 75 samplerate~;
#X floatatom 216 98 5 0 0 0 - - -;
#X obj 78 122 * 60;
#X obj 78 151 +;
#X floatatom 78 174 5 0 0 0 - - -;
#X obj 78 196 *;
#X floatatom 78 219 5 0 0 0 - - -;
#X obj 216 25 bng 15 250 50 0 empty empty empty 17 7 0 10 -262144 -1
-1;
#X connect 0 0 7 1;
#X connect 1 0 6 0;
#X connect 3 0 4 0;
#X connect 4 0 5 0;
#X connect 5 0 9 1;
#X connect 6 0 7 0;
#X connect 7 0 8 0;
#X connect 8 0 9 0;
#X connect 9 0 10 0;
#X connect 10 0 2 0;
#X connect 11 0 4 0;
#X coords 0 -1 1 1 120 60 1 30 30;
#X restore 287 203 pd arraysize_samples;
#X obj 93 124 bng 15 250 50 0 empty empty rec_start 17 7 0 10 -262144
-1 -1;
#X obj 93 142 bng 15 250 50 0 empty empty rec_stop 17 7 0 10 -262144
-1 -1;
#X obj 174 106 bng 15 250 50 0 empty empty play_start 17 7 0 10 -262144
-1 -1;
#X obj 174 142 bng 15 250 50 0 empty empty play_stop 17 7 0 10 -262144
-1 -1;
#N canvas 31 62 674 398 rec 0;
#X obj 43 23 inlet~;
#X obj 45 313 *~;
#X obj 137 23 inlet;
#X obj 139 157 bng 15 250 50 0 empty empty empty 17 7 0 10 -262144
-1 -1;
#X obj 203 71 bng 15 250 50 0 empty empty empty 17 7 0 10 -262144 -1
-1;
#X msg 157 207 1;
#X msg 190 207 0;
#X msg 257 150 stop;
#X obj 157 277 switch~;
#X obj 157 232 dsp_switch_vanilla;
#X obj 259 294 tgl 15 0 empty empty recording -57 7 0 10 -262144 -258113
-1 0 1;
#X obj 379 145 timer;
#X floatatom 382 169 5 0 0 0 - - -;
#X obj 369 29 loadbang;
#X obj 369 52 samplerate~;
#X floatatom 369 75 5 0 0 0 - - -;
#X obj 382 191 *;
#X floatatom 382 214 8 0 0 0 - - -;
#X obj 378 272 s \$0-length;
#X obj 372 9 bng 15 250 50 0 empty empty empty 17 7 0 10 -262144 -1
-1;
#X obj 369 97 / 1000;
#X obj 261 314 outlet;
#X obj 203 122 delay 15;
#X obj 16 140 f \$0;
#X floatatom 16 163 5 0 0 0 - - -;
#X msg 16 185 set track\$1;
#X obj 16 100 loadbang;
#X obj 45 342 tabwrite~;
#X obj 471 18 r beatnum8;
#X floatatom 471 63 5 0 0 0 - - -;
#X obj 472 106 / 4;
#X floatatom 472 129 5 0 0 0 - - -;
#X obj 471 85 mod 4;
#X obj 553 110 r globaltempo_ms;
#X floatatom 553 133 5 0 0 0 - - -;
#X obj 553 155 * 4;
#X floatatom 553 178 5 0 0 0 - - -;
#X text 591 174 nombre de ms dans une mesure, f 12;
#X obj 509 206 /;
#X floatatom 509 229 5 0 0 0 - - -;
#X obj 509 251 + 0.49999;
#X obj 509 274 int;
#X floatatom 509 297 5 0 0 0 - - -;
#X obj 509 319 *;
#X floatatom 509 346 5 0 0 0 - - -;
#X obj 509 368 *;
#X floatatom 509 391 7 0 0 0 - - -;
#X text 561 308 round to the closest bar, f 10;
#X obj 139 176 t b b b b;
#X msg 286 255 \; track\$1 const 0, f 7;
#X obj 286 228 f \$0;
#X obj 285 207 bng 15 250 50 0 empty empty empty 17 7 0 10 -262144
-1 -1;
#X msg 139 73 1;
#X obj 140 112 f;
#X obj 472 151 sel 0;
#X msg 171 73 0;
#X obj 139 133 sel 1;
#X obj 203 91 t b b b b, f 14;
#X floatatom 152 95 5 0 0 0 - - -;
#X obj 471 41 spigot;
#X obj 472 174 t b b;
#X obj 321 313 == 0;
#X obj 98 51 print;
#X obj 137 47 route rec stop, f 22;
#X text 127 343 record also the ramp from the switch?;
#X connect 0 0 1 0;
#X connect 1 0 27 0;
#X connect 2 0 62 0;
#X connect 2 0 63 0;
#X connect 3 0 48 0;
#X connect 4 0 57 0;
#X connect 5 0 9 0;
#X connect 5 0 10 0;
#X connect 6 0 9 0;
#X connect 6 0 10 0;
#X connect 7 0 27 0;
#X connect 9 0 8 0;
#X connect 9 1 1 1;
#X connect 10 0 21 0;
#X connect 10 0 61 0;
#X connect 11 0 12 0;
#X connect 12 0 16 0;
#X connect 12 0 38 0;
#X connect 13 0 14 0;
#X connect 14 0 15 0;
#X connect 15 0 20 0;
#X connect 16 0 17 0;
#X connect 19 0 14 0;
#X connect 20 0 16 1;
#X connect 20 0 45 1;
#X connect 22 0 6 0;
#X connect 23 0 24 0;
#X connect 24 0 25 0;
#X connect 25 0 27 0;
#X connect 26 0 23 0;
#X connect 28 0 59 0;
#X connect 29 0 32 0;
#X connect 30 0 31 0;
#X connect 31 0 54 0;
#X connect 32 0 30 0;
#X connect 33 0 34 0;
#X connect 34 0 35 0;
#X connect 35 0 36 0;
#X connect 36 0 38 1;
#X connect 36 0 43 1;
#X connect 38 0 39 0;
#X connect 39 0 40 0;
#X connect 40 0 41 0;
#X connect 41 0 42 0;
#X connect 42 0 43 0;
#X connect 43 0 44 0;
#X connect 44 0 45 0;
#X connect 45 0 46 0;
#X connect 46 0 18 0;
#X connect 48 0 27 0;
#X connect 48 1 5 0;
#X connect 48 2 11 0;
#X connect 48 3 51 0;
#X connect 50 0 49 0;
#X connect 51 0 50 0;
#X connect 52 0 58 0;
#X connect 53 0 56 0;
#X connect 54 0 60 0;
#X connect 55 0 58 0;
#X connect 57 0 22 0;
#X connect 57 1 11 1;
#X connect 57 2 7 0;
#X connect 57 3 55 0;
#X connect 58 0 53 1;
#X connect 59 0 29 0;
#X connect 60 0 53 0;
#X connect 61 0 59 1;
#X connect 63 0 3 0;
#X connect 63 1 4 0;
#X coords 0 398 1 397 72 30 0;
#X restore 47 186 pd rec;
#X msg 110 163 stop;
#X obj 46 150 inlet~;
#N canvas 4 54 721 399 play 0;
#X obj 188 354 *~;
#X obj 148 20 inlet;
#X obj 150 70 bng 15 250 50 0 empty empty empty 17 7 0 10 -262144 -1
-1;
#X obj 328 68 bng 15 250 50 0 empty empty empty 17 7 0 10 -262144 -1
-1;
#X msg 226 144 1;
#X msg 328 135 0;
#X msg 381 191 stop;
#X obj 324 368 switch~;
#X obj 325 317 dsp_switch_vanilla;
#X obj 462 336 tgl 15 0 empty empty playing -43 7 0 10 -262144 -258113
-1 0 1;
#X obj 13 37 r \$0-length;
#X floatatom 13 61 7 0 0 0 - - -;
#X obj 189 379 outlet~;
#X obj 188 151 f;
#N canvas 112 212 205 234 floor 0;
#X obj 36 11 inlet;
#X floatatom 36 136 5 0 0 0 - - -;
#X obj 36 158 * \$1;
#X floatatom 36 181 5 0 0 0 - - -;
#X obj 36 203 outlet;
#X obj 36 113 div;
#X obj 94 14 loadbang;
#X obj 94 85 t f f;
#X floatatom 94 62 5 0 0 0 - - -;
#X obj 160 15 bng 15 250 50 0 empty empty empty 17 7 0 10 -262144 -1
-1;
#X obj 94 39 f 64;
#X connect 0 0 5 0;
#X connect 1 0 2 0;
#X connect 2 0 3 0;
#X connect 3 0 4 0;
#X connect 5 0 1 0;
#X connect 6 0 10 0;
#X connect 7 0 5 1;
#X connect 7 1 2 1;
#X connect 8 0 7 0;
#X connect 9 0 10 0;
#X connect 10 0 8 0;
#X restore 13 83 pd floor;
#X text 69 54 round down to the nearest block (64 samples), f 10;
#X obj 239 69 bng 15 250 50 0 empty empty empty 17 7 0 10 -262144 -1
-1;
#X obj 555 266 spigot;
#X msg 188 174 0 \$1;
#X obj 487 118 f 0;
#X text 646 192 loop?;
#X obj 239 89 t b b;
#X obj 266 117 f 1;
#X obj 554 197 bng 15 250 50 0 empty empty empty 17 7 0 10 -262144
-1 -1;
#X floatatom 607 192 5 0 0 0 - - -;
#X obj 555 288 bng 15 250 50 0 empty empty empty 17 7 0 10 -262144
-1 -1;
#X obj 599 265 spigot;
#X obj 632 241 == 0;
#X obj 607 216 t f f;
#X obj 601 288 bng 15 250 50 0 empty empty empty 17 7 0 10 -262144
-1 -1;
#X obj 436 363 outlet;
#X obj 150 44 route play loop stop, f 45;
#X obj 582 335 s loopstart;
#X obj 554 217 t b b b;
#X obj 19 126 loadbang;
#X obj 19 149 f \$0;
#X floatatom 19 172 5 0 0 0 - - -;
#X msg 19 194 set track\$1;
#X obj 188 243 tabplay~;
#X msg 434 189 0 10;
#X obj 209 304 line~;
#X obj 187 328 *~;
#X msg 151 247 1 10;
#X obj 151 119 t b b b, f 13;
#X obj 325 291 t f f;
#X obj 210 268 s \$0fin;
#X obj 554 173 r \$0fin;
#X obj 555 363 s \$0restart;
#X obj 160 87 r \$0restart;
#X obj 601 309 s \$0stop;
#X obj 338 108 r \$0stop;
#X obj 328 88 t b b b b, f 27;
#X obj 226 167 s \$0switch;
#X obj 328 163 s \$0switch;
#X obj 325 263 r \$0switch;
#X obj 555 307 t b b;
#X text 528 266 yes;
#X text 644 266 no;
#X obj 266 140 s \$0loop;
#X obj 487 143 s \$0loop;
#X obj 607 160 r \$0loop;
#X text 130 302 ramp to avoid clicks, f 8;
#X connect 0 0 12 0;
#X connect 1 0 31 0;
#X connect 2 0 43 0;
#X connect 3 0 51 0;
#X connect 4 0 52 0;
#X connect 5 0 53 0;
#X connect 6 0 38 0;
#X connect 8 0 7 0;
#X connect 8 1 0 1;
#X connect 9 0 30 0;
#X connect 10 0 11 0;
#X connect 11 0 14 0;
#X connect 13 0 18 0;
#X connect 14 0 13 1;
#X connect 16 0 21 0;
#X connect 17 0 25 0;
#X connect 18 0 38 0;
#X connect 19 0 59 0;
#X connect 21 0 43 0;
#X connect 21 1 22 0;
#X connect 22 0 58 0;
#X connect 23 0 33 0;
#X connect 24 0 28 0;
#X connect 25 0 55 0;
#X connect 26 0 29 0;
#X connect 27 0 26 1;
#X connect 28 0 17 1;
#X connect 28 1 27 0;
#X connect 29 0 49 0;
#X connect 31 0 2 0;
#X connect 31 1 16 0;
#X connect 31 2 3 0;
#X connect 33 0 17 0;
#X connect 33 1 26 0;
#X connect 34 0 35 0;
#X connect 35 0 36 0;
#X connect 36 0 37 0;
#X connect 37 0 38 0;
#X connect 38 0 41 0;
#X connect 38 1 45 0;
#X connect 39 0 40 0;
#X connect 40 0 41 1;
#X connect 41 0 0 0;
#X connect 42 0 40 0;
#X connect 43 0 42 0;
#X connect 43 1 13 0;
#X connect 43 2 4 0;
#X connect 44 0 8 0;
#X connect 44 1 9 0;
#X connect 46 0 23 0;
#X connect 48 0 43 0;
#X connect 50 0 5 0;
#X connect 51 0 5 0;
#X connect 51 1 6 0;
#X connect 51 2 39 0;
#X connect 51 3 19 0;
#X connect 54 0 44 0;
#X connect 55 0 47 0;
#X connect 55 1 32 0;
#X connect 60 0 24 0;
#X coords 0 399 1 398 60 30 0;
#X restore 159 189 pd play;
#X obj 174 124 bng 15 250 50 0 empty empty play_loop 17 7 0 10 -262144
-1 -1;
#X msg 212 161 loop;
#X msg 174 161 stop;
#X obj 158 290 outlet~;
#X obj 84 217 tgl 15 0 empty empty recording -57 7 0 10 -262144 -258113
-1 0 1;
#X obj 200 211 tgl 15 0 empty empty playing -43 7 0 10 -262144 -258113
-1 0 1;
#X text 330 170 if armed \, pass message through, f 15;
#X obj 99 44 route rec play;
#X obj 6 5 inlet;
#X obj 30 30 triggers;
#X obj 291 35 loadbang;
#X obj 298 123 outlet;
#X obj 315 9 bng 15 250 50 0 empty empty empty 17 7 0 10 -262144 -1
-1;
#X obj 294 65 f \$0;
#X msg 298 92 symbol track\$1;
#X obj 421 22 r clear_all;
#X obj 421 45 bng 15 250 50 0 empty empty empty 17 7 0 10 -262144 -1
-1;
#X obj 448 276 outlet;
#X obj 84 237 sel 1;
#X msg 84 260 R;
#X obj 257 277 array define track\$0 768000;
#X obj 421 65 f \$0;
#X msg 421 88 \; track\$1 const 0;
#N canvas 363 60 491 386 trigger2 0;
#X obj 93 25 inlet;
#X text 207 8 recording or playing, f 9;
#X obj 162 26 inlet;
#X text 21 24 A \, P \, L \, -;
#X obj 61 146 spigot;
#X obj 24 69 mod 4;
#X floatatom 24 92 5 0 0 0 - - -;
#X obj 24 114 select 0;
#X msg 163 142 rec rec;
#X msg 179 172 rec stop;
#X msg 247 147 play play;
#X msg 277 198 play stop;
#X msg 260 173 play loop;
#X obj 163 102 t b b;
#X obj 61 217 list;
#X obj 119 218 list;
#X obj 61 169 t b b;
#X obj 222 103 t b b;
#X obj 281 104 t b b;
#X obj 340 102 t b b;
#X obj 163 79 select A P L, f 30;
#X obj 61 265 outlet;
#X obj 119 261 outlet;
#X obj 24 46 r beatnum8;
#X obj 94 99 == 0;
#X floatatom 94 122 5 0 0 0 - - -;
#X obj 61 196 bng 15 250 50 0 empty empty empty 17 7 0 10 -262144 -1
-1;
#X obj 61 240 list trim;
#X obj 119 240 list trim;
#X obj 162 57 symbol;
#X obj 313 20 loadbang;
#X msg 313 43 0;
#X text 73 312 need different spigot whether recordig or playig!;
#X text 72 335 + stop rec i the end of the;
#X connect 0 0 29 0;
#X connect 2 0 24 0;
#X connect 4 0 16 0;
#X connect 5 0 6 0;
#X connect 6 0 7 0;
#X connect 7 0 4 0;
#X connect 8 0 14 1;
#X connect 9 0 14 1;
#X connect 10 0 15 1;
#X connect 11 0 15 1;
#X connect 12 0 15 1;
#X connect 13 0 8 0;
#X connect 13 1 11 0;
#X connect 14 0 27 0;
#X connect 15 0 28 0;
#X connect 16 0 26 0;
#X connect 16 1 15 0;
#X connect 17 0 9 0;
#X connect 17 1 10 0;
#X connect 18 0 9 0;
#X connect 18 1 12 0;
#X connect 19 0 9 0;
#X connect 19 1 11 0;
#X connect 20 0 13 0;
#X connect 20 1 17 0;
#X connect 20 2 18 0;
#X connect 20 3 19 0;
#X connect 23 0 5 0;
#X connect 24 0 25 0;
#X connect 25 0 4 1;
#X connect 26 0 14 0;
#X connect 27 0 21 0;
#X connect 28 0 22 0;
#X connect 29 0 20 0;
#X connect 30 0 31 0;
#X connect 31 0 24 0;
#X restore 84 13 pd trigger2;
#N canvas 343 81 450 300 rec_or_play 0;
#X obj 69 57 inlet;
#X obj 154 59 inlet;
#X obj 154 82 t b f;
#X floatatom 102 162 5 0 0 0 - - -;
#X obj 102 139 max;
#X obj 102 184 change;
#X obj 102 207 outlet;
#X floatatom 102 237 5 0 0 0 - - -;
#X msg 214 98 0;
#X obj 76 110 f;
#X obj 69 80 t b f;
#X msg 207 130 1;
#X connect 0 0 10 0;
#X connect 1 0 2 0;
#X connect 2 0 9 0;
#X connect 2 1 4 1;
#X connect 3 0 5 0;
#X connect 4 0 3 0;
#X connect 5 0 6 0;
#X connect 5 0 7 0;
#X connect 8 0 9 1;
#X connect 9 0 4 0;
#X connect 10 0 9 0;
#X connect 10 1 9 1;
#X connect 11 0 2 0;
#X restore 141 242 pd rec_or_play;
#X connect 1 0 5 1;
#X connect 2 0 6 0;
#X connect 3 0 8 0;
#X connect 4 0 11 0;
#X connect 5 0 13 0;
#X connect 6 0 5 1;
#X connect 7 0 5 0;
#X connect 8 0 12 0;
#X connect 8 1 14 0;
#X connect 9 0 10 0;
#X connect 10 0 8 0;
#X connect 11 0 8 0;
#X connect 13 0 27 0;
#X connect 13 0 33 0;
#X connect 14 0 33 1;
#X connect 16 0 5 1;
#X connect 16 1 8 0;
#X connect 17 0 32 0;
#X connect 18 1 16 0;
#X connect 19 0 22 0;
#X connect 21 0 22 0;
#X connect 22 0 23 0;
#X connect 23 0 20 0;
#X connect 24 0 25 0;
#X connect 25 0 30 0;
#X connect 27 0 28 0;
#X connect 28 0 26 0;
#X connect 30 0 31 0;
#X connect 32 0 16 0;
#X connect 32 1 16 0;
#X connect 33 0 32 1;
#X coords 0 -1 1 1 15 45 2 30 30;
