#N canvas 4 77 589 327 10;
#X obj 258 281 array define track\$0 768000;
#N canvas 0 50 450 300 arraysize_samples 0;
#X floatatom 73 51 3 0 0 1 sec - -;
#X floatatom 31 51 3 0 0 1 min - -;
#X floatatom 31 72 11 0 0 1 samples - -;
#X obj 216 52 loadbang;
#X obj 216 75 samplerate~;
#X floatatom 216 98 5 0 0 0 - - -;
#X obj 78 122 * 60;
#X obj 78 151 +;
#X floatatom 78 174 5 0 0 0 - - -;
#X obj 78 196 *;
#X floatatom 78 219 5 0 0 0 - - -;
#X obj 216 25 bng 15 250 50 0 empty empty empty 17 7 0 10 -262144 -1
-1;
#X connect 0 0 7 1;
#X connect 1 0 6 0;
#X connect 3 0 4 0;
#X connect 4 0 5 0;
#X connect 5 0 9 1;
#X connect 6 0 7 0;
#X connect 7 0 8 0;
#X connect 8 0 9 0;
#X connect 9 0 10 0;
#X connect 10 0 2 0;
#X connect 11 0 4 0;
#X coords 0 -1 1 1 120 60 1 30 30;
#X restore 287 203 pd arraysize_samples;
#X obj 78 98 bng 15 250 50 0 empty empty rec_start 17 7 0 10 -262144
-1 -1;
#X obj 79 122 bng 15 250 50 0 empty empty rec_stop 17 7 0 10 -262144
-1 -1;
#X obj 160 82 bng 15 250 50 0 empty empty play_start 17 7 0 10 -262144
-1 -1;
#X obj 161 119 bng 15 250 50 0 empty empty play_stop 17 7 0 10 -262144
-1 -1;
#N canvas 239 124 450 300 rec 0;
#X obj 43 25 inlet~;
#X obj 45 216 *~;
#X obj 148 25 inlet;
#X obj 150 75 bng 15 250 50 0 empty empty empty 17 7 0 10 -262144 -1
-1;
#X obj 214 73 bng 15 250 50 0 empty empty empty 17 7 0 10 -262144 -1
-1;
#X msg 149 123 1;
#X msg 279 130 0;
#X msg 214 138 stop;
#X obj 181 207 switch~;
#X obj 181 162 dsp_switch_vanilla;
#X obj 347 166 tgl 15 0 empty empty recording -57 7 0 10 -262144 -258113
-1 1 1;
#X obj 379 147 timer;
#X floatatom 382 171 5 0 0 0 - - -;
#X obj 214 93 t b b b, f 12;
#X obj 150 95 t b b b;
#X obj 369 31 loadbang;
#X obj 369 54 samplerate~;
#X floatatom 369 77 5 0 0 0 - - -;
#X obj 382 193 *;
#X floatatom 382 216 8 0 0 0 - - -;
#X obj 382 238 s \$0-length;
#X obj 372 11 bng 15 250 50 0 empty empty empty 17 7 0 10 -262144 -1
-1;
#X obj 369 99 / 1000;
#X text 157 246 record also the ramp from the switch;
#X obj 285 221 outlet;
#X obj 150 49 route rec stop, f 22;
#X obj 214 116 delay 15;
#X obj 16 142 f \$0;
#X floatatom 16 165 5 0 0 0 - - -;
#X msg 16 187 set track\$1;
#X obj 16 102 loadbang;
#X obj 45 245 tabwrite~;
#X connect 0 0 1 0;
#X connect 1 0 31 0;
#X connect 2 0 25 0;
#X connect 3 0 14 0;
#X connect 4 0 13 0;
#X connect 5 0 9 0;
#X connect 5 0 10 0;
#X connect 6 0 9 0;
#X connect 6 0 10 0;
#X connect 7 0 31 0;
#X connect 9 0 8 0;
#X connect 9 1 1 1;
#X connect 10 0 24 0;
#X connect 11 0 12 0;
#X connect 12 0 18 0;
#X connect 13 0 26 0;
#X connect 13 1 11 1;
#X connect 13 2 7 0;
#X connect 14 0 31 0;
#X connect 14 1 5 0;
#X connect 14 2 11 0;
#X connect 15 0 16 0;
#X connect 16 0 17 0;
#X connect 17 0 22 0;
#X connect 18 0 19 0;
#X connect 19 0 20 0;
#X connect 21 0 16 0;
#X connect 22 0 18 1;
#X connect 25 0 3 0;
#X connect 25 1 4 0;
#X connect 26 0 6 0;
#X connect 27 0 28 0;
#X connect 28 0 29 0;
#X connect 29 0 31 0;
#X connect 30 0 27 0;
#X coords 0 300 1 299 72 30 0;
#X restore 47 186 pd rec;
#X msg 110 163 stop;
#X obj 46 150 inlet~;
#N canvas 4 54 721 399 play 0;
#X obj 188 354 *~;
#X obj 148 20 inlet;
#X obj 150 70 bng 15 250 50 0 empty empty empty 17 7 0 10 -262144 -1
-1;
#X obj 328 68 bng 15 250 50 0 empty empty empty 17 7 0 10 -262144 -1
-1;
#X msg 226 144 1;
#X msg 328 135 0;
#X msg 381 191 stop;
#X obj 324 368 switch~;
#X obj 325 317 dsp_switch_vanilla;
#X obj 462 336 tgl 15 0 empty empty playing -43 7 0 10 -262144 -258113
-1 0 1;
#X obj 13 37 r \$0-length;
#X floatatom 13 61 7 0 0 0 - - -;
#X obj 189 379 outlet~;
#X obj 188 151 f;
#N canvas 112 186 205 234 floor 0;
#X obj 36 11 inlet;
#X floatatom 36 136 5 0 0 0 - - -;
#X obj 36 158 * \$1;
#X floatatom 36 181 5 0 0 0 - - -;
#X obj 36 203 outlet;
#X obj 36 113 div;
#X obj 94 14 loadbang;
#X obj 94 85 t f f;
#X floatatom 94 62 5 0 0 0 - - -;
#X obj 160 15 bng 15 250 50 0 empty empty empty 17 7 0 10 -262144 -1
-1;
#X obj 94 39 f 64;
#X connect 0 0 5 0;
#X connect 1 0 2 0;
#X connect 2 0 3 0;
#X connect 3 0 4 0;
#X connect 5 0 1 0;
#X connect 6 0 10 0;
#X connect 7 0 5 1;
#X connect 7 1 2 1;
#X connect 8 0 7 0;
#X connect 9 0 10 0;
#X connect 10 0 8 0;
#X restore 13 83 pd floor;
#X text 69 54 round down to the nearest block (64 samples), f 10;
#X obj 239 69 bng 15 250 50 0 empty empty empty 17 7 0 10 -262144 -1
-1;
#X obj 555 266 spigot;
#X msg 188 174 0 \$1;
#X obj 487 118 f 0;
#X text 646 192 loop?;
#X obj 239 89 t b b;
#X obj 266 117 f 1;
#X obj 554 197 bng 15 250 50 0 empty empty empty 17 7 0 10 -262144
-1 -1;
#X floatatom 607 192 5 0 0 0 - - -;
#X obj 555 288 bng 15 250 50 0 empty empty empty 17 7 0 10 -262144
-1 -1;
#X obj 599 265 spigot;
#X obj 632 241 == 0;
#X obj 607 216 t f f;
#X obj 601 288 bng 15 250 50 0 empty empty empty 17 7 0 10 -262144
-1 -1;
#X obj 436 363 outlet;
#X obj 150 44 route play loop stop, f 45;
#X obj 582 335 s loopstart;
#X obj 554 217 t b b b;
#X obj 19 126 loadbang;
#X obj 19 149 f \$0;
#X floatatom 19 172 5 0 0 0 - - -;
#X msg 19 194 set track\$1;
#X obj 188 243 tabplay~;
#X msg 434 189 0 10;
#X obj 209 304 line~;
#X obj 187 328 *~;
#X msg 151 247 1 10;
#X obj 151 119 t b b b, f 13;
#X obj 325 291 t f f;
#X obj 210 268 s \$0fin;
#X obj 554 173 r \$0fin;
#X obj 555 363 s \$0restart;
#X obj 160 87 r \$0restart;
#X obj 601 309 s \$0stop;
#X obj 338 108 r \$0stop;
#X obj 328 88 t b b b b, f 27;
#X obj 226 167 s \$0switch;
#X obj 328 163 s \$0switch;
#X obj 325 263 r \$0switch;
#X obj 555 307 t b b;
#X text 528 266 yes;
#X text 644 266 no;
#X obj 266 140 s \$0loop;
#X obj 487 143 s \$0loop;
#X obj 607 160 r \$0loop;
#X text 130 302 ramp to avoid clicks, f 8;
#X connect 0 0 12 0;
#X connect 1 0 31 0;
#X connect 2 0 43 0;
#X connect 3 0 51 0;
#X connect 4 0 52 0;
#X connect 5 0 53 0;
#X connect 6 0 38 0;
#X connect 8 0 7 0;
#X connect 8 1 0 1;
#X connect 9 0 30 0;
#X connect 10 0 11 0;
#X connect 11 0 14 0;
#X connect 13 0 18 0;
#X connect 14 0 13 1;
#X connect 16 0 21 0;
#X connect 17 0 25 0;
#X connect 18 0 38 0;
#X connect 19 0 59 0;
#X connect 21 0 43 0;
#X connect 21 1 22 0;
#X connect 22 0 58 0;
#X connect 23 0 33 0;
#X connect 24 0 28 0;
#X connect 25 0 55 0;
#X connect 26 0 29 0;
#X connect 27 0 26 1;
#X connect 28 0 17 1;
#X connect 28 1 27 0;
#X connect 29 0 49 0;
#X connect 31 0 2 0;
#X connect 31 1 16 0;
#X connect 31 2 3 0;
#X connect 33 0 17 0;
#X connect 33 1 26 0;
#X connect 34 0 35 0;
#X connect 35 0 36 0;
#X connect 36 0 37 0;
#X connect 37 0 38 0;
#X connect 38 0 41 0;
#X connect 38 1 45 0;
#X connect 39 0 40 0;
#X connect 40 0 41 1;
#X connect 41 0 0 0;
#X connect 42 0 40 0;
#X connect 43 0 42 0;
#X connect 43 1 13 0;
#X connect 43 2 4 0;
#X connect 44 0 8 0;
#X connect 44 1 9 0;
#X connect 46 0 23 0;
#X connect 48 0 43 0;
#X connect 50 0 5 0;
#X connect 51 0 5 0;
#X connect 51 1 6 0;
#X connect 51 2 39 0;
#X connect 51 3 19 0;
#X connect 54 0 44 0;
#X connect 55 0 47 0;
#X connect 55 1 32 0;
#X connect 60 0 24 0;
#X coords 0 399 1 398 60 30 0;
#X restore 159 189 pd play;
#X obj 160 101 bng 15 250 50 0 empty empty play_loop 17 7 0 10 -262144
-1 -1;
#X msg 212 161 loop;
#X msg 174 161 stop;
#X obj 159 237 outlet~;
#X obj 96 209 tgl 15 0 empty empty recording -57 7 0 10 -262144 -258113
-1 1 1;
#X obj 200 211 tgl 15 0 empty empty playing -43 7 0 10 -262144 -258113
-1 0 1;
#X text 330 170 if armed \, pass message through, f 15;
#X obj 99 44 route rec play;
#X obj 6 5 inlet;
#X obj 30 30 triggers;
#X obj 291 35 loadbang;
#X obj 298 123 outlet;
#X obj 315 9 bng 15 250 50 0 empty empty empty 17 7 0 10 -262144 -1
-1;
#X obj 301 63 f \$0;
#X msg 298 92 symbol track\$1;
#X obj 421 22 r clear_all;
#X obj 421 46 bng 15 250 50 0 empty empty empty 17 7 0 10 -262144 -1
-1;
#X msg 421 66 \; track\$0 const 0;
#X connect 2 0 6 1;
#X connect 3 0 7 0;
#X connect 4 0 9 0;
#X connect 5 0 12 0;
#X connect 6 0 14 0;
#X connect 7 0 6 1;
#X connect 8 0 6 0;
#X connect 9 0 13 0;
#X connect 9 1 15 0;
#X connect 10 0 11 0;
#X connect 11 0 9 0;
#X connect 12 0 9 0;
#X connect 17 0 6 1;
#X connect 17 1 9 0;
#X connect 18 0 19 0;
#X connect 19 1 17 0;
#X connect 20 0 23 0;
#X connect 22 0 23 0;
#X connect 23 0 24 0;
#X connect 24 0 21 0;
#X connect 25 0 26 0;
#X connect 26 0 27 0;
#X coords 0 -1 1 1 15 45 2 30 30;
