#N canvas 124 49 642 420 10;
#X obj 176 258 rec_mono;
#X obj 236 261 rec_mono;
#X obj 30 30 APL_bang;
#X obj 191 18 loadbang;
#X obj 191 41 f \$1;
#X floatatom 191 64 5 0 0 0 - - -;
#X obj 157 106 select;
#X obj 124 18 notein 1;
#X obj 157 128 bng 15 250 50 0 empty empty empty 17 7 0 10 -262144
-1 -1;
#N canvas 262 117 441 325 midiout 0;
#X obj 37 37 inlet;
#X obj 161 33 inlet;
#X text 129 12 button no;
#X text 20 9 A \, P \, L \, other;
#X obj 37 60 route A P L, f 18;
#X obj 50 186 pack f f;
#X msg 50 209 \$2 \$1;
#X obj 50 232 s apc_leds_m1;
#X msg 37 83 3;
#X msg 72 83 1;
#X msg 106 83 2;
#X msg 143 145 0;
#X msg 188 146 5;
#X obj 229 35 inlet;
#X text 228 8 track\$0;
#X obj 143 82 bng 15 250 50 0 empty empty empty 17 7 0 10 -262144 -1
-1;
#X msg 229 58 symbol \$1;
#X obj 143 100 array max;
#X obj 143 123 select 0;
#X text 229 146 off f the array max = 0 \, orange otherwise (not empty)
, f 16;
#X connect 0 0 4 0;
#X connect 1 0 5 1;
#X connect 4 0 8 0;
#X connect 4 1 9 0;
#X connect 4 2 10 0;
#X connect 4 3 15 0;
#X connect 5 0 6 0;
#X connect 6 0 7 0;
#X connect 8 0 5 0;
#X connect 9 0 5 0;
#X connect 10 0 5 0;
#X connect 11 0 5 0;
#X connect 12 0 5 0;
#X connect 13 0 16 0;
#X connect 15 0 17 0;
#X connect 16 0 17 2;
#X connect 17 0 18 0;
#X connect 18 0 11 0;
#X connect 18 1 12 0;
#X restore 170 394 pd midiout;
#X obj 125 62 stripnote;
#X obj 157 187 t a a a;
#X floatatom 97 42 5 0 0 0 - - -;
#X obj 191 86 t f f f;
#X obj 230 109 mod 8;
#X floatatom 229 131 5 0 0 0 - - -;
#X msg 284 49 60;
#X obj 229 153 t f f f f;
#X msg 369 282 set col\$1_2-s;
#X msg 271 282 set col\$1_1-s;
#X msg 229 176 set col\$1_1-r;
#X msg 318 176 set col\$1_2-r;
#X obj 343 24 import ext13;
#X obj 189 246 monitor_small;
#X obj 254 257 monitor_small;
#X obj 176 379 monitor_small;
#X obj 237 384 monitor_small;
#X obj 260 18 bng 15 250 50 0 empty empty empty 17 7 0 10 -262144 -1
-1;
#X obj 38 316 switch~;
#X obj 38 271 dsp_switch_vanilla;
#X obj 26 137 select A P L;
#X msg 26 166 1;
#X msg 78 167 0;
#X obj 37 193 change;
#X floatatom 37 216 5 0 0 0 - - -;
#X obj 176 353 *~;
#X obj 236 353 *~;
#X obj 229 200 ext13/receive13~;
#X obj 319 200 ext13/receive13~;
#X obj 25 111 symbol;
#X obj 272 381 ext13/throw13~;
#X obj 369 381 ext13/throw13~;
#X obj 432 26 r clear_all;
#X obj 432 71 bng 15 250 50 0 empty empty empty 17 7 0 10 -262144 -1
-1;
#X obj 432 49 delay 100;
#X text 498 47 wait for the arrays to be set to const 0, f 20;
#X msg 432 92 symbol -;
#X connect 0 0 35 0;
#X connect 0 1 9 2;
#X connect 1 0 36 0;
#X connect 2 0 11 0;
#X connect 2 0 39 0;
#X connect 3 0 4 0;
#X connect 4 0 5 0;
#X connect 5 0 13 0;
#X connect 6 0 8 0;
#X connect 7 0 10 0;
#X connect 7 0 12 0;
#X connect 7 1 10 1;
#X connect 8 0 2 0;
#X connect 10 0 6 0;
#X connect 11 0 9 0;
#X connect 11 1 0 0;
#X connect 11 2 1 0;
#X connect 13 0 6 1;
#X connect 13 1 9 1;
#X connect 13 2 14 0;
#X connect 14 0 15 0;
#X connect 15 0 17 0;
#X connect 16 0 14 0;
#X connect 17 0 20 0;
#X connect 17 1 21 0;
#X connect 17 1 19 0;
#X connect 17 3 18 0;
#X connect 18 0 41 0;
#X connect 19 0 40 0;
#X connect 20 0 37 0;
#X connect 21 0 38 0;
#X connect 27 0 4 0;
#X connect 29 0 28 0;
#X connect 29 1 35 1;
#X connect 29 1 36 1;
#X connect 30 0 31 0;
#X connect 30 1 31 0;
#X connect 30 2 31 0;
#X connect 30 3 32 0;
#X connect 31 0 33 0;
#X connect 32 0 33 0;
#X connect 33 0 34 0;
#X connect 34 0 29 0;
#X connect 35 0 25 0;
#X connect 35 0 40 0;
#X connect 36 0 26 0;
#X connect 36 0 41 0;
#X connect 37 0 0 1;
#X connect 37 0 23 0;
#X connect 38 0 24 0;
#X connect 38 0 1 1;
#X connect 39 0 30 0;
#X connect 42 0 44 0;
#X connect 43 0 46 0;
#X connect 44 0 43 0;
#X connect 46 0 2 0;
#X coords 0 -1 1 1 16 16 2 30 30;
