#N canvas 154 57 642 420 10;
#X obj 176 208 rec_mono;
#X obj 236 211 rec_mono;
#X obj 30 30 APL_bang;
#X obj 191 8 loadbang;
#X obj 191 31 f \$1;
#X floatatom 191 54 5 0 0 0 - - -;
#N canvas 81 120 441 325 midiout 0;
#X obj 37 37 inlet;
#X obj 161 33 inlet;
#X text 129 12 button no;
#X text 20 9 A \, P \, L \, other;
#X obj 50 241 pack f f;
#X msg 50 264 \$2 \$1;
#X obj 50 287 s apc_leds_m1;
#X msg 38 101 3;
#X msg 119 94 1;
#X msg 161 90 2;
#X msg 212 148 0;
#X msg 257 149 5;
#X obj 243 34 inlet;
#X text 242 7 track\$0;
#X obj 212 85 bng 15 250 50 0 empty empty empty 17 7 0 10 -262144 -1
-1;
#X msg 243 57 symbol \$1;
#X obj 212 103 array max;
#X obj 212 126 select 0;
#X text 213 174 off f the array max = 0 \, orange otherwise (not empty)
, f 16;
#X msg 82 92 4;
#X obj 37 61 route A R P L, f 28;
#X connect 0 0 20 0;
#X connect 1 0 4 1;
#X connect 4 0 5 0;
#X connect 5 0 6 0;
#X connect 7 0 4 0;
#X connect 8 0 4 0;
#X connect 9 0 4 0;
#X connect 10 0 4 0;
#X connect 11 0 4 0;
#X connect 12 0 15 0;
#X connect 14 0 16 0;
#X connect 15 0 16 2;
#X connect 16 0 17 0;
#X connect 17 0 10 0;
#X connect 17 1 11 0;
#X connect 19 0 4 0;
#X connect 20 0 7 0;
#X connect 20 1 19 0;
#X connect 20 2 8 0;
#X connect 20 3 9 0;
#X connect 20 4 14 0;
#X restore 85 382 pd midiout;
#X obj 157 149 t a a a;
#X msg 284 39 60;
#X obj 343 14 import ext13;
#X obj 189 196 monitor_small;
#X obj 254 207 monitor_small;
#X obj 176 364 monitor_small;
#X obj 237 364 monitor_small;
#X obj 260 8 bng 15 250 50 0 empty empty empty 17 7 0 10 -262144 -1
-1;
#X obj 37 286 switch~;
#X obj 37 241 dsp_switch_vanilla;
#X obj 26 127 select A P L;
#X msg 26 156 1;
#X msg 78 157 0;
#X obj 37 183 change;
#X floatatom 37 206 5 0 0 0 - - -;
#X obj 176 343 *~;
#X obj 236 343 *~;
#X obj 25 101 symbol;
#X obj 432 16 r clear_all;
#X obj 432 61 bng 15 250 50 0 empty empty empty 17 7 0 10 -262144 -1
-1;
#X obj 432 39 delay 100;
#X text 498 37 wait for the arrays to be set to const 0, f 20;
#X msg 432 82 symbol -;
#X obj 446 312 symbol;
#X obj 494 313 symbol;
#X obj 429 220 r trackresize;
#X obj 429 243 route;
#X obj 429 346 pack f s;
#X obj 429 265 t f b f b;
#N canvas 331 146 334 299 midi_in 0;
#X floatatom 91 154 5 0 0 0 - - -;
#X obj 57 196 select;
#X obj 57 16 notein 1;
#X obj 57 218 bng 15 250 50 0 empty empty empty 17 7 0 10 -262144 -1
-1;
#X obj 57 60 stripnote;
#X floatatom 67 39 5 0 0 0 - - -;
#X obj 123 60 == 1;
#X obj 57 86 spigot;
#X obj 123 33 r act_m-s;
#X obj 57 238 outlet;
#X obj 90 124 inlet;
#X connect 0 0 1 1;
#X connect 1 0 3 0;
#X connect 2 0 4 0;
#X connect 2 0 5 0;
#X connect 2 1 4 1;
#X connect 3 0 9 0;
#X connect 4 0 7 0;
#X connect 6 0 7 1;
#X connect 7 0 1 0;
#X connect 8 0 6 0;
#X connect 10 0 0 0;
#X restore 136 104 pd midi_in;
#N canvas 0 50 333 262 receivers 0;
#X obj 17 20 inlet;
#X obj 20 69 mod 8;
#X floatatom 19 91 5 0 0 0 - - -;
#X obj 19 113 t f f f f;
#X msg 19 136 set col\$1_1-r;
#X msg 127 135 set col\$1_2-r;
#X obj 19 160 ext13/receive13~;
#X obj 128 159 ext13/receive13~;
#X floatatom 17 43 5 0 0 0 - - -;
#X obj 19 183 outlet~;
#X obj 128 182 outlet~;
#X connect 0 0 8 0;
#X connect 1 0 2 0;
#X connect 2 0 3 0;
#X connect 3 0 4 0;
#X connect 3 1 5 0;
#X connect 4 0 6 0;
#X connect 5 0 7 0;
#X connect 6 0 9 0;
#X connect 7 0 10 0;
#X connect 8 0 1 0;
#X restore 221 126 pd receivers;
#N canvas 0 50 351 283 throwers 0;
#X obj 216 20 inlet;
#X obj 20 69 mod 8;
#X floatatom 19 91 5 0 0 0 - - -;
#X obj 19 113 t f f f f;
#X floatatom 17 43 5 0 0 0 - - -;
#X msg 19 136 set col\$1_1-s;
#X msg 127 135 set col\$1_2-s;
#X obj 18 220 ext13/throw13~;
#X obj 127 219 ext13/throw13~;
#X obj 40 171 inlet~;
#X obj 136 182 inlet~;
#X connect 0 0 4 0;
#X connect 1 0 2 0;
#X connect 2 0 3 0;
#X connect 3 0 5 0;
#X connect 3 1 6 0;
#X connect 4 0 1 0;
#X connect 5 0 7 0;
#X connect 6 0 8 0;
#X connect 9 0 7 0;
#X connect 10 0 8 0;
#X restore 176 379 pd throwers;
#X f 21;
#X obj 505 286 bng 15 250 50 0 empty empty empty 17 7 0 10 -262144
-1 -1;
#X msg 429 369 \; \$2 resize \$1;
#X obj 191 75 t f f f f f f;
#N canvas 60 135 547 300 saveload 0;
#X obj 324 11 inlet;
#X text 365 10 tracknum;
#X obj 44 64 route;
#X obj 46 180 soundfiler;
#X msg 46 148 write -wave \$1 \$2 \$3;
#X obj 374 35 inlet;
#X obj 417 55 inlet;
#X obj 46 117 pack s s s;
#X text 414 33 track\$0_L;
#X text 457 53 track\$0_R;
#X text 45 13 notenum \, filename;
#X obj 46 94 t a;
#X obj 190 66 route;
#X obj 192 119 pack s s s;
#X obj 192 96 t a;
#X obj 190 35 r load_track;
#X obj 44 33 r save_track;
#X msg 192 150 read -resize \$1 \$2 \$3;
#X connect 0 0 2 1;
#X connect 0 0 12 1;
#X connect 2 0 11 0;
#X connect 4 0 3 0;
#X connect 5 0 7 1;
#X connect 5 0 13 1;
#X connect 6 0 7 2;
#X connect 6 0 13 2;
#X connect 7 0 4 0;
#X connect 11 0 7 0;
#X connect 12 0 14 0;
#X connect 13 0 17 0;
#X connect 14 0 13 0;
#X connect 15 0 12 0;
#X connect 16 0 2 0;
#X connect 17 0 3 0;
#X restore 342 382 pd saveload;
#X connect 0 0 22 0;
#X connect 0 1 6 2;
#X connect 0 1 30 1;
#X connect 0 1 42 1;
#X connect 0 2 6 0;
#X connect 1 0 23 0;
#X connect 1 1 31 1;
#X connect 1 1 42 2;
#X connect 2 0 7 0;
#X connect 2 0 24 0;
#X connect 3 0 4 0;
#X connect 4 0 5 0;
#X connect 5 0 41 0;
#X connect 7 0 6 0;
#X connect 7 1 0 0;
#X connect 7 2 1 0;
#X connect 8 0 37 0;
#X connect 14 0 4 0;
#X connect 16 0 15 0;
#X connect 16 1 22 1;
#X connect 16 1 23 1;
#X connect 17 0 18 0;
#X connect 17 1 18 0;
#X connect 17 2 18 0;
#X connect 17 3 19 0;
#X connect 18 0 20 0;
#X connect 19 0 20 0;
#X connect 20 0 21 0;
#X connect 21 0 16 0;
#X connect 22 0 12 0;
#X connect 22 0 38 0;
#X connect 23 0 13 0;
#X connect 23 0 38 1;
#X connect 24 0 17 0;
#X connect 25 0 27 0;
#X connect 26 0 29 0;
#X connect 27 0 26 0;
#X connect 29 0 2 0;
#X connect 30 0 34 1;
#X connect 31 0 34 1;
#X connect 32 0 33 0;
#X connect 33 0 35 0;
#X connect 34 0 40 0;
#X connect 35 0 34 0;
#X connect 35 1 30 0;
#X connect 35 2 34 0;
#X connect 35 3 31 0;
#X connect 35 3 39 0;
#X connect 36 0 2 0;
#X connect 37 0 10 0;
#X connect 37 0 0 1;
#X connect 37 1 11 0;
#X connect 37 1 1 1;
#X connect 41 0 36 0;
#X connect 41 1 6 1;
#X connect 41 2 37 0;
#X connect 41 3 38 2;
#X connect 41 4 33 1;
#X connect 41 5 42 0;
#X coords 0 -1 1 1 16 16 2 30 30;
