#N canvas 319 57 450 376 10;
#X obj 25 36 inlet~;
#X obj 74 36 inlet~;
#X text 48 13 side-chain volume automation;
#X obj 24 308 *~;
#X obj 24 331 outlet~;
#X obj 73 308 *~;
#X obj 81 332 outlet~;
#X floatatom 51 381 5 0 0 0 - - -;
#N canvas -5 63 463 383 vol_factor 0;
#X obj 129 33 inlet~;
#X obj 325 208 dsp_switch_vanilla;
#X obj 326 190 tgl 15 0 empty empty On/Off 17 7 0 10 -262144 -1 -1
1 1;
#X obj 35 298 line~;
#X floatatom 195 55 5 0 0 0 - - -;
#X obj 195 33 spigot;
#X obj 228 14 tgl 15 0 empty empty empty 17 7 0 10 -262144 -1 -1 0
1;
#X obj 252 91 hsl 50 15 0 100 0 0 empty empty Thresh 2 7 0 10 -262144
-1 -1 4300 1;
#X obj 252 110 hsl 50 15 0 1 0 0 empty empty Ratio 2 7 0 10 -262144
-1 -1 3300 1;
#X floatatom 306 109 4 0 0 0 - - -;
#X floatatom 306 90 4 0 0 0 - - -;
#X text 249 304 1 - (env-threshold)*ratio;
#X obj 129 84 moses, f 8;
#X obj 207 131 *;
#X obj 207 155 * -1;
#X msg 129 109 1;
#X floatatom 129 225 5 0 0 0 - - -;
#X obj 174 204 +;
#X obj 174 108 t b f, f 6;
#X msg 174 131 1;
#X obj 207 179 / 100;
#X obj 129 247 change;
#X obj 325 253 switch~;
#X obj 129 56 env~ 512;
#X obj 252 129 hsl 50 15 0 200 0 0 empty empty Attack 2 7 0 10 -262144
-1 -1 400 1;
#X floatatom 306 128 4 0 0 0 - - -;
#X obj 252 148 hsl 50 15 0 500 0 0 empty empty Decay 2 7 0 10 -262144
-1 -1 400 1;
#X floatatom 306 147 4 0 0 0 - - -;
#X obj 129 319 delay;
#X obj 156 292 pack f f;
#X msg 35 253 \$1 \$2;
#X obj 129 270 t b f;
#X obj 35 345 outlet~;
#X obj 310 33 inlet;
#X msg 59 223 \$1 20;
#X obj 35 321 *~;
#X obj 129 347 pack 1 f;
#X obj 290 168 bng 8 250 50 0 empty empty empty 17 7 0 10 -1 -258113
-1;
#X obj 256 165 tgl 15 0 empty empty vu 17 7 0 10 -262144 -1 -1 0 1
;
#X obj 223 268 spigot;
#X connect 0 0 23 0;
#X connect 1 0 22 0;
#X connect 1 1 35 1;
#X connect 2 0 1 0;
#X connect 3 0 35 0;
#X connect 5 0 4 0;
#X connect 6 0 5 1;
#X connect 7 0 10 0;
#X connect 8 0 9 0;
#X connect 9 0 13 1;
#X connect 10 0 12 1;
#X connect 12 0 15 0;
#X connect 12 1 18 0;
#X connect 13 0 14 0;
#X connect 14 0 20 0;
#X connect 15 0 16 0;
#X connect 16 0 21 0;
#X connect 17 0 16 0;
#X connect 18 0 19 0;
#X connect 18 1 13 0;
#X connect 19 0 17 0;
#X connect 20 0 17 1;
#X connect 21 0 34 0;
#X connect 21 0 31 0;
#X connect 21 0 39 0;
#X connect 23 0 5 0;
#X connect 23 0 12 0;
#X connect 24 0 25 0;
#X connect 25 0 28 1;
#X connect 25 0 29 1;
#X connect 26 0 27 0;
#X connect 27 0 36 1;
#X connect 28 0 36 0;
#X connect 29 0 30 0;
#X connect 30 0 3 0;
#X connect 31 0 28 0;
#X connect 31 1 29 0;
#X connect 33 0 2 0;
#X connect 35 0 32 0;
#X connect 36 0 30 0;
#X connect 38 0 39 1;
#X connect 39 0 37 0;
#X coords 0 -1 1 1 85 90 2 248 90;
#X restore 160 88 pd vol_factor;
#X obj 159 45 inlet~;
#X obj 230 72 tgl 15 0 empty empty empty 17 7 0 10 -262144 -1 -1 1
1;
#X obj 97 119 select 0;
#X msg 97 142 1;
#X msg 97 165 \$1 50;
#X obj 97 188 line~;
#X obj 199 206 tgl 15 0 empty empty empty 17 7 0 10 -262144 -1 -1 0
1;
#X obj 199 226 metro 100;
#X obj 199 249 snapshot~;
#X floatatom 199 272 5 0 0 0 - - -;
#X connect 0 0 3 0;
#X connect 1 0 5 0;
#X connect 3 0 4 0;
#X connect 5 0 6 0;
#X connect 8 0 3 1;
#X connect 8 0 5 1;
#X connect 8 0 17 0;
#X connect 9 0 8 0;
#X connect 10 0 8 1;
#X connect 10 0 11 0;
#X connect 11 0 12 0;
#X connect 12 0 13 0;
#X connect 13 0 14 0;
#X connect 14 0 3 1;
#X connect 14 0 5 1;
#X connect 15 0 16 0;
#X connect 16 0 17 0;
#X connect 17 0 18 0;
#X coords 0 -1 1 1 85 15 1 160 72;
