#N canvas 333 71 450 356 10;
#X obj 143 80 hsl 10 15 -0 127 0 0 empty empty P 4 8 0 10 -262144 -1
-1 300 0;
#X obj 172 180 inlet~;
#X obj 120 351 outlet~;
#X obj 197 353 outlet~;
#X obj 140 146 t f f;
#X obj 140 169 * -1;
#X obj 140 192 + 1;
#X obj 140 215 sqrt;
#X msg 140 258 \$1 50;
#X obj 140 281 line~;
#X obj 233 213 sqrt;
#X msg 233 256 \$1 50;
#X obj 233 279 line~;
#X obj 159 318 *~;
#X obj 187 318 *~;
#X obj 137 25 loadbang;
#X msg 138 58 64;
#X obj 266 31 inlet;
#X obj 71 58 delay 1000;
#X obj 185 206 inlet~;
#X floatatom 140 238 5 0 0 0 - - -;
#X floatatom 233 236 5 0 0 0 - - -;
#X floatatom 100 215 5 0 0 0 - - -;
#X floatatom 140 99 5 0 0 0 - - -;
#X obj 140 123 / 127;
#X connect 0 0 23 0;
#X connect 1 0 13 0;
#X connect 4 0 5 0;
#X connect 4 1 10 0;
#X connect 5 0 6 0;
#X connect 6 0 7 0;
#X connect 6 0 22 0;
#X connect 7 0 8 0;
#X connect 7 0 20 0;
#X connect 8 0 9 0;
#X connect 9 0 13 1;
#X connect 10 0 11 0;
#X connect 10 0 21 0;
#X connect 11 0 12 0;
#X connect 12 0 14 1;
#X connect 13 0 2 0;
#X connect 14 0 3 0;
#X connect 15 0 18 0;
#X connect 16 0 0 0;
#X connect 17 0 0 0;
#X connect 18 0 16 0;
#X connect 19 0 14 0;
#X connect 23 0 24 0;
#X connect 24 0 4 0;
#X coords 0 -1 1 1 15 15 2 140 80;
