#N canvas 71 84 514 354 10;
#X obj 233 24 import maxlib;
#X floatatom 117 198 5 0 0 0 - - -;
#X floatatom 115 122 5 0 0 0 - - -;
#X obj 115 99 notein 18;
#X obj 31 23 tgl 17 0 empty empty Activate_taptempo 17 7 0 10 -262144
-1 -1 1 1;
#X obj 31 68 select 1, f 32;
#X obj 31 91 t b b;
#X obj 59 118 f 1;
#X obj 116 149 spigot;
#X obj 244 122 f 0;
#X floatatom 167 23 4 0 0 0 - - -;
#X msg 52 169 4 127 17;
#X obj 30 328 noteout;
#X msg 42 192 13 127 17;
#X obj 150 23 bng 17 250 50 0 empty empty empty 17 7 0 10 -262144 -258113
-1;
#X obj 192 200 bng 15 250 50 0 empty empty empty 17 7 0 10 -262144
-1 -1;
#X obj 117 220 int;
#X obj 193 23 bng 17 250 50 0 empty empty empty 17 7 0 10 -262144 -1
-1;
#X obj 15 2 inlet;
#X obj 209 233 metro;
#X msg 217 195 stop;
#X msg 237 300 4 127 17;
#X msg 208 332 4 0 17;
#X obj 210 255 bng 15 250 50 0 empty empty empty 17 7 0 10 -262144
-1 -1;
#X obj 210 275 t b b;
#X obj 178 304 delay 150;
#X obj 117 175 maxlib/beat 2;
#X msg 298 121 4 0 17;
#X obj 217 98 t b b b b, f 14;
#X msg 276 149 13 0 17;
#X obj 83 254 s globaltempo_ms;
#X obj 59 2 r activate_taptempo;
#X obj 383 17 loadbang;
#X obj 383 40 t b b;
#X msg 383 63 120;
#X msg 415 62 500;
#X obj 31 143 t b b b;
#X connect 1 0 16 0;
#X connect 2 0 8 0;
#X connect 3 0 2 0;
#X connect 3 1 26 1;
#X connect 4 0 5 0;
#X connect 5 0 6 0;
#X connect 5 1 28 0;
#X connect 6 0 36 0;
#X connect 6 1 7 0;
#X connect 7 0 8 1;
#X connect 8 0 14 0;
#X connect 8 0 26 0;
#X connect 9 0 8 1;
#X connect 11 0 12 0;
#X connect 13 0 12 0;
#X connect 15 0 17 0;
#X connect 15 0 19 0;
#X connect 16 0 10 0;
#X connect 18 0 4 0;
#X connect 19 0 23 0;
#X connect 20 0 19 0;
#X connect 21 0 12 0;
#X connect 22 0 12 0;
#X connect 23 0 24 0;
#X connect 24 0 25 0;
#X connect 24 1 21 0;
#X connect 25 0 22 0;
#X connect 26 0 1 0;
#X connect 26 1 19 1;
#X connect 26 1 30 0;
#X connect 26 2 15 0;
#X connect 27 0 12 0;
#X connect 28 0 20 0;
#X connect 28 1 9 0;
#X connect 28 2 29 0;
#X connect 28 3 27 0;
#X connect 29 0 12 0;
#X connect 31 0 4 0;
#X connect 32 0 33 0;
#X connect 33 0 34 0;
#X connect 33 1 35 0;
#X connect 34 0 1 0;
#X connect 35 0 19 1;
#X connect 35 0 30 0;
#X connect 36 0 19 0;
#X connect 36 1 13 0;
#X connect 36 2 11 0;
#X coords 0 -1 1 1 179 17 2 31 23;
