#N canvas 235 73 546 403 10;
#X obj 30 70 tgl 15 0 empty empty A 4 7 0 10 -261234 -1 -258113 0 1
;
#X obj 30 85 tgl 15 0 empty empty P 4 7 0 10 -204786 -1 -4034 0 1;
#X obj 116 6 r globalrec;
#X obj 117 101 spigot;
#X obj 117 29 route bang stop;
#X text 162 93 if armed \, pass message through, f 15;
#X obj 272 89 route bang stop;
#X obj 272 21 r globalplay;
#X obj 30 100 tgl 15 0 empty empty L 4 7 0 10 -203904 -1 -4160 1 1
;
#X msg 31 176 0;
#X msg 31 247 0;
#X msg 29 326 0;
#X obj 271 321 outlet;
#X obj 30 203 select 1;
#X obj 31 131 select 1;
#X obj 30 271 select 1;
#X obj 272 114 bng 15 250 50 0 empty empty empty 17 7 0 10 -262144
-1 -1;
#X obj 271 230 spigot;
#X obj 326 231 spigot;
#X obj 272 134 t b b;
#X msg 117 141 rec \$1;
#X msg 271 287 play \$1;
#X obj 16 7 inlet;
#X obj 16 30 route A P L;
#X obj 81 363 outlet;
#X obj 30 294 t b b;
#X obj 30 225 t b b;
#X obj 31 152 t b b;
#X msg 59 325 L 1;
#X msg 83 247 P 1;
#X msg 87 174 A 1;
#X msg 116 184 A 0;
#X msg 97 326 L 0;
#X msg 122 248 P 0;
#X msg 117 74 symbol rec;
#X msg 160 54 symbol stop;
#X msg 315 114 symbol stop;
#X msg 325 175 symbol loop;
#X msg 272 197 symbol play;
#X msg 75 54 0;
#X obj 116 29;
#X obj 315 137 t s s b;
#X obj 326 254 t a b;
#X obj 413 51 r loopstart;
#X obj 413 117 spigot;
#X obj 494 79 f 1;
#X obj 468 79 f 0;
#X floatatom 445 98 5 0 0 0 - - -;
#X obj 413 80 bng 15 250 50 0 empty empty empty 17 7 0 10 -262144 -1
-1;
#X connect 0 0 3 1;
#X connect 0 0 14 0;
#X connect 1 0 13 0;
#X connect 1 0 17 1;
#X connect 2 0 4 0;
#X connect 2 0 40 0;
#X connect 3 0 20 0;
#X connect 4 0 34 0;
#X connect 4 1 35 0;
#X connect 6 0 16 0;
#X connect 6 1 36 0;
#X connect 7 0 6 0;
#X connect 8 0 15 0;
#X connect 8 0 18 1;
#X connect 9 0 1 0;
#X connect 9 0 8 0;
#X connect 10 0 0 0;
#X connect 10 0 8 0;
#X connect 11 0 0 0;
#X connect 11 0 1 0;
#X connect 13 0 26 0;
#X connect 13 1 33 0;
#X connect 14 0 27 0;
#X connect 14 1 31 0;
#X connect 15 0 25 0;
#X connect 15 1 32 0;
#X connect 16 0 19 0;
#X connect 17 0 21 0;
#X connect 18 0 42 0;
#X connect 19 0 38 0;
#X connect 19 1 37 0;
#X connect 20 0 12 0;
#X connect 21 0 12 0;
#X connect 22 0 23 0;
#X connect 23 0 0 0;
#X connect 23 1 1 0;
#X connect 23 2 8 0;
#X connect 23 3 39 0;
#X connect 25 0 11 0;
#X connect 25 1 28 0;
#X connect 26 0 10 0;
#X connect 26 1 29 0;
#X connect 27 0 9 0;
#X connect 27 1 30 0;
#X connect 28 0 24 0;
#X connect 29 0 24 0;
#X connect 30 0 24 0;
#X connect 31 0 24 0;
#X connect 32 0 24 0;
#X connect 33 0 24 0;
#X connect 34 0 3 0;
#X connect 35 0 3 0;
#X connect 36 0 41 0;
#X connect 37 0 18 0;
#X connect 38 0 17 0;
#X connect 39 0 0 0;
#X connect 39 0 1 0;
#X connect 39 0 8 0;
#X connect 41 0 17 0;
#X connect 41 1 18 0;
#X connect 42 0 21 0;
#X connect 43 0 48 0;
#X connect 45 0 47 0;
#X connect 46 0 47 0;
#X connect 47 0 44 1;
#X connect 48 0 44 0;
#X coords 0 -1 1 1 15 45 2 30 70;
